<?xml version="1.0" encoding="UTF-8" standalone="no"?>
<svg
   xmlns:dc="http://purl.org/dc/elements/1.1/"
   xmlns:cc="http://creativecommons.org/ns#"
   xmlns:rdf="http://www.w3.org/1999/02/22-rdf-syntax-ns#"
   xmlns:svg="http://www.w3.org/2000/svg"
   xmlns="http://www.w3.org/2000/svg"
   version="1.1"
   id="svg2"
   viewBox="0 0 134.45085 132.89714"
   height="37.506527mm"
   width="37.945019mm">
  <defs
     id="defs4" />
  <metadata
     id="metadata7">
    <rdf:RDF>
      <cc:Work
         rdf:about="">
        <dc:format>image/svg+xml</dc:format>
        <dc:type
           rdf:resource="http://purl.org/dc/dcmitype/StillImage" />
        <dc:title></dc:title>
      </cc:Work>
    </rdf:RDF>
  </metadata>
  <g
     transform="translate(-311.34845,-105.06062)"
     id="layer1" />
  <rect
     style="opacity:1;fill:#000000;fill-opacity:1;stroke:#4f4f4f;stroke-width:2;stroke-linecap:round;stroke-linejoin:round;stroke-miterlimit:4;stroke-dasharray:none;stroke-opacity:1"
     id="rect4148"
     width="132.45085"
     height="130.89714"
     x="0.9999997"
     y="1.0000032"
     ry="23.230007" />
  <path
     style="opacity:1;fill:#ffffff;fill-opacity:1;stroke:#4f4f4f;stroke-width:2;stroke-linecap:round;stroke-linejoin:round;stroke-miterlimit:4;stroke-dasharray:none;stroke-opacity:1"
     d="m 65.73838,10.61289 c -1.36466,0.0335 -2.7184,0.60584 -3.62707,1.65638 L 46.3653,30.47376 c -1.5508,1.79293 -1.20076,4.27909 0.78482,5.57411 l 0.28577,0.18625 c 1.98558,1.29502 4.83254,0.89434 6.38334,-0.8986 l 7.11447,-8.22561 0,21.32275 c 0,0.20988 0.01,0.41684 0.0274,0.62072 A 21.493014,21.261909 0 0 0 46.62891,59.84749 L 26.54123,52.84456 38.00113,48.29822 C 40.20464,47.42406 41.52,44.86761 40.95078,42.5664 l -0.0819,-0.33121 c -0.56922,-2.30121 -2.8017,-3.45017 -5.00521,-2.57601 l -22.37305,8.87599 c -1.38479,0.54937 -2.41787,1.76343 -2.8539,3.16069 -0.003,0.007 -0.007,0.0144 -0.009,0.0218 -0.51786,1.3605 -0.45931,2.94379 0.27976,4.2279 l 12.00665,20.86086 c 1.1825,2.05458 3.64545,2.54248 5.52191,1.09387 l 0.27,-0.20841 c 1.87646,-1.44861 2.43521,-4.26868 1.2527,-6.32326 l -5.4254,-9.42574 19.61716,6.83883 a 21.493014,21.261909 0 0 0 -0.036,1.01464 21.493014,21.261909 0 0 0 16.93337,20.75159 l 0,10.1779 a 13.00356,12.863737 0 0 0 -8.19256,11.94581 13.00356,12.863737 0 0 0 13.00325,12.86356 13.00356,12.863737 0 0 0 13.00364,-12.86356 13.00356,12.863737 0 0 0 -8.75058,-12.14108 l 0,-9.95485 a 21.493014,21.261909 0 0 0 16.98895,-20.77937 21.493014,21.261909 0 0 0 -0.0867,-1.71046 l 21.10982,-7.46106 -6.10358,10.7115 c -1.17368,2.05963 -0.60292,4.87745 1.27974,6.318 l 0.27075,0.20728 c 1.88266,1.44055 4.34373,0.94211 5.51741,-1.11752 l 11.91652,-20.91231 c 0.7376,-1.29438 0.78532,-2.88794 0.25235,-4.25118 -0.002,-0.008 -0.004,-0.015 -0.006,-0.0225 -0.44611,-1.38568 -1.48151,-2.58496 -2.86103,-3.12539 L 95.97846,39.65279 c -2.20723,-0.86469 -4.43461,0.29379 -4.99394,2.59742 l -0.0804,0.33158 c -0.55934,2.30364 0.7672,4.85436 2.97444,5.71906 l 10.12607,3.96692 -19.75422,6.98191 A 21.493014,21.261909 0 0 0 70.16004,49.04362 c 0.0172,-0.20071 0.0263,-0.40446 0.0263,-0.61096 l 0,-22.4215 8.06526,9.32436 c 1.5508,1.79294 4.39776,2.19362 6.38334,0.8986 l 0.28577,-0.18625 c 1.98558,-1.29502 2.33562,-3.78118 0.78482,-5.57411 l -15.746,-18.20449 c -0.9746,-1.12677 -2.46119,-1.70274 -3.92411,-1.65451 -0.008,-1.9e-4 -0.0157,-0.001 -0.0237,-0.001 -0.0909,-0.003 -0.18202,-0.003 -0.273,-3.7e-4 z m -0.13105,46.3195 A 13.00356,12.863737 0 0 1 78.61059,69.79633 13.00356,12.863737 0 0 1 65.60733,82.65989 13.00356,12.863737 0 0 1 52.6037,69.79633 13.00356,12.863737 0 0 1 65.60733,56.93239 Z"
     id="path4150" />
</svg>
