<?xml version="1.0" encoding="UTF-8" standalone="no"?>
<svg
   xmlns:dc="http://purl.org/dc/elements/1.1/"
   xmlns:cc="http://creativecommons.org/ns#"
   xmlns:rdf="http://www.w3.org/1999/02/22-rdf-syntax-ns#"
   xmlns:svg="http://www.w3.org/2000/svg"
   xmlns="http://www.w3.org/2000/svg"
   version="1.1"
   id="svg4965"
   viewBox="0 0 195.74482 196.75038"
   height="55.527328mm"
   width="55.243538mm">
  <defs
     id="defs4967" />
  <metadata
     id="metadata4970">
    <rdf:RDF>
      <cc:Work
         rdf:about="">
        <dc:format>image/svg+xml</dc:format>
        <dc:type
           rdf:resource="http://purl.org/dc/dcmitype/StillImage" />
        <dc:title></dc:title>
      </cc:Work>
    </rdf:RDF>
  </metadata>
  <g
     transform="translate(-250.69902,-416.84416)"
     id="layer1">
    <g
       transform="translate(-562.33748,292.79637)"
       id="g4683">
      <rect
         style="fill:#a1a2a3;fill-opacity:1;stroke:#616161;stroke-width:5.52306032;stroke-linecap:round;stroke-linejoin:round;stroke-miterlimit:4;stroke-dasharray:none;stroke-opacity:1"
         id="rect4349-8-9"
         width="190.22176"
         height="191.22731"
         x="815.79803"
         y="126.80932" />
      <path
         style="display:inline;fill:#5400ff;fill-opacity:1;fill-rule:evenodd;stroke:#4000c3;stroke-width:2.0192306;stroke-linecap:round;stroke-linejoin:round;stroke-miterlimit:4;stroke-dasharray:none;stroke-opacity:1"
         d="m 879.38505,148.3746 -24.11204,21.32513 17.05428,0.45539 -0.0826,32.96459 -0.0113,0.01 0.0113,0.008 0,0.10279 0.14752,0 27.756,19.15098 -27.91827,19.19262 0.0325,0.0221 -0.0177,0 0.0826,33.08455 -17.05428,0.4554 24.11204,21.32512 25.29227,-22.63254 -18.06042,0.47987 -0.0738,-28.59672 23.75208,-16.32805 23.82877,16.44068 0.0708,28.85624 -17.05724,0.4554 24.11499,21.32512 25.29227,-22.63254 -18.06043,0.47987 -0.0856,-32.74178 -0.0944,0 -27.81204,-19.19262 27.80615,-19.11671 0.10028,0 0.0856,-32.73932 18.06043,0.47987 -25.29227,-22.63255 -24.11499,21.32513 17.05724,0.45539 -0.0708,28.88319 -23.77862,16.34518 -23.80223,-16.42599 0.0738,-28.43022 18.06042,0.47987 -25.29227,-22.63255 z"
         id="path5466-3-8-1-7-7-4" />
    </g>
  </g>
</svg>
