<?xml version="1.0" encoding="UTF-8" standalone="no"?>
<svg
   xmlns:dc="http://purl.org/dc/elements/1.1/"
   xmlns:cc="http://creativecommons.org/ns#"
   xmlns:rdf="http://www.w3.org/1999/02/22-rdf-syntax-ns#"
   xmlns:svg="http://www.w3.org/2000/svg"
   xmlns="http://www.w3.org/2000/svg"
   version="1.1"
   id="svg5557"
   viewBox="0 0 195.74482 196.75038"
   height="55.527328mm"
   width="55.243538mm">
  <defs
     id="defs5559" />
  <metadata
     id="metadata5562">
    <rdf:RDF>
      <cc:Work
         rdf:about="">
        <dc:format>image/svg+xml</dc:format>
        <dc:type
           rdf:resource="http://purl.org/dc/dcmitype/StillImage" />
        <dc:title></dc:title>
      </cc:Work>
    </rdf:RDF>
  </metadata>
  <g
     transform="translate(-273.55616,-442.55845)"
     id="layer1">
    <g
       transform="translate(-516.98883,75.601625)"
       id="g4701">
      <g
         id="g4695">
        <rect
           y="369.71835"
           x="793.30652"
           height="191.22731"
           width="190.22176"
           id="rect4349-8"
           style="fill:#a1a2a3;fill-opacity:1;stroke:#616161;stroke-width:5.52306032;stroke-linecap:round;stroke-linejoin:round;stroke-miterlimit:4;stroke-dasharray:none;stroke-opacity:1" />
        <g
           transform="translate(0.12601471,1.2976456)"
           id="g4691">
          <circle
             style="fill:#616161;fill-opacity:1;fill-rule:evenodd;stroke:none;stroke-width:1.15978837;stroke-linecap:butt;stroke-linejoin:round;stroke-miterlimit:4;stroke-dasharray:none;stroke-opacity:1"
             id="path3338-7-9-3"
             cx="888.29138"
             cy="464.03436"
             r="87.568954" />
          <circle
             style="fill:#a1a2a3;fill-opacity:1;fill-rule:evenodd;stroke:#4000c3;stroke-width:2.5774281;stroke-linecap:butt;stroke-linejoin:round;stroke-miterlimit:4;stroke-dasharray:none;stroke-opacity:1"
             id="path3338-1-4"
             cx="888.29138"
             cy="464.03436"
             r="82.0569" />
        </g>
      </g>
      <path
         style="display:inline;fill:#5400ff;fill-opacity:1;fill-rule:evenodd;stroke:#4000c3;stroke-width:1.61080325;stroke-linecap:round;stroke-linejoin:round;stroke-miterlimit:4;stroke-dasharray:none;stroke-opacity:1"
         d="m 863.26984,406.2615 -19.23493,17.01172 13.60473,0.36328 -0.0659,26.29688 -0.009,0.008 0.009,0.006 0,0.082 0.11768,0 22.14183,15.27734 -22.27128,15.31055 0.0259,0.0176 -0.0141,0 0.0659,26.39258 -13.60473,0.36328 19.23493,17.01172 20.17643,-18.05469 -14.40736,0.38281 -0.0589,-22.8125 18.94777,-13.02539 19.00896,13.11524 0.0565,23.01953 -13.60709,0.36328 19.23728,17.01172 20.17643,-18.05469 -14.40737,0.38281 -0.0683,-26.11914 -0.0753,0 -22.18653,-15.31055 22.18183,-15.25 0.08,0 0.0683,-26.11718 14.40737,0.38281 -20.17643,-18.05469 -19.23728,17.01172 13.60709,0.36328 -0.0565,23.04102 -18.96895,13.03906 -18.98778,-13.10352 0.0589,-22.67968 14.40736,0.38281 -20.17643,-18.05469 z"
         id="path5466-3-8-1-7-7" />
    </g>
  </g>
</svg>
