<?xml version="1.0" encoding="UTF-8" standalone="no"?>
<svg
   xmlns:dc="http://purl.org/dc/elements/1.1/"
   xmlns:cc="http://creativecommons.org/ns#"
   xmlns:rdf="http://www.w3.org/1999/02/22-rdf-syntax-ns#"
   xmlns:svg="http://www.w3.org/2000/svg"
   xmlns="http://www.w3.org/2000/svg"
   width="41.322506mm"
   height="59.977161mm"
   viewBox="0 0 41.322506 59.977161"
   version="1.1"
   id="svg8">
  <defs
     id="defs2" />
  <metadata
     id="metadata5">
    <rdf:RDF>
      <cc:Work
         rdf:about="">
        <dc:format>image/svg+xml</dc:format>
        <dc:type
           rdf:resource="http://purl.org/dc/dcmitype/StillImage" />
        <dc:title></dc:title>
      </cc:Work>
    </rdf:RDF>
  </metadata>
  <g
     transform="translate(-128.06112,-87.622466)"
     id="layer1">
    <g
       id="g1091">
      <g
         transform="translate(0.1580529,-1.1244792)"
         id="g1081">
        <rect
           style="opacity:1;fill:#559cd0;fill-opacity:1;stroke:#2c79b2;stroke-width:1.25999999;stroke-linecap:round;stroke-linejoin:round;stroke-miterlimit:4;stroke-dasharray:none;stroke-opacity:1;paint-order:normal"
           id="rect6083-0"
           width="40.062508"
           height="16.86587"
           x="128.53307"
           y="89.376945" />
        <path
           style="display:inline;opacity:1;fill:#ffffff;fill-opacity:1;stroke:#a1a1a1;stroke-width:0.2;stroke-linecap:round;stroke-linejoin:round;stroke-miterlimit:4;stroke-dasharray:none;stroke-opacity:1"
           d="m 132.20646,91.611743 v 4.759742 h 7.20052 v -1.388511 l 6.66089,2.895535 -6.66089,2.841511 v -1.471189 h -7.20052 v 4.759189 h 7.20052 v -1.0848 l 0.33349,-0.14221 h 17.60526 l 0.37648,0.16371 v 1.0633 h 7.19997 v -4.759189 h -7.19997 v 1.632139 l -6.70057,-2.912613 6.70057,-2.859153 v 1.262281 h 7.19997 v -4.759742 h -7.19997 v 1.294254 l -0.22986,0.09811 h -17.88969 l -0.19568,-0.08489 v -1.307481 z m 10.17819,2.601735 H 154.658 l -6.19455,2.642526 z m 6.24085,4.776831 5.93825,2.581331 h -11.98838 z"
           id="rect6085-7-9-8-2" />
      </g>
      <g
         transform="translate(0.07783935)"
         id="g1075">
        <rect
           style="opacity:1;fill:#559cd0;fill-opacity:1;stroke:#2c79b2;stroke-width:1.0057646;stroke-linecap:round;stroke-linejoin:round;stroke-miterlimit:4;stroke-dasharray:none;stroke-opacity:1"
           id="rect826"
           width="40.222935"
           height="40.853931"
           x="128.53307"
           y="106.24281" />
        <g
           id="g1069"
           transform="translate(-0.32418185,0.57016383)">
          <path
             id="rect867"
             d="m 149.18297,108.25016 -1.84082,1.73031 -1.6558,1.66717 2.36749,0.0315 -0.155,7.01515 -4.15056,-3.26593 c -0.007,-0.006 -0.0139,-0.011 -0.0216,-0.017 -0.002,-0.002 -0.005,-0.003 -0.007,-0.005 -1.17013,-0.81489 -2.31893,-1.68636 -3.6646,-2.43001 -0.81342,-0.45793 -1.49221,-0.67756 -2.45084,-1.00724 -0.0215,-0.008 -0.0438,-0.0126 -0.0664,-0.0152 -0.33202,-0.10327 -0.57681,-0.18672 -0.83926,-0.21534 -0.28125,-0.0306 -0.5527,0.008 -0.89232,0.0966 -0.003,6.2e-4 -0.006,10e-4 -0.009,0.002 -0.005,0.001 -0.009,0.003 -0.0139,0.005 -0.36695,0.11658 -0.61765,0.39655 -0.78054,0.67886 -0.16041,0.27806 -0.25666,0.58865 -0.24059,0.90243 -0.0145,0.85198 0.0931,1.08233 0.16798,1.46886 l 0.002,0.007 c 0.001,0.009 0.002,0.0188 0.005,0.0284 0.002,0.005 0.003,0.01 0.005,0.0145 0.27259,0.98803 0.9835,2.28792 1.27185,2.79377 0.01,0.0179 0.0215,0.0349 0.0347,0.0505 6.6e-4,6.7e-4 0.001,0.001 0.002,0.002 l 1.12028,1.73347 c 0.006,0.008 0.0118,0.0162 0.0183,0.0239 6.6e-4,6.7e-4 0.001,10e-4 0.002,0.002 l 1.67409,2.55 0.002,0.005 0.0163,0.0239 c 0.001,0.002 5.7e-4,0.005 0.002,0.007 0.006,0.009 0.0122,0.018 0.019,0.0265 l 1.55979,1.98731 c 0.002,0.003 0.005,0.006 0.007,0.009 l 0.74831,0.89925 -6.96416,0.0126 -0.0183,-2.32706 -1.7164,1.70757 -1.7019,1.6419 1.76946,1.80419 1.70126,1.61979 -0.0177,-2.36748 7.36708,-0.0134 -3.65953,4.56007 c -0.006,0.007 -0.0111,0.0138 -0.0171,0.0215 -0.002,0.002 -0.003,0.005 -0.005,0.007 -0.80126,1.17954 -1.6591,2.33817 -2.38707,3.69237 -0.44845,0.81872 -0.66031,1.49982 -0.97883,2.46222 -0.007,0.0217 -0.0122,0.0442 -0.0145,0.067 -0.0994,0.33318 -0.17966,0.57838 -0.20524,0.84115 -0.0274,0.28159 0.0146,0.55249 0.10664,0.89104 9.5e-4,0.003 0.002,0.006 0.003,0.009 8.1e-4,0.005 0.003,0.009 0.005,0.0145 0.12086,0.36557 0.40351,0.61274 0.6877,0.77233 0.27991,0.15722 0.59202,0.2495 0.90558,0.22987 0.85211,0.005 1.08072,-0.10495 1.46634,-0.18441 l 0.007,-0.003 c 0.009,-8.7e-4 0.0189,-0.001 0.0285,-0.003 0.005,-0.002 0.01,-0.003 0.0145,-0.005 0.98481,-0.28402 2.27615,-1.00923 2.77861,-1.30341 0.018,-0.0101 0.0349,-0.0219 0.0505,-0.0354 6.7e-4,-6.6e-4 0.001,-10e-4 0.002,-0.002 l 1.7202,-1.14048 c 0.008,-0.006 0.0162,-0.0119 0.0239,-0.0184 6.7e-4,-6.6e-4 10e-4,-0.001 0.002,-0.002 l 2.53042,-1.70378 0.005,-0.003 0.0239,-0.0163 c 0.002,-0.001 0.005,-0.001 0.007,-0.003 0.009,-0.006 0.0179,-0.0121 0.0264,-0.0188 l 1.96902,-1.58318 c 0.003,-0.002 0.006,-0.005 0.009,-0.007 l 1.00094,-0.85316 v 6.69452 l -2.32708,0.0139 1.70442,1.71956 1.63874,1.70443 1.80735,-1.76567 1.62296,-1.69873 -2.36751,0.0139 -0.14174,-6.771 4.68349,3.31797 c 0.007,0.006 0.0145,0.011 0.0221,0.0171 0.002,0.002 0.005,0.003 0.007,0.005 1.18419,0.79433 2.34846,1.64494 3.70691,2.36498 0.82131,0.44363 1.50367,0.65141 2.4679,0.96429 0.0215,0.007 0.0438,0.0122 0.0664,0.0145 0.33377,0.0974 0.58014,0.17616 0.84305,0.20017 0.28174,0.0259 0.55177,-0.0175 0.88978,-0.11182 0.003,-6.2e-4 0.006,-0.001 0.009,-0.002 0.005,-0.001 0.009,-0.003 0.0145,-0.005 0.36484,-0.12303 0.6106,-0.407 0.76853,-0.69213 0.15555,-0.28082 0.24574,-0.59339 0.22419,-0.90685 -3.9e-4,-0.8521 -0.11169,-1.08055 -0.19324,-1.4657 l -0.002,-0.007 c -0.001,-0.009 -0.002,-0.019 -0.005,-0.0284 -0.002,-0.005 -0.003,-0.009 -0.005,-0.0139 -0.2898,-0.98311 -1.0227,-2.27028 -1.31983,-2.77101 -0.0101,-0.018 -0.0219,-0.0349 -0.0354,-0.0505 -6.6e-4,-6.7e-4 -0.001,-10e-4 -0.002,-0.002 l -1.15059,-1.71326 c -0.006,-0.008 -0.0121,-0.0162 -0.0188,-0.0239 -6.6e-4,-6.7e-4 -0.001,-10e-4 -0.002,-0.002 l -1.71831,-2.52031 -0.002,-0.005 -0.0171,-0.0239 c -10e-4,-0.002 -10e-4,-0.005 -0.002,-0.007 -0.006,-0.009 -0.0121,-0.0179 -0.0189,-0.0264 l -1.59454,-1.95955 c -0.002,-0.003 -0.005,-0.006 -0.007,-0.009 l -1.03946,-1.20555 7.01344,0.10864 -0.0221,2.32707 1.74547,-1.67726 1.72968,-1.61221 -1.73726,-1.83451 -1.67348,-1.64948 -0.0227,2.36749 -7.02986,-0.10926 3.26233,-4.25946 c 0.006,-0.008 0.011,-0.0138 0.0163,-0.0216 0.002,-0.002 0.003,-0.005 0.005,-0.007 0.77443,-1.19733 1.60586,-2.37514 2.30307,-3.74543 0.42985,-0.82861 0.62591,-1.51434 0.92262,-2.48367 0.007,-0.0218 0.0114,-0.0442 0.0134,-0.067 0.0919,-0.33534 0.16668,-0.58228 0.1863,-0.84557 0.0211,-0.28215 -0.0273,-0.55212 -0.12693,-0.88852 -9.5e-4,-0.003 -0.002,-0.006 -0.003,-0.009 -0.001,-0.005 -0.003,-0.008 -0.005,-0.014 -0.12906,-0.36273 -0.41705,-0.60337 -0.70476,-0.75652 -0.28338,-0.15087 -0.5976,-0.23639 -0.91061,-0.20966 -0.852,0.0146 -1.07882,0.12986 -1.46257,0.21787 l -0.007,0.003 c -0.009,10e-4 -0.0191,0.002 -0.0285,0.005 -0.005,0.002 -0.01,0.004 -0.0145,0.006 -0.97812,0.3062 -2.25259,1.06046 -2.74828,1.36592 -0.0178,0.0105 -0.0345,0.0228 -0.0499,0.0367 -6.7e-4,6.6e-4 -10e-4,0.001 -0.002,0.002 l -1.69431,1.179 c -0.008,0.006 -0.0159,0.0127 -0.0234,0.0196 -6.7e-4,6.6e-4 -0.001,10e-4 -0.002,0.002 l -2.49128,1.75999 -0.005,0.003 -0.0234,0.017 c -0.002,9e-4 -0.005,7e-4 -0.007,0.003 -0.009,0.006 -0.0176,0.0126 -0.0259,0.0196 l -1.93239,1.62674 c -0.003,0.002 -0.006,0.005 -0.009,0.007 l -0.88916,0.79316 0.13577,-7.03176 2.32645,0.0309 -1.67096,-1.75241 z m 12.30035,4.34789 c 0.003,4e-5 0.006,4e-5 0.009,0 0.0458,-0.003 0.24957,0.0289 0.39342,0.10547 0.14217,0.0757 0.24203,0.19661 0.25955,0.24187 0.0793,0.27059 0.0977,0.39325 0.0872,0.53297 -0.009,0.13803 -0.0643,0.34856 -0.1623,0.70918 v 0.002 c -0.29768,0.97269 -0.47281,1.57663 -0.85883,2.32076 -6.8e-4,0.002 -0.001,0.003 -0.002,0.005 -0.65423,1.2866 -1.45268,2.42858 -2.23551,3.63743 -0.002,0.002 -0.003,0.005 -0.005,0.007 l -0.005,0.007 c -2.4e-4,3.7e-4 -0.002,-3.3e-4 -0.002,0 v 0.002 c -0.001,0.001 -0.005,0.007 -0.005,0.007 l -3.66269,4.78174 c -0.13567,0.13564 -0.13922,0.18277 -0.33164,0.43374 -0.0881,0.10211 -0.13235,0.25304 -0.11048,0.38141 -0.11554,0.3159 -0.022,0.80691 0.14204,1.0236 l 0.13515,0.15661 -0.001,0.0816 0.0726,0.001 1.58127,1.8345 1.57496,1.93808 1.74231,2.55379 1.16449,1.7303 c 0.27548,0.46472 0.98346,1.76016 1.215,2.5279 0.10305,0.48579 0.18306,0.47208 0.17935,1.29585 -1.8e-4,0.009 -4.3e-4,0.0187 0,0.0284 -4e-5,0.003 -4e-5,0.006 0,0.009 0.003,0.0459 -0.0336,0.24896 -0.11242,0.39154 -0.078,0.14086 -0.20012,0.23834 -0.24566,0.25513 -0.27189,0.0746 -0.39534,0.0918 -0.53488,0.0788 -0.13782,-0.0126 -0.34774,-0.0702 -0.70665,-0.17429 h -0.002 c -0.96758,-0.31391 -1.56804,-0.49894 -2.30561,-0.89735 -0.002,-6.8e-4 -0.003,-0.001 -0.005,-0.002 -1.27551,-0.67565 -2.40396,-1.49321 -3.59954,-2.29613 -0.002,-0.002 -0.005,-0.003 -0.007,-0.005 l -0.007,-0.005 c -3.6e-4,-2.3e-4 3.6e-4,-0.002 0,-0.002 h -0.002 c -0.001,-0.001 -0.007,-0.005 -0.007,-0.005 l -5.09556,-4.0397 c -0.64783,-0.45566 -1.4497,-0.40159 -2.07896,-0.0827 v 0 l -1.63079,1.64288 -1.94754,1.5636 -2.54027,1.86952 -1.73727,1.15438 c -0.46632,0.27276 -1.76574,0.97282 -2.53484,1.19985 -0.48641,0.0999 -0.47338,0.18032 -1.29709,0.17176 -0.008,-4.2e-4 -0.0188,-5.4e-4 -0.0284,0.001 -0.003,-2.6e-4 -0.006,-4.7e-4 -0.009,-6.4e-4 -0.0458,0.002 -0.24881,-0.0346 -0.3909,-0.11426 -0.14038,-0.0786 -0.23731,-0.20196 -0.25385,-0.24756 -0.0732,-0.27232 -0.0888,-0.39541 -0.0752,-0.53488 0.0134,-0.13773 0.072,-0.34709 0.17809,-0.70537 l 6.4e-4,-0.002 c 0.31956,-0.96572 0.50791,-1.56533 0.91062,-2.30056 6.7e-4,-0.001 0.001,-0.002 0.002,-0.003 0.68312,-1.27151 1.50769,-2.39541 2.31761,-3.5863 0.002,-0.002 0.003,-0.005 0.005,-0.007 l 0.005,-0.007 c 2.4e-4,-3.4e-4 0.002,2e-4 0.002,0 l 6.3e-4,-0.002 c 9.5e-4,-8.3e-4 0.005,-0.007 0.005,-0.007 l 4.11107,-5.12462 c 0.37943,-0.42779 0.41459,-1.02992 0.10422,-1.46321 -0.16191,-0.1999 -0.46478,-0.55897 -0.50835,-0.61129 l -1.2428,-1.4935 -1.54086,-1.96523 -1.69746,-2.5841 -1.13482,-1.75052 c -0.26731,-0.46946 -0.95207,-1.77706 -1.17016,-2.54873 -0.0945,-0.48752 -0.17473,-0.47543 -0.15662,-1.299 3.5e-4,-0.009 8.8e-4,-0.0187 6.3e-4,-0.0285 4e-5,-0.003 4e-5,-0.006 0,-0.009 -0.002,-0.0459 0.0379,-0.24846 0.1194,-0.38963 0.0805,-0.13948 0.20425,-0.23535 0.25008,-0.25132 0.27315,-0.0699 0.39686,-0.0841 0.53614,-0.0688 0.13758,0.0151 0.34645,0.0761 0.70349,0.18628 h 0.002 c 0.96197,0.33077 1.55932,0.52656 2.28983,0.93779 0.002,6.8e-4 0.003,0.001 0.005,0.002 1.26349,0.69783 2.37714,1.53494 3.55851,2.35865 0.002,0.002 0.005,0.003 0.007,0.005 l 0.007,0.005 c 3.5e-4,2.5e-4 -3.4e-4,0.002 0,0.002 h 0.002 c 0.001,10e-4 0.007,0.005 0.007,0.005 l 5.07663,4.17043 c 0.26008,0.29063 0.87297,0.40652 1.20617,0.12497 l 0.47362,-0.42182 0.0341,6.2e-4 6.1e-4,-0.0315 1.53582,-1.36908 1.91155,-1.6078 2.52411,-1.78462 1.71073,-1.19354 c 0.46005,-0.28321 1.7433,-1.01233 2.50705,-1.25667 0.48401,-0.11109 0.46899,-0.19075 1.29268,-0.20084 0.009,1e-4 0.0194,2.5e-4 0.0292,-0.002 z"
             style="opacity:1;fill:#f2f7f9;fill-opacity:1;stroke:#a1a1a1;stroke-width:0.2;stroke-linecap:round;stroke-linejoin:round;stroke-miterlimit:4;stroke-dasharray:none;stroke-opacity:1;paint-order:normal" />
          <circle
             r="6.1201358"
             cy="126.09962"
             cx="148.96872"
             id="path865"
             style="opacity:1;fill:#b4b4b4;fill-opacity:1;stroke:#a1a1a1;stroke-width:0.36660805;stroke-linecap:round;stroke-linejoin:round;stroke-miterlimit:4;stroke-dasharray:none;stroke-opacity:1;paint-order:normal" />
        </g>
      </g>
    </g>
  </g>
</svg>
