<?xml version="1.0" encoding="UTF-8" standalone="no"?>
<svg
   xmlns:dc="http://purl.org/dc/elements/1.1/"
   xmlns:cc="http://creativecommons.org/ns#"
   xmlns:rdf="http://www.w3.org/1999/02/22-rdf-syntax-ns#"
   xmlns:svg="http://www.w3.org/2000/svg"
   xmlns="http://www.w3.org/2000/svg"
   width="134.66418mm"
   height="34.828758mm"
   viewBox="0 0 477.15656 123.40899"
   id="svg4936"
   version="1.1">
  <defs
     id="defs4938" />
  <metadata
     id="metadata4941">
    <rdf:RDF>
      <cc:Work
         rdf:about="">
        <dc:format>image/svg+xml</dc:format>
        <dc:type
           rdf:resource="http://purl.org/dc/dcmitype/StillImage" />
        <dc:title></dc:title>
      </cc:Work>
    </rdf:RDF>
  </metadata>
  <rect
     ry="7.5443735"
     y="2.748276"
     x="2.748276"
     height="117.91244"
     width="471.66"
     id="rect4136-8-8"
     style="opacity:1;fill:#396c85;fill-opacity:1;stroke:#314b58;stroke-width:5.49655199;stroke-linecap:round;stroke-linejoin:round;stroke-miterlimit:2;stroke-dasharray:none;stroke-opacity:1" />
  <g
     id="g4179"
     transform="translate(6.6703766e-6,1.0350723e-5)">
    <rect
       style="opacity:1;fill:#ffffff;fill-opacity:1;stroke:#314b58;stroke-width:1;stroke-linecap:round;stroke-linejoin:round;stroke-miterlimit:2;stroke-dasharray:none;stroke-opacity:1"
       id="rect4138-7-9"
       width="33.335033"
       height="15.152288"
       x="124.47543"
       y="32.608231"
       ry="1.6071428" />
    <rect
       style="opacity:1;fill:#ffffff;fill-opacity:1;stroke:#314b58;stroke-width:1;stroke-linecap:round;stroke-linejoin:round;stroke-miterlimit:2;stroke-dasharray:none;stroke-opacity:1"
       id="rect4138-8-8-7"
       width="33.335033"
       height="15.152288"
       x="124.47543"
       y="75.648483"
       ry="1.6071428" />
    <rect
       style="opacity:1;fill:#ffffff;fill-opacity:1;stroke:#314b58;stroke-width:1;stroke-linecap:round;stroke-linejoin:round;stroke-miterlimit:2;stroke-dasharray:none;stroke-opacity:1"
       id="rect4138-2-0-0"
       width="33.335033"
       height="15.152288"
       x="170.17136"
       y="32.608231"
       ry="1.6071428" />
    <rect
       style="opacity:1;fill:#ffffff;fill-opacity:1;stroke:#314b58;stroke-width:1;stroke-linecap:round;stroke-linejoin:round;stroke-miterlimit:2;stroke-dasharray:none;stroke-opacity:1"
       id="rect4138-8-6-8-3"
       width="33.335033"
       height="15.152288"
       x="170.17136"
       y="75.648483"
       ry="1.6071428" />
    <rect
       style="opacity:1;fill:#ffffff;fill-opacity:1;stroke:#314b58;stroke-width:1;stroke-linecap:round;stroke-linejoin:round;stroke-miterlimit:2;stroke-dasharray:none;stroke-opacity:1"
       id="rect4138-2-4-1-8"
       width="33.335033"
       height="15.152288"
       x="215.86722"
       y="32.608231"
       ry="1.6071428" />
    <rect
       style="opacity:1;fill:#ffffff;fill-opacity:1;stroke:#314b58;stroke-width:1;stroke-linecap:round;stroke-linejoin:round;stroke-miterlimit:2;stroke-dasharray:none;stroke-opacity:1"
       id="rect4138-8-6-5-8-3"
       width="33.335033"
       height="15.152288"
       x="215.86722"
       y="75.648483"
       ry="1.6071428" />
    <rect
       style="opacity:1;fill:#ffffff;fill-opacity:1;stroke:#314b58;stroke-width:1;stroke-linecap:round;stroke-linejoin:round;stroke-miterlimit:2;stroke-dasharray:none;stroke-opacity:1"
       id="rect4138-2-4-4-9-1"
       width="33.335033"
       height="15.152288"
       x="261.56308"
       y="32.608231"
       ry="1.6071428" />
    <rect
       style="opacity:1;fill:#ffffff;fill-opacity:1;stroke:#314b58;stroke-width:1;stroke-linecap:round;stroke-linejoin:round;stroke-miterlimit:2;stroke-dasharray:none;stroke-opacity:1"
       id="rect4138-8-6-5-6-2-5"
       width="33.335033"
       height="15.152288"
       x="261.56308"
       y="75.648483"
       ry="1.6071428" />
    <rect
       style="opacity:1;fill:#ffffff;fill-opacity:1;stroke:#314b58;stroke-width:1;stroke-linecap:round;stroke-linejoin:round;stroke-miterlimit:2;stroke-dasharray:none;stroke-opacity:1"
       id="rect4138-2-4-4-5-5-9"
       width="33.335033"
       height="15.152288"
       x="307.259"
       y="32.608231"
       ry="1.6071428" />
    <rect
       style="opacity:1;fill:#ffffff;fill-opacity:1;stroke:#314b58;stroke-width:1;stroke-linecap:round;stroke-linejoin:round;stroke-miterlimit:2;stroke-dasharray:none;stroke-opacity:1"
       id="rect4138-8-6-5-6-6-7-0"
       width="33.335033"
       height="15.152288"
       x="307.259"
       y="75.648483"
       ry="1.6071428" />
    <rect
       style="opacity:1;fill:#ffffff;fill-opacity:1;stroke:#314b58;stroke-width:1;stroke-linecap:round;stroke-linejoin:round;stroke-miterlimit:2;stroke-dasharray:none;stroke-opacity:1"
       id="rect4138-2-3-4-4"
       width="33.335033"
       height="15.152288"
       x="33.083664"
       y="32.608231"
       ry="1.6071428" />
    <rect
       style="opacity:1;fill:#ffffff;fill-opacity:1;stroke:#314b58;stroke-width:1;stroke-linecap:round;stroke-linejoin:round;stroke-miterlimit:2;stroke-dasharray:none;stroke-opacity:1"
       id="rect4138-8-6-9-3-7"
       width="33.335033"
       height="15.152288"
       x="33.083664"
       y="75.648483"
       ry="1.6071428" />
    <rect
       style="opacity:1;fill:#ffffff;fill-opacity:1;stroke:#314b58;stroke-width:1;stroke-linecap:round;stroke-linejoin:round;stroke-miterlimit:2;stroke-dasharray:none;stroke-opacity:1"
       id="rect4138-2-4-2-2-2"
       width="33.335033"
       height="15.152288"
       x="78.779556"
       y="32.608231"
       ry="1.6071428" />
    <rect
       style="opacity:1;fill:#ffffff;fill-opacity:1;stroke:#314b58;stroke-width:1;stroke-linecap:round;stroke-linejoin:round;stroke-miterlimit:2;stroke-dasharray:none;stroke-opacity:1"
       id="rect4138-8-6-5-63-5-5"
       width="33.335033"
       height="15.152288"
       x="78.779556"
       y="75.648483"
       ry="1.6071428" />
  </g>
  <path
     id="path5466-3-6-7-2-7-0-9-6"
     d="m 411.9874,18.15798 -13.84502,14.40947 9.81928,0.27917 0,9.44709 a 19.140547,19.140547 0 0 0 -4.90032,2.25789 l -12.92697,-12.92076 7.56762,-7.13961 -21.08384,-0.44663 0.39698,19.97974 7.13962,-6.74264 13.14405,13.14407 a 19.140547,19.140547 0 0 0 -2.37575,5.59507 l -12.87731,0 0.30394,-10.39613 -15.22205,14.58935 14.40328,13.85118 0.28518,-9.81926 12.89596,0 a 19.140547,19.140547 0 0 0 2.19582,5.86797 l -12.61058,12.61063 -7.13962,-7.56141 -0.4466,21.07764 19.9797,-0.39699 -6.74259,-7.13961 12.48654,-12.49273 a 19.140547,19.140547 0 0 0 6.1037,2.85334 l 0,11.70498 -10.39617,-0.29758 14.58935,15.22206 13.84503,-14.40947 -9.81307,-0.27917 0,-11.5499 a 19.140547,19.140547 0 0 0 7.10857,-2.77893 l 11.97791,11.9779 -7.56142,7.13961 21.07764,0.44663 -0.39079,-19.97973 -7.14581,6.74262 -12.18867,-12.18277 a 19.140547,19.140547 0 0 0 2.71689,-7.15199 l 11.5313,0 -0.29757,10.39613 15.22206,-14.59556 -14.40947,-13.84497 -0.27917,9.81925 -12.20741,0 a 19.140547,19.140547 0 0 0 -2.72933,-5.75012 l 12.13301,-12.13299 7.13959,7.56761 0.44662,-21.08386 -19.97973,0.39699 6.74262,7.14581 -12.51757,12.51138 a 19.140547,19.140547 0 0 0 -6.97212,-2.42536 l 0,-8.59109 10.39616,0.29758 -14.58936,-15.22207 z"
     style="display:inline;fill:#ffffff;fill-opacity:1;fill-rule:evenodd;stroke:#314b58;stroke-width:1.58816886;stroke-linecap:round;stroke-linejoin:round;stroke-miterlimit:4;stroke-dasharray:none;stroke-opacity:1" />
</svg>
