<?xml version="1.0" encoding="UTF-8" standalone="no"?>
<svg
   xmlns:dc="http://purl.org/dc/elements/1.1/"
   xmlns:cc="http://creativecommons.org/ns#"
   xmlns:rdf="http://www.w3.org/1999/02/22-rdf-syntax-ns#"
   xmlns:svg="http://www.w3.org/2000/svg"
   xmlns="http://www.w3.org/2000/svg"
   version="1.1"
   id="svg4367"
   viewBox="0 0 204.31426 120.75318"
   height="34.079231mm"
   width="57.662025mm">
  <defs
     id="defs4369" />
  <metadata
     id="metadata4372">
    <rdf:RDF>
      <cc:Work
         rdf:about="">
        <dc:format>image/svg+xml</dc:format>
        <dc:type
           rdf:resource="http://purl.org/dc/dcmitype/StillImage" />
        <dc:title></dc:title>
      </cc:Work>
    </rdf:RDF>
  </metadata>
  <g
     transform="translate(-214.98573,-183.41419)"
     id="layer1">
    <g
       transform="matrix(0.86352245,0,0,0.86352245,-190.39364,-408.4426)"
       id="g8402">
      <path
         style="display:inline;opacity:1;fill:#ffffff;fill-opacity:1;stroke:#b0b0b1;stroke-width:6.44321299;stroke-linecap:round;stroke-linejoin:bevel;stroke-miterlimit:4;stroke-dasharray:none;stroke-opacity:1"
         d="m 573.51527,688.61987 a 74.01992,66.697717 0 0 0 -73.05874,56.51654 32.498662,30.057924 0 0 0 -27.78637,29.70547 32.498662,30.057924 0 0 0 32.49923,30.0578 32.498662,30.057924 0 0 0 14.97544,-3.3914 74.01992,66.697717 0 0 0 53.37044,20.5063 74.01992,66.697717 0 0 0 50.11109,-17.7 42.624461,45.471982 0 0 0 17.0078,3.8005 42.624461,45.471982 0 0 0 24.1998,-8.0981 30.470047,25.588576 0 0 0 7.52549,0.8243 30.470047,25.588576 0 0 0 30.47312,-25.59039 30.470047,25.588576 0 0 0 -21.03482,-24.31307 42.624461,45.471982 0 0 0 -41.16359,-33.77023 42.624461,45.471982 0 0 0 -6.10972,0.51598 74.01992,66.697717 0 0 0 -61.00917,-29.0637 z"
         id="path6269" />
      <path
         style="opacity:1;fill:#ffffff;fill-opacity:1;stroke:none;stroke-width:3.18078947;stroke-linecap:round;stroke-linejoin:round;stroke-miterlimit:4;stroke-dasharray:none;stroke-dashoffset:0;stroke-opacity:1"
         d="m 561.96976,817.14207 c -11.4574,-1.4376 -25.37914,-7.30672 -34.34845,-14.48059 -6.05961,-4.84663 -6.32523,-4.90246 -13.9836,-2.93968 -18.98899,4.86673 -36.56354,-6.85969 -36.56354,-24.3966 0,-11.96224 4.89303,-18.62229 18.4202,-25.07229 6.97273,-3.32473 8.12025,-4.62355 10.61835,-12.0184 9.38325,-27.77617 35.18642,-44.98739 67.4454,-44.98739 21.23462,0 35.73245,5.50591 50.82947,19.30374 8.33727,7.61979 9.83738,8.36467 17.80969,8.8434 15.02973,0.90251 27.37844,9.89079 33.91226,24.68375 2.38726,5.40493 4.86257,8.23915 8.84711,10.12994 13.54778,6.42885 17.76979,20.72045 9.14813,30.96669 -5.56656,6.61549 -12.57843,9.44814 -23.38763,9.44814 -4.78742,0 -9.14091,0.70628 -9.6744,1.5695 -0.5335,0.86323 -5.0343,2.75102 -10.00176,4.1951 -7.76785,2.25818 -10.42356,2.34896 -18.97738,0.64873 -9.91613,-1.97101 -9.96806,-1.96202 -17.50477,3.03009 -13.59407,9.00434 -34.31615,13.36865 -52.58908,11.07587 z"
         id="path8400" />
    </g>
  </g>
</svg>
