<?xml version="1.0" encoding="UTF-8" standalone="no"?>
<svg
   xmlns:dc="http://purl.org/dc/elements/1.1/"
   xmlns:cc="http://creativecommons.org/ns#"
   xmlns:rdf="http://www.w3.org/1999/02/22-rdf-syntax-ns#"
   xmlns:svg="http://www.w3.org/2000/svg"
   xmlns="http://www.w3.org/2000/svg"
   version="1.1"
   id="svg9976"
   viewBox="0 0 174.679 175.57633"
   height="49.551544mm"
   width="49.298298mm">
  <defs
     id="defs9978" />
  <metadata
     id="metadata9981">
    <rdf:RDF>
      <cc:Work
         rdf:about="">
        <dc:format>image/svg+xml</dc:format>
        <dc:type
           rdf:resource="http://purl.org/dc/dcmitype/StillImage" />
        <dc:title></dc:title>
      </cc:Work>
    </rdf:RDF>
  </metadata>
  <g
     id="g951">
    <rect
       style="fill:#00ad69;fill-opacity:1;stroke:#616161;stroke-width:4.92867565;stroke-linecap:round;stroke-linejoin:round;stroke-miterlimit:4;stroke-dasharray:none;stroke-opacity:1"
       id="rect4349-8-9"
       width="169.75032"
       height="170.64766"
       x="2.4643335"
       y="2.4643373" />
    <g
       id="g887"
       transform="translate(2.2378468e-6,-2.8634556e-5)">
      <path
         style="color:#000000;font-style:normal;font-variant:normal;font-weight:normal;font-stretch:normal;font-size:medium;line-height:normal;font-family:sans-serif;text-indent:0;text-align:start;text-decoration:none;text-decoration-line:none;text-decoration-style:solid;text-decoration-color:#000000;letter-spacing:normal;word-spacing:normal;text-transform:none;writing-mode:lr-tb;direction:ltr;baseline-shift:baseline;text-anchor:start;white-space:normal;clip-rule:nonzero;display:inline;overflow:visible;visibility:visible;opacity:1;isolation:auto;mix-blend-mode:normal;color-interpolation:sRGB;color-interpolation-filters:linearRGB;solid-color:#000000;solid-opacity:1;fill:#ffffff;fill-opacity:1;fill-rule:evenodd;stroke:#616161;stroke-width:1.19049227;stroke-linecap:round;stroke-linejoin:round;stroke-miterlimit:4;stroke-dasharray:none;stroke-dashoffset:0;stroke-opacity:1;color-rendering:auto;image-rendering:auto;shape-rendering:auto;text-rendering:auto;enable-background:accumulate"
         d="m 27.465947,22.263606 a 4.7625255,4.7625255 0 0 0 -4.42257,6.033945 L 33.44176,65.73358 a 4.7625255,4.7625255 0 0 0 0.07202,0.216257 4.7625255,4.7625255 0 0 0 0.05809,0.172065 4.7625255,4.7625255 0 0 0 0.09536,0.227864 4.7625255,4.7625255 0 0 0 0.1,0.2209 4.7625255,4.7625255 0 0 0 0.102267,0.190672 4.7625255,4.7625255 0 0 0 0.130216,0.227863 4.7625255,4.7625255 0 0 0 0.123229,0.179042 4.7625255,4.7625255 0 0 0 0.144173,0.202292 4.7625255,4.7625255 0 0 0 0.158112,0.188351 4.7625255,4.7625255 0 0 0 0.151134,0.172065 4.7625255,4.7625255 0 0 0 0.186017,0.183695 4.7625255,4.7625255 0 0 0 0.158112,0.14416 4.7625255,4.7625255 0 0 0 0.186017,0.151136 4.7625255,4.7625255 0 0 0 0.192995,0.146492 4.7625255,4.7625255 0 0 0 0.211602,0.134861 4.7625255,4.7625255 0 0 0 0.181367,0.111551 4.7625255,4.7625255 0 0 0 0.253445,0.130218 4.7625255,4.7625255 0 0 0 0.17206,0.08143 4.7625255,4.7625255 0 0 0 0.253455,0.100004 4.7625255,4.7625255 0 0 0 0.195324,0.07214 4.7625255,4.7625255 0 0 0 0.290649,0.08143 4.7625255,4.7625255 0 0 0 0.151142,0.03952 4.7625255,4.7625255 0 0 0 0.267393,0.04655 4.7625255,4.7625255 0 0 0 0.237177,0.03488 4.7625255,4.7625255 0 0 0 0.181368,0.01393 4.7625255,4.7625255 0 0 0 0.337159,0.01631 4.7625255,4.7625255 0 0 0 3.066963,-1.118427 4.7625255,4.7625255 0 0 0 0.348787,-0.325533 4.7625255,4.7625255 0 0 0 0.05809,-0.06048 l 4.492328,-4.792276 20.992082,20.266603 -22.642988,7.419785 a 4.7625255,4.7625255 0 0 0 -1.667182,8.096413 l 5.001547,4.413267 -24.944947,24.49153 a 4.7625255,4.7625255 0 0 0 3.336685,8.16152 4.7625255,4.7625255 0 0 0 3.820338,-1.83924 l 28.1119,-27.60268 A 4.7625255,4.7625255 0 0 0 57.81923,99.361053 l -2.599587,-2.292665 22.247698,-7.287245 a 4.7625255,4.7625255 0 0 0 1.825294,-7.952241 L 49.136863,52.712503 a 4.7625255,4.7625255 0 0 0 -6.78034,0.169743 l -2.004341,2.139208 -5.892099,-21.208335 20.694446,5.615409 -1.888074,2.022943 a 4.7625255,4.7625255 0 0 0 0.186017,6.687333 l 24.956575,23.917203 a 4.7625255,4.7625255 0 1 0 6.589682,-6.875673 L 63.43696,44.513789 67.508423,40.151669 A 4.7625255,4.7625255 0 0 0 65.273891,32.306383 L 28.879577,22.428849 A 4.7625255,4.7625255 0 0 0 27.46584,22.263761 Z"
         id="path4226-8-2-6-6" />
      <path
         style="color:#000000;font-style:normal;font-variant:normal;font-weight:normal;font-stretch:normal;font-size:medium;line-height:normal;font-family:sans-serif;text-indent:0;text-align:start;text-decoration:none;text-decoration-line:none;text-decoration-style:solid;text-decoration-color:#000000;letter-spacing:normal;word-spacing:normal;text-transform:none;writing-mode:lr-tb;direction:ltr;baseline-shift:baseline;text-anchor:start;white-space:normal;clip-rule:nonzero;display:inline;overflow:visible;visibility:visible;opacity:1;isolation:auto;mix-blend-mode:normal;color-interpolation:sRGB;color-interpolation-filters:linearRGB;solid-color:#000000;solid-opacity:1;fill:#ffffff;fill-opacity:1;fill-rule:evenodd;stroke:#616161;stroke-width:1.19049227;stroke-linecap:round;stroke-linejoin:round;stroke-miterlimit:4;stroke-dasharray:none;stroke-dashoffset:0;stroke-opacity:1;color-rendering:auto;image-rendering:auto;shape-rendering:auto;text-rendering:auto;enable-background:accumulate"
         d="M 132.41008,26.037435 105.3329,53.112292 101.4056,48.62462 c -2.471624,-2.822907 -7.085146,-1.812007 -8.149908,1.785769 l -19.564388,66.152501 -1.097495,-1.09752 c -1.848175,-1.84883 -4.841177,-1.86232 -6.705942,-0.0302 l -30.155775,29.63492 c -4.528746,4.45048 2.146195,11.24399 6.675717,6.79429 l 26.788847,-26.32845 3.422719,3.42272 c 2.554424,2.55284 6.909691,1.44488 7.933653,-2.0183 l 19.38303,-65.531655 1.581152,1.806699 c 1.81388,2.074051 5.004,2.180744 6.9524,0.232518 l 29.27916,-29.281484 c 3.09867,-8.354063 -5.33869,-8.128961 -5.33869,-8.128961 z"
         id="path4228-56-5-7-7" />
      <path
         style="color:#000000;font-style:normal;font-variant:normal;font-weight:normal;font-stretch:normal;font-size:medium;line-height:normal;font-family:sans-serif;text-indent:0;text-align:start;text-decoration:none;text-decoration-line:none;text-decoration-style:solid;text-decoration-color:#000000;letter-spacing:normal;word-spacing:normal;text-transform:none;writing-mode:lr-tb;direction:ltr;baseline-shift:baseline;text-anchor:start;white-space:normal;clip-rule:nonzero;display:inline;overflow:visible;visibility:visible;opacity:1;isolation:auto;mix-blend-mode:normal;color-interpolation:sRGB;color-interpolation-filters:linearRGB;solid-color:#000000;solid-opacity:1;fill:#ffffff;fill-opacity:1;fill-rule:evenodd;stroke:#616161;stroke-width:1.19049227;stroke-linecap:round;stroke-linejoin:round;stroke-miterlimit:4;stroke-dasharray:none;stroke-dashoffset:0;stroke-opacity:1;color-rendering:auto;image-rendering:auto;shape-rendering:auto;text-rendering:auto;enable-background:accumulate"
         d="m 148.50756,42.792967 a 4.7625255,4.7625255 0 0 0 -3.28786,1.40909 L 117.145,71.758228 a 4.7625255,4.7625255 0 0 0 0.479,7.208183 l 1.20214,0.902182 -18.12741,6.396682 a 4.7625255,4.7625255 0 0 0 -1.750895,7.889466 l 27.037655,26.516799 a 4.7625255,4.7625255 0 0 0 6.46877,0.1837 l 2.62052,-2.29268 6.10835,21.98728 -21.22925,-5.97814 2.44147,-2.60424 a 4.7625255,4.7625255 0 0 0 -0.17904,-6.69431 L 97.748019,101.82332 a 4.7625255,4.7625255 0 0 0 -3.783125,-1.79275 4.7625255,4.7625255 0 0 0 -3.294832,8.20105 l 21.554778,20.65725 -4.57603,4.88296 a 4.7625255,4.7625255 0 0 0 2.18106,7.84064 l 36.91518,10.39839 a 4.7625255,4.7625255 0 0 0 5.88047,-5.85723 l -10.39837,-37.43604 a 4.7625255,4.7625255 0 0 0 -7.72438,-2.30894 l -4.99922,4.37374 -18.43434,-18.078586 19.31559,-6.815219 a 4.7625255,4.7625255 0 0 0 1.2719,-8.301026 l -3.88544,-2.913505 24.12182,-23.673064 a 4.7625255,4.7625255 0 0 0 -3.38552,-8.208023 z"
         id="path4230-2-7-5-5" />
    </g>
  </g>
</svg>
