<?xml version="1.0" encoding="UTF-8" standalone="no"?>
<svg
   xmlns:dc="http://purl.org/dc/elements/1.1/"
   xmlns:cc="http://creativecommons.org/ns#"
   xmlns:rdf="http://www.w3.org/1999/02/22-rdf-syntax-ns#"
   xmlns:svg="http://www.w3.org/2000/svg"
   xmlns="http://www.w3.org/2000/svg"
   width="49.483669mm"
   height="49.483669mm"
   viewBox="0 0 175.33583 175.33583"
   id="svg9976"
   version="1.1">
  <defs
     id="defs9978" />
  <metadata
     id="metadata9981">
    <rdf:RDF>
      <cc:Work
         rdf:about="">
        <dc:format>image/svg+xml</dc:format>
        <dc:type
           rdf:resource="http://purl.org/dc/dcmitype/StillImage" />
        <dc:title></dc:title>
      </cc:Work>
    </rdf:RDF>
  </metadata>
  <circle
     r="86.282326"
     cy="87.667915"
     cx="87.667915"
     id="path3338-7"
     style="fill:#00ad69;fill-opacity:1;fill-rule:evenodd;stroke:#149965;stroke-width:2.77117658;stroke-linecap:butt;stroke-linejoin:round;stroke-miterlimit:4;stroke-dasharray:none;stroke-opacity:1" />
  <g
     transform="matrix(0.96622991,0,0,0.96622991,-177.4313,-263.75284)"
     id="g4662-2-3">
    <path
       style="color:#000000;font-style:normal;font-variant:normal;font-weight:normal;font-stretch:normal;font-size:medium;line-height:normal;font-family:sans-serif;text-indent:0;text-align:start;text-decoration:none;text-decoration-line:none;text-decoration-style:solid;text-decoration-color:#000000;letter-spacing:normal;word-spacing:normal;text-transform:none;writing-mode:lr-tb;direction:ltr;baseline-shift:baseline;text-anchor:start;white-space:normal;clip-rule:nonzero;display:inline;overflow:visible;visibility:visible;opacity:1;isolation:auto;mix-blend-mode:normal;color-interpolation:sRGB;color-interpolation-filters:linearRGB;solid-color:#000000;solid-opacity:1;fill:#ffffff;fill-opacity:1;fill-rule:evenodd;stroke:#149965;stroke-width:1;stroke-linecap:round;stroke-linejoin:round;stroke-miterlimit:4;stroke-dasharray:none;stroke-dashoffset:0;stroke-opacity:1;color-rendering:auto;image-rendering:auto;shape-rendering:auto;text-rendering:auto;enable-background:accumulate"
       d="m 224.07227,308.66406 a 4.0004,4.0004 0 0 0 -3.71485,5.06836 l 8.73438,31.44531 a 4.0004,4.0004 0 0 0 0.0605,0.18165 4.0004,4.0004 0 0 0 0.0488,0.14453 4.0004,4.0004 0 0 0 0.0801,0.1914 4.0004,4.0004 0 0 0 0.084,0.18555 4.0004,4.0004 0 0 0 0.0859,0.16016 4.0004,4.0004 0 0 0 0.10938,0.1914 4.0004,4.0004 0 0 0 0.10351,0.15039 4.0004,4.0004 0 0 0 0.1211,0.16992 4.0004,4.0004 0 0 0 0.13281,0.15821 4.0004,4.0004 0 0 0 0.12695,0.14453 4.0004,4.0004 0 0 0 0.15625,0.1543 4.0004,4.0004 0 0 0 0.13281,0.12109 4.0004,4.0004 0 0 0 0.15625,0.12695 4.0004,4.0004 0 0 0 0.16211,0.12305 4.0004,4.0004 0 0 0 0.17774,0.11328 4.0004,4.0004 0 0 0 0.15234,0.0937 4.0004,4.0004 0 0 0 0.21289,0.10938 4.0004,4.0004 0 0 0 0.14453,0.0684 4.0004,4.0004 0 0 0 0.21289,0.084 4.0004,4.0004 0 0 0 0.16407,0.0606 4.0004,4.0004 0 0 0 0.24414,0.0684 4.0004,4.0004 0 0 0 0.12695,0.0332 4.0004,4.0004 0 0 0 0.22461,0.0391 4.0004,4.0004 0 0 0 0.19922,0.0293 4.0004,4.0004 0 0 0 0.15234,0.0117 4.0004,4.0004 0 0 0 0.28321,0.0137 4.0004,4.0004 0 0 0 2.57617,-0.93945 4.0004,4.0004 0 0 0 0.29297,-0.27344 4.0004,4.0004 0 0 0 0.0488,-0.0508 l 3.77344,-4.02539 17.63281,17.02343 -19.01953,6.23243 a 4.0004,4.0004 0 0 0 -1.40039,6.80078 l 4.20117,3.70703 -20.95312,20.57226 a 4.0004,4.0004 0 0 0 2.80273,6.85547 4.0004,4.0004 0 0 0 3.20899,-1.54492 l 23.61328,-23.18555 a 4.0004,4.0004 0 0 0 -0.15625,-5.85351 l -2.18359,-1.92578 18.6875,-6.1211 a 4.0004,4.0004 0 0 0 1.5332,-6.67968 L 242.2753,334.24036 a 4.0004,4.0004 0 0 0 -5.69531,0.14258 l -1.6836,1.79688 -4.94921,-17.81446 17.38281,4.7168 -1.58594,1.69922 a 4.0004,4.0004 0 0 0 0.15625,5.61719 l 20.96289,20.08984 a 4.0004,4.0004 0 1 0 5.53516,-5.77539 l -18.11133,-17.35937 3.41992,-3.66407 a 4.0004,4.0004 0 0 0 -1.87695,-6.58984 l -30.57031,-8.29688 a 4.0004,4.0004 0 0 0 -1.1875,-0.13867 z"
       id="path4226-8-2-6" />
    <path
       style="color:#000000;font-style:normal;font-variant:normal;font-weight:normal;font-stretch:normal;font-size:medium;line-height:normal;font-family:sans-serif;text-indent:0;text-align:start;text-decoration:none;text-decoration-line:none;text-decoration-style:solid;text-decoration-color:#000000;letter-spacing:normal;word-spacing:normal;text-transform:none;writing-mode:lr-tb;direction:ltr;baseline-shift:baseline;text-anchor:start;white-space:normal;clip-rule:nonzero;display:inline;overflow:visible;visibility:visible;opacity:1;isolation:auto;mix-blend-mode:normal;color-interpolation:sRGB;color-interpolation-filters:linearRGB;solid-color:#000000;solid-opacity:1;fill:#ffffff;fill-opacity:1;fill-rule:evenodd;stroke:#149965;stroke-width:1;stroke-linecap:round;stroke-linejoin:round;stroke-miterlimit:4;stroke-dasharray:none;stroke-dashoffset:0;stroke-opacity:1;color-rendering:auto;image-rendering:auto;shape-rendering:auto;text-rendering:auto;enable-background:accumulate"
       d="m 312.22266,311.83398 -22.74414,22.74219 -3.29883,-3.76953 c -2.0761,-2.37117 -5.95134,-1.52204 -6.84571,1.5 l -16.43359,55.56641 -0.92187,-0.92188 c -1.55242,-1.55298 -4.06646,-1.56431 -5.63282,-0.0254 l -25.33008,24.89258 c -3.80403,3.73829 1.80275,9.44466 5.60743,5.70703 l 22.50195,-22.11523 2.875,2.875 c 2.14565,2.14432 5.80396,1.21366 6.66406,-1.69532 l 16.28125,-55.04492 1.32813,1.51758 c 1.52361,1.74215 4.20323,1.83177 5.83984,0.19531 l 24.59375,-24.5957 c 2.6028,-7.0172 -4.48437,-6.82812 -4.48437,-6.82812 z"
       id="path4228-56-5-7" />
    <path
       style="color:#000000;font-style:normal;font-variant:normal;font-weight:normal;font-stretch:normal;font-size:medium;line-height:normal;font-family:sans-serif;text-indent:0;text-align:start;text-decoration:none;text-decoration-line:none;text-decoration-style:solid;text-decoration-color:#000000;letter-spacing:normal;word-spacing:normal;text-transform:none;writing-mode:lr-tb;direction:ltr;baseline-shift:baseline;text-anchor:start;white-space:normal;clip-rule:nonzero;display:inline;overflow:visible;visibility:visible;opacity:1;isolation:auto;mix-blend-mode:normal;color-interpolation:sRGB;color-interpolation-filters:linearRGB;solid-color:#000000;solid-opacity:1;fill:#ffffff;fill-opacity:1;fill-rule:evenodd;stroke:#149965;stroke-width:1;stroke-linecap:round;stroke-linejoin:round;stroke-miterlimit:4;stroke-dasharray:none;stroke-dashoffset:0;stroke-opacity:1;color-rendering:auto;image-rendering:auto;shape-rendering:auto;text-rendering:auto;enable-background:accumulate"
       d="m 325.74414,325.9082 a 4.0004,4.0004 0 0 0 -2.76172,1.1836 l -23.58203,23.14648 a 4.0004,4.0004 0 0 0 0.40234,6.05469 l 1.00977,0.75781 -15.22656,5.37305 a 4.0004,4.0004 0 0 0 -1.47071,6.62695 l 22.71094,22.27344 a 4.0004,4.0004 0 0 0 5.4336,0.1543 l 2.20117,-1.92579 5.13086,18.46875 L 301.75977,403 l 2.05078,-2.1875 a 4.0004,4.0004 0 0 0 -0.15039,-5.62305 l -20.55274,-19.69726 a 4.0004,4.0004 0 0 0 -3.17773,-1.50586 4.0004,4.0004 0 0 0 -2.76758,6.88867 l 18.10547,17.35156 -3.84375,4.10156 a 4.0004,4.0004 0 0 0 1.83203,6.58594 l 31.00781,8.73438 a 4.0004,4.0004 0 0 0 4.93945,-4.91992 l -8.73437,-31.44532 a 4.0004,4.0004 0 0 0 -6.48828,-1.93945 l -4.19922,3.67383 -15.48437,-15.18555 16.2246,-5.72461 a 4.0004,4.0004 0 0 0 1.06836,-6.97265 l -3.26367,-2.44727 20.26172,-19.88477 a 4.0004,4.0004 0 0 0 -2.84375,-6.89453 z"
       id="path4230-2-7-5" />
  </g>
</svg>
