<?xml version="1.0" encoding="UTF-8" standalone="no"?>
<svg
   xmlns:dc="http://purl.org/dc/elements/1.1/"
   xmlns:cc="http://creativecommons.org/ns#"
   xmlns:rdf="http://www.w3.org/1999/02/22-rdf-syntax-ns#"
   xmlns:svg="http://www.w3.org/2000/svg"
   xmlns="http://www.w3.org/2000/svg"
   version="1.1"
   id="svg7778"
   viewBox="0 0 477.15656 123.40899"
   height="34.828758mm"
   width="134.66418mm">
  <defs
     id="defs7780" />
  <metadata
     id="metadata7783">
    <rdf:RDF>
      <cc:Work
         rdf:about="">
        <dc:format>image/svg+xml</dc:format>
        <dc:type
           rdf:resource="http://purl.org/dc/dcmitype/StillImage" />
        <dc:title></dc:title>
      </cc:Work>
    </rdf:RDF>
  </metadata>
  <rect
     style="opacity:1;fill:#e21d38;fill-opacity:1;stroke:#4f4f4f;stroke-width:5.49655199;stroke-linecap:round;stroke-linejoin:round;stroke-miterlimit:2;stroke-dasharray:none;stroke-opacity:1"
     id="rect4136"
     width="471.66"
     height="117.91244"
     x="2.7482717"
     y="2.7482769"
     ry="7.5443735" />
  <path
     style="opacity:1;fill:#f9fbfa;fill-opacity:1;stroke:#4f4f4f;stroke-width:1.63541377;stroke-linecap:round;stroke-linejoin:round;stroke-miterlimit:4;stroke-dasharray:none;stroke-opacity:1"
     d="m 408.1425,17.885605 a 9.1195107,9.1195107 0 0 0 -9.12086,9.117811 9.1195107,9.1195107 0 0 0 6.75133,8.79719 l 0,13.679772 a 15.634021,15.634021 0 0 0 -11.3194,8.320852 L 381.6593,53.914094 a 9.1195107,9.1195107 0 0 0 0.0673,-1.050403 9.1195107,9.1195107 0 0 0 -9.11782,-9.117811 9.1195107,9.1195107 0 0 0 -9.12085,9.117811 9.1195107,9.1195107 0 0 0 9.12085,9.12086 9.1195107,9.1195107 0 0 0 7.28572,-3.652015 l 13.07211,3.972637 a 15.634021,15.634021 0 0 0 -0.23205,2.592434 15.634021,15.634021 0 0 0 4.87035,11.313298 l -8.56817,9.905627 a 9.1195107,9.1195107 0 0 0 -3.00468,-0.519098 9.1195107,9.1195107 0 0 0 -9.12085,9.117812 9.1195107,9.1195107 0 0 0 9.12085,9.120854 9.1195107,9.1195107 0 0 0 9.11783,-9.120854 9.1195107,9.1195107 0 0 0 -2.18022,-5.899407 l 8.55289,-9.884238 a 15.634021,15.634021 0 0 0 6.84601,1.600034 15.634021,15.634021 0 0 0 6.31469,-1.352703 l 8.64756,11.154501 a 9.1195107,9.1195107 0 0 0 -1.60615,5.172676 9.1195107,9.1195107 0 0 0 9.11782,9.117811 9.1195107,9.1195107 0 0 0 9.12085,-9.117811 9.1195107,9.1195107 0 0 0 -9.12085,-9.120876 9.1195107,9.1195107 0 0 0 -3.67034,0.784766 l -8.30558,-10.711764 a 15.634021,15.634021 0 0 0 5.13297,-11.560628 15.634021,15.634021 0 0 0 -0.28395,-2.910008 l 12.28431,-4.345148 a 9.1195107,9.1195107 0 0 0 7.87197,4.540573 9.1195107,9.1195107 0 0 0 9.12087,-9.12086 9.1195107,9.1195107 0 0 0 -9.12087,-9.117812 9.1195107,9.1195107 0 0 0 -9.11783,9.117812 9.1195107,9.1195107 0 0 0 0.003,0.08552 l -12.57747,4.448974 a 15.634021,15.634021 0 0 0 -11.47182,-8.13764 l 0,-13.710306 a 9.1195107,9.1195107 0 0 0 6.55285,-8.745284 9.1195107,9.1195107 0 0 0 -9.11781,-9.117812 z"
     id="path4153-1" />
  <g
     style="stroke:#4f4f4f;stroke-opacity:1"
     id="g4179-9-2"
     transform="translate(-0.89184298,-5.4836273e-6)">
    <rect
       style="opacity:1;fill:#ffffff;fill-opacity:1;stroke:#4f4f4f;stroke-width:1;stroke-linecap:round;stroke-linejoin:round;stroke-miterlimit:2;stroke-dasharray:none;stroke-opacity:1"
       id="rect4138-7-4-4"
       width="33.335033"
       height="15.152288"
       x="124.47543"
       y="32.608231"
       ry="1.6071428" />
    <rect
       style="opacity:1;fill:#ffffff;fill-opacity:1;stroke:#4f4f4f;stroke-width:1;stroke-linecap:round;stroke-linejoin:round;stroke-miterlimit:2;stroke-dasharray:none;stroke-opacity:1"
       id="rect4138-8-8-8-3"
       width="33.335033"
       height="15.152288"
       x="124.47543"
       y="75.648483"
       ry="1.6071428" />
    <rect
       style="opacity:1;fill:#ffffff;fill-opacity:1;stroke:#4f4f4f;stroke-width:1;stroke-linecap:round;stroke-linejoin:round;stroke-miterlimit:2;stroke-dasharray:none;stroke-opacity:1"
       id="rect4138-2-0-1-2"
       width="33.335033"
       height="15.152288"
       x="170.17136"
       y="32.608231"
       ry="1.6071428" />
    <rect
       style="opacity:1;fill:#ffffff;fill-opacity:1;stroke:#4f4f4f;stroke-width:1;stroke-linecap:round;stroke-linejoin:round;stroke-miterlimit:2;stroke-dasharray:none;stroke-opacity:1"
       id="rect4138-8-6-8-2-4"
       width="33.335033"
       height="15.152288"
       x="170.17136"
       y="75.648483"
       ry="1.6071428" />
    <rect
       style="opacity:1;fill:#ffffff;fill-opacity:1;stroke:#4f4f4f;stroke-width:1;stroke-linecap:round;stroke-linejoin:round;stroke-miterlimit:2;stroke-dasharray:none;stroke-opacity:1"
       id="rect4138-2-4-1-8-9"
       width="33.335033"
       height="15.152288"
       x="215.86722"
       y="32.608231"
       ry="1.6071428" />
    <rect
       style="opacity:1;fill:#ffffff;fill-opacity:1;stroke:#4f4f4f;stroke-width:1;stroke-linecap:round;stroke-linejoin:round;stroke-miterlimit:2;stroke-dasharray:none;stroke-opacity:1"
       id="rect4138-8-6-5-8-2-4"
       width="33.335033"
       height="15.152288"
       x="215.86722"
       y="75.648483"
       ry="1.6071428" />
    <rect
       style="opacity:1;fill:#ffffff;fill-opacity:1;stroke:#4f4f4f;stroke-width:1;stroke-linecap:round;stroke-linejoin:round;stroke-miterlimit:2;stroke-dasharray:none;stroke-opacity:1"
       id="rect4138-2-4-4-9-3-5"
       width="33.335033"
       height="15.152288"
       x="261.56308"
       y="32.608231"
       ry="1.6071428" />
    <rect
       style="opacity:1;fill:#ffffff;fill-opacity:1;stroke:#4f4f4f;stroke-width:1;stroke-linecap:round;stroke-linejoin:round;stroke-miterlimit:2;stroke-dasharray:none;stroke-opacity:1"
       id="rect4138-8-6-5-6-2-0-0"
       width="33.335033"
       height="15.152288"
       x="261.56308"
       y="75.648483"
       ry="1.6071428" />
    <rect
       style="opacity:1;fill:#ffffff;fill-opacity:1;stroke:#4f4f4f;stroke-width:1;stroke-linecap:round;stroke-linejoin:round;stroke-miterlimit:2;stroke-dasharray:none;stroke-opacity:1"
       id="rect4138-2-4-4-5-5-7-1"
       width="33.335033"
       height="15.152288"
       x="307.259"
       y="32.608231"
       ry="1.6071428" />
    <rect
       style="opacity:1;fill:#ffffff;fill-opacity:1;stroke:#4f4f4f;stroke-width:1;stroke-linecap:round;stroke-linejoin:round;stroke-miterlimit:2;stroke-dasharray:none;stroke-opacity:1"
       id="rect4138-8-6-5-6-6-7-5-7"
       width="33.335033"
       height="15.152288"
       x="307.259"
       y="75.648483"
       ry="1.6071428" />
    <rect
       style="opacity:1;fill:#ffffff;fill-opacity:1;stroke:#4f4f4f;stroke-width:1;stroke-linecap:round;stroke-linejoin:round;stroke-miterlimit:2;stroke-dasharray:none;stroke-opacity:1"
       id="rect4138-2-3-4-2-9"
       width="33.335033"
       height="15.152288"
       x="33.083664"
       y="32.608231"
       ry="1.6071428" />
    <rect
       style="opacity:1;fill:#ffffff;fill-opacity:1;stroke:#4f4f4f;stroke-width:1;stroke-linecap:round;stroke-linejoin:round;stroke-miterlimit:2;stroke-dasharray:none;stroke-opacity:1"
       id="rect4138-8-6-9-3-8-0"
       width="33.335033"
       height="15.152288"
       x="33.083664"
       y="75.648483"
       ry="1.6071428" />
    <rect
       style="opacity:1;fill:#ffffff;fill-opacity:1;stroke:#4f4f4f;stroke-width:1;stroke-linecap:round;stroke-linejoin:round;stroke-miterlimit:2;stroke-dasharray:none;stroke-opacity:1"
       id="rect4138-2-4-2-2-2-0"
       width="33.335033"
       height="15.152288"
       x="78.779556"
       y="32.608231"
       ry="1.6071428" />
    <rect
       style="opacity:1;fill:#ffffff;fill-opacity:1;stroke:#4f4f4f;stroke-width:1;stroke-linecap:round;stroke-linejoin:round;stroke-miterlimit:2;stroke-dasharray:none;stroke-opacity:1"
       id="rect4138-8-6-5-63-5-0-8"
       width="33.335033"
       height="15.152288"
       x="78.779556"
       y="75.648483"
       ry="1.6071428" />
  </g>
</svg>
