<?xml version="1.0" encoding="UTF-8" standalone="no"?>
<svg
   xmlns:dc="http://purl.org/dc/elements/1.1/"
   xmlns:cc="http://creativecommons.org/ns#"
   xmlns:rdf="http://www.w3.org/1999/02/22-rdf-syntax-ns#"
   xmlns:svg="http://www.w3.org/2000/svg"
   xmlns="http://www.w3.org/2000/svg"
   version="1.1"
   id="svg4787"
   viewBox="0 0 134.45085 132.89714"
   height="37.506527mm"
   width="37.945019mm">
  <defs
     id="defs4789" />
  <metadata
     id="metadata4792">
    <rdf:RDF>
      <cc:Work
         rdf:about="">
        <dc:format>image/svg+xml</dc:format>
        <dc:type
           rdf:resource="http://purl.org/dc/dcmitype/StillImage" />
        <dc:title></dc:title>
      </cc:Work>
    </rdf:RDF>
  </metadata>
  <g
     transform="translate(-209.57079,-310.09781)"
     id="layer1">
    <rect
       ry="23.230007"
       y="311.09781"
       x="210.57079"
       height="130.89714"
       width="132.45085"
       id="rect4148"
       style="opacity:1;fill:#e21d38;fill-opacity:1;stroke:#aa1604;stroke-width:2;stroke-linecap:round;stroke-linejoin:round;stroke-miterlimit:4;stroke-dasharray:none;stroke-opacity:1" />
    <path
       id="path4153-1"
       d="m 277.13853,322.42496 a 11.194822,11.194822 0 0 0 -11.19647,11.19273 11.194822,11.194822 0 0 0 8.28772,10.79915 l 0,16.79285 a 19.191829,19.191829 0 0 0 -13.89534,10.21441 l -15.70583,-4.77173 a 11.194822,11.194822 0 0 0 0.0826,-1.28943 11.194822,11.194822 0 0 0 -11.19274,-11.19273 11.194822,11.194822 0 0 0 -11.19646,11.19273 11.194822,11.194822 0 0 0 11.19646,11.19648 11.194822,11.194822 0 0 0 8.94372,-4.48309 l 16.04691,4.87667 a 19.191829,19.191829 0 0 0 -0.28486,3.1824 19.191829,19.191829 0 0 0 5.97869,13.88784 l -10.51802,12.15983 a 11.194822,11.194822 0 0 0 -3.68845,-0.63723 11.194822,11.194822 0 0 0 -11.19646,11.19275 11.194822,11.194822 0 0 0 11.19646,11.19647 11.194822,11.194822 0 0 0 11.19276,-11.19647 11.194822,11.194822 0 0 0 -2.67637,-7.24193 l 10.49926,-12.13358 a 19.191829,19.191829 0 0 0 8.40394,1.96416 19.191829,19.191829 0 0 0 7.75172,-1.66055 l 10.61547,13.69292 a 11.194822,11.194822 0 0 0 -1.97166,6.34982 11.194822,11.194822 0 0 0 11.19275,11.19273 11.194822,11.194822 0 0 0 11.19646,-11.19273 11.194822,11.194822 0 0 0 -11.19646,-11.1965 11.194822,11.194822 0 0 0 -4.50559,0.96335 L 290.3031,394.32686 a 19.191829,19.191829 0 0 0 6.30107,-14.19146 19.191829,19.191829 0 0 0 -0.34857,-3.57224 l 15.07983,-5.33397 a 11.194822,11.194822 0 0 0 9.66338,5.57386 11.194822,11.194822 0 0 0 11.1965,-11.19647 11.194822,11.194822 0 0 0 -11.1965,-11.19273 11.194822,11.194822 0 0 0 -11.19276,11.19273 11.194822,11.194822 0 0 0 0.004,0.10495 l -15.43969,5.46143 a 19.191829,19.191829 0 0 0 -14.08245,-9.98951 l 0,-16.83034 a 11.194822,11.194822 0 0 0 8.04407,-10.73543 11.194822,11.194822 0 0 0 -11.19273,-11.19273 z"
       style="opacity:1;fill:#f9fbfa;fill-opacity:1;stroke:#4f4f4f;stroke-width:2.00758219;stroke-linecap:round;stroke-linejoin:round;stroke-miterlimit:4;stroke-dasharray:none;stroke-opacity:1" />
  </g>
</svg>
