<?xml version="1.0" encoding="UTF-8" standalone="no"?>
<svg
   xmlns:dc="http://purl.org/dc/elements/1.1/"
   xmlns:cc="http://creativecommons.org/ns#"
   xmlns:rdf="http://www.w3.org/1999/02/22-rdf-syntax-ns#"
   xmlns:svg="http://www.w3.org/2000/svg"
   xmlns="http://www.w3.org/2000/svg"
   width="134.6642mm"
   height="34.828766mm"
   viewBox="0 0 477.15661 123.40901"
   id="svg7778"
   version="1.1">
  <defs
     id="defs7780" />
  <metadata
     id="metadata7783">
    <rdf:RDF>
      <cc:Work
         rdf:about="">
        <dc:format>image/svg+xml</dc:format>
        <dc:type
           rdf:resource="http://purl.org/dc/dcmitype/StillImage" />
        <dc:title></dc:title>
      </cc:Work>
    </rdf:RDF>
  </metadata>
  <rect
     style="opacity:1;fill:#dddddd;fill-opacity:1;stroke:#0c3c86;stroke-width:5.49656296;stroke-linecap:round;stroke-linejoin:round;stroke-miterlimit:2;stroke-dasharray:none;stroke-opacity:1"
     id="rect4136-2-3"
     width="471.66006"
     height="117.91245"
     x="2.7482817"
     y="2.7482803"
     ry="7.5443735" />
  <rect
     id="rect3729-3-6"
     width="325.79764"
     height="79.222939"
     x="24.019842"
     y="22.093037"
     style="fill:#ffffff;stroke:#0c3c86;stroke-width:3.75000048;stroke-miterlimit:4;stroke-dasharray:none;stroke-opacity:1"
     ry="6.2240515" />
  <path
     id="rect827-0-3"
     d="m 360.5673,61.704602 21.30522,21.30521 10e-6,-15.39229 25.35689,-1.07958 -1.07218,25.35688 -15.39969,3e-5 21.3052,21.305198 21.3052,-21.305208 -15.3997,-2e-5 -1.07196,-25.35689 25.35663,1.07954 3e-5,15.39234 21.30311,-21.30543 -21.30308,-21.305399 -4e-5,15.407039 -25.35666,1.065 1.07197,-25.35705 15.3997,-2.5e-5 -21.30498,-21.304988 -21.30523,21.305177 15.39971,4.1e-5 1.07196,25.356865 -25.35666,-1.06477 V 40.39918 Z"
     style="fill:#104ead;fill-opacity:1;stroke:#0c3c86;stroke-width:1.65755343;stroke-linejoin:round;stroke-miterlimit:4;stroke-dasharray:none;stroke-opacity:1;paint-order:normal" />
</svg>
