<?xml version="1.0" encoding="UTF-8" standalone="no"?>
<svg
   xmlns:dc="http://purl.org/dc/elements/1.1/"
   xmlns:cc="http://creativecommons.org/ns#"
   xmlns:rdf="http://www.w3.org/1999/02/22-rdf-syntax-ns#"
   xmlns:svg="http://www.w3.org/2000/svg"
   xmlns="http://www.w3.org/2000/svg"
   width="41.422092mm"
   height="41.422092mm"
   viewBox="0 0 146.77119 146.7712"
   id="svg6315"
   version="1.1">
  <defs
     id="defs6317" />
  <metadata
     id="metadata6320">
    <rdf:RDF>
      <cc:Work
         rdf:about="">
        <dc:format>image/svg+xml</dc:format>
        <dc:type
           rdf:resource="http://purl.org/dc/dcmitype/StillImage" />
        <dc:title></dc:title>
      </cc:Work>
    </rdf:RDF>
  </metadata>
  <g
     transform="translate(1.192472,1.1924774)"
     id="g819">
    <rect
       ry="6.6729107"
       y="-52.146091"
       x="-154.2426"
       height="104.29219"
       width="104.29219"
       id="rect4136-2-3-9"
       style="opacity:1;fill:#dddddd;fill-opacity:1;stroke:#0c3c86;stroke-width:4.83562517;stroke-linecap:round;stroke-linejoin:round;stroke-miterlimit:2;stroke-dasharray:none;stroke-opacity:1"
       transform="rotate(-135)" />
    <path
       style="fill:#104ead;fill-opacity:1;stroke:#0c3c86;stroke-width:1.78535295;stroke-linejoin:round;stroke-miterlimit:4;stroke-dasharray:none;stroke-opacity:1;paint-order:normal"
       d="m 72.193253,127.65905 22.947871,-22.94787 -16.579058,-2e-5 -1.162821,-27.311944 27.311945,1.154851 2e-5,16.587029 22.94786,-22.947863 -22.94786,-22.947865 -2e-5,16.587051 -27.311957,1.154613 1.162777,-27.311679 16.579111,-2.2e-5 -22.948115,-22.945615 -22.948074,22.945575 16.594948,4.3e-5 1.147112,27.311704 -27.312116,-1.154626 -2.5e-5,-16.587041 -22.947628,22.947628 22.94784,22.94789 3.1e-5,-16.587047 27.311923,-1.154607 -1.146862,27.311695 H 49.24515 Z"
       id="rect827-0-3" />
  </g>
</svg>
