<?xml version="1.0" encoding="UTF-8" standalone="no"?>
<svg
   xmlns:osb="http://www.openswatchbook.org/uri/2009/osb"
   xmlns:dc="http://purl.org/dc/elements/1.1/"
   xmlns:cc="http://creativecommons.org/ns#"
   xmlns:rdf="http://www.w3.org/1999/02/22-rdf-syntax-ns#"
   xmlns:svg="http://www.w3.org/2000/svg"
   xmlns="http://www.w3.org/2000/svg"
   xmlns:xlink="http://www.w3.org/1999/xlink"
   version="1.1"
   id="svg6315"
   viewBox="0 0 146.47246 146.45574"
   height="41.333061mm"
   width="41.337784mm">
  <defs
     id="defs6317">
    <linearGradient
       osb:paint="solid"
       id="linearGradient819">
      <stop
         id="stop817"
         offset="0"
         style="stop-color:#dddddd;stop-opacity:1;" />
    </linearGradient>
    <linearGradient
       gradientUnits="userSpaceOnUse"
       y2="73.235916"
       x2="146.47183"
       y1="73.235916"
       x1="3.5762787e-06"
       id="linearGradient821"
       xlink:href="#linearGradient819" />
  </defs>
  <metadata
     id="metadata6320">
    <rdf:RDF>
      <cc:Work
         rdf:about="">
        <dc:format>image/svg+xml</dc:format>
        <dc:type
           rdf:resource="http://purl.org/dc/dcmitype/StillImage" />
        <dc:title></dc:title>
      </cc:Work>
    </rdf:RDF>
  </metadata>
  <g
     transform="matrix(0.99449835,0,0,0.99438474,0.4032344,0.40318833)"
     id="g825">
    <circle
       style="fill:url(#linearGradient821);fill-opacity:1;stroke:#0c3c86;stroke-width:5.64656258;stroke-linecap:square;stroke-linejoin:round;stroke-miterlimit:3.875;stroke-dasharray:none;stroke-opacity:1;paint-order:normal"
       id="path815"
       cx="73.235916"
       cy="73.235916"
       r="70.8181" />
    <path
       id="rect827-0-3"
       d="M 29.815916,29.816111 V 65.74426 L 42.794358,52.76584 65.085004,73.235925 42.800601,93.712245 29.815916,80.727589 V 116.65574 H 65.744048 L 52.759375,103.67102 73.23589,81.386793 93.705798,103.6772 l -12.978459,12.9785 35.926581,-0.002 0.002,-35.926521 L 103.66498,93.718048 81.386806,73.235867 103.67117,52.759235 116.65588,65.743899 V 29.81613 L 80.727731,29.816091 93.712395,42.800804 73.2359,65.085 52.753523,42.807048 65.74444,29.81613 Z"
       style="fill:#104ead;fill-opacity:1;stroke:#0c3c86;stroke-width:1.97652149;stroke-linejoin:round;stroke-miterlimit:4;stroke-dasharray:none;stroke-opacity:1;paint-order:normal" />
  </g>
</svg>
