<?xml version="1.0" encoding="UTF-8" standalone="no"?>
<svg
   xmlns:dc="http://purl.org/dc/elements/1.1/"
   xmlns:cc="http://creativecommons.org/ns#"
   xmlns:rdf="http://www.w3.org/1999/02/22-rdf-syntax-ns#"
   xmlns:svg="http://www.w3.org/2000/svg"
   xmlns="http://www.w3.org/2000/svg"
   version="1.1"
   id="svg7778"
   viewBox="0 0 477.15656 123.40899"
   height="34.828758mm"
   width="134.66418mm">
  <defs
     id="defs7780" />
  <metadata
     id="metadata7783">
    <rdf:RDF>
      <cc:Work
         rdf:about="">
        <dc:format>image/svg+xml</dc:format>
        <dc:type
           rdf:resource="http://purl.org/dc/dcmitype/StillImage" />
        <dc:title></dc:title>
      </cc:Work>
    </rdf:RDF>
  </metadata>
  <g
     id="g819">
    <rect
       ry="7.5443735"
       y="2.748276"
       x="2.748276"
       height="117.91244"
       width="471.66"
       id="rect4136-2"
       style="opacity:1;fill:#a1a2a3;fill-opacity:1;stroke:#4f4f4f;stroke-width:5.49655199;stroke-linecap:round;stroke-linejoin:round;stroke-miterlimit:2;stroke-dasharray:none;stroke-opacity:1" />
    <rect
       ry="6.224051"
       style="fill:#ffffff;stroke:#4f4f4f;stroke-width:1.1259191;stroke-opacity:1"
       y="22.093025"
       x="24.019844"
       height="79.222939"
       width="325.79764"
       id="rect3729-3" />
  </g>
  <path
     style="fill:#ffffff;fill-opacity:1;fill-rule:evenodd;stroke:#4f4f4f;stroke-width:1.22742999;stroke-linecap:round;stroke-linejoin:round;stroke-miterlimit:4;stroke-dasharray:none;stroke-opacity:1"
     d="m 395.06198,29.794125 12.04604,0.586346 -0.10675,26.730867 -27.02678,0.01926 0.15591,-12.77098 -17.68448,18.193644 17.2647,16.739183 0.14817,-12.059573 26.61844,-1.86651 0.0121,0.01336 -1.87253,27.162465 -12.75695,-0.619963 17.53739,18.336266 17.35725,-16.643628 -12.04607,-0.586334 -0.88325,-27.575372 28.28223,1.26063 -0.6041,12.755839 18.31503,-17.559543 -16.66565,-17.336126 -0.57199,12.04636 -27.87986,0.871119 2.49809,-26.624595 12.75693,0.619939 L 412.41846,13.1505 395.06121,29.794131 Z"
     id="path5466-5" />
</svg>
