<?xml version="1.0" encoding="UTF-8" standalone="no"?>
<svg
   xmlns:dc="http://purl.org/dc/elements/1.1/"
   xmlns:cc="http://creativecommons.org/ns#"
   xmlns:rdf="http://www.w3.org/1999/02/22-rdf-syntax-ns#"
   xmlns:svg="http://www.w3.org/2000/svg"
   xmlns="http://www.w3.org/2000/svg"
   width="41.337711mm"
   height="41.270996mm"
   viewBox="0 0 146.4722 146.23581"
   id="svg2"
   version="1.1">
  <defs
     id="defs4" />
  <metadata
     id="metadata7">
    <rdf:RDF>
      <cc:Work
         rdf:about="">
        <dc:format>image/svg+xml</dc:format>
        <dc:type
           rdf:resource="http://purl.org/dc/dcmitype/StillImage" />
        <dc:title></dc:title>
      </cc:Work>
    </rdf:RDF>
  </metadata>
  <g
     id="layer1"
     transform="translate(-310.19216,-103.4594)" />
  <rect
     style="opacity:1;fill:#dddddd;fill-opacity:1;stroke:#0c3c86;stroke-width:5.6465888;stroke-linecap:round;stroke-linejoin:round;stroke-miterlimit:2;stroke-dasharray:none;stroke-opacity:1"
     id="rect4136-2-3-3"
     width="140.82561"
     height="140.58922"
     x="2.8232944"
     y="2.8232944"
     ry="8.9952965" />
  <path
     id="path4150"
     d="m 73.023685,15.657454 c -1.364661,0.0335 -2.718401,0.60584 -3.627071,1.65638 l -15.74601,18.20449 c -1.5508,1.79293 -1.20076,4.27909 0.784821,5.57411 l 0.28577,0.18625 c 1.98558,1.29502 4.83254,0.89434 6.383339,-0.8986 l 7.11447,-8.22561 v 21.32275 c 0,0.20988 0.01,0.41684 0.0274,0.62072 a 21.493014,21.261909 0 0 0 -14.33219,10.79411 l -20.08768,-7.00293 11.4599,-4.54634 c 2.20351,-0.87416 3.51887,-3.43061 2.94965,-5.73182 l -0.0819,-0.33121 c -0.56922,-2.30121 -2.801699,-3.45017 -5.005209,-2.57601 l -22.37305,8.87599 c -1.38479,0.54937 -2.41787,1.76343 -2.8539,3.16069 -0.003,0.007 -0.007,0.0144 -0.009,0.0218 -0.51786,1.3605 -0.45931,2.94379 0.27976,4.2279 l 12.00665,20.860866 c 1.1825,2.05458 3.645449,2.54248 5.521909,1.09387 l 0.270001,-0.20841 c 1.87646,-1.44861 2.43521,-4.26868 1.252699,-6.32326 l -5.425399,-9.425746 19.61716,6.838826 a 21.493014,21.261909 0 0 0 -0.036,1.01465 21.493014,21.261909 0 0 0 16.933369,20.75159 v 10.1779 a 13.00356,12.863737 0 0 0 -8.19256,11.94581 13.00356,12.863737 0 0 0 13.003251,12.86356 13.00356,12.863737 0 0 0 13.003639,-12.86356 13.00356,12.863737 0 0 0 -8.75058,-12.14108 v -9.95485 a 21.493014,21.261909 0 0 0 16.98895,-20.77937 21.493014,21.261909 0 0 0 -0.0867,-1.71047 L 115.40899,65.669394 109.30541,76.3809 c -1.17368,2.05963 -0.60292,4.87745 1.27974,6.318 l 0.27075,0.20728 c 1.88266,1.44055 4.34373,0.94211 5.51741,-1.11752 l 11.91652,-20.912316 c 0.7376,-1.29438 0.78532,-2.88794 0.25235,-4.25118 -0.002,-0.008 -0.004,-0.015 -0.006,-0.0225 -0.44611,-1.38568 -1.48151,-2.58496 -2.86103,-3.12539 l -22.41139,-8.77992 c -2.20723,-0.86469 -4.434605,0.29379 -4.993935,2.59742 l -0.0804,0.33158 c -0.55934,2.30364 0.7672,4.85436 2.974435,5.71906 l 10.12607,3.96692 -19.754215,6.98191 a 21.493014,21.261909 0 0 0 -14.09037,-10.20606 c 0.0172,-0.20071 0.0263,-0.40446 0.0263,-0.61096 v -22.4215 l 8.06526,9.32436 c 1.550799,1.79294 4.39776,2.19362 6.38334,0.8986 l 0.28577,-0.18625 c 1.98558,-1.29502 2.33562,-3.78118 0.78482,-5.57411 l -15.746,-18.20449 c -0.9746,-1.12677 -2.46119,-1.70274 -3.92411,-1.65451 -0.008,-1.9e-4 -0.0157,-10e-4 -0.0237,-10e-4 -0.0909,-0.003 -0.18202,-0.003 -0.273,-3.7e-4 z m -0.131051,46.3195 A 13.00356,12.863737 0 0 1 85.895894,74.8409 13.00356,12.863737 0 0 1 72.892634,87.70446 13.00356,12.863737 0 0 1 59.889004,74.8409 13.00356,12.863737 0 0 1 72.892634,61.976954 Z"
     style="opacity:1;fill:#104ead;fill-opacity:1;stroke:#0c3c86;stroke-width:2;stroke-linecap:round;stroke-linejoin:round;stroke-miterlimit:4;stroke-dasharray:none;stroke-opacity:1" />
</svg>
