<?xml version="1.0" encoding="UTF-8" standalone="no"?>
<svg
   xmlns:dc="http://purl.org/dc/elements/1.1/"
   xmlns:cc="http://creativecommons.org/ns#"
   xmlns:rdf="http://www.w3.org/1999/02/22-rdf-syntax-ns#"
   xmlns:svg="http://www.w3.org/2000/svg"
   xmlns="http://www.w3.org/2000/svg"
   version="1.1"
   id="svg7778"
   viewBox="0 0 146.47219 146.23581"
   height="41.270992mm"
   width="41.337704mm">
  <defs
     id="defs7780" />
  <metadata
     id="metadata7783">
    <rdf:RDF>
      <cc:Work
         rdf:about="">
        <dc:format>image/svg+xml</dc:format>
        <dc:type
           rdf:resource="http://purl.org/dc/dcmitype/StillImage" />
        <dc:title></dc:title>
      </cc:Work>
    </rdf:RDF>
  </metadata>
  <g
     id="g818">
    <rect
       ry="8.9952965"
       y="2.8232942"
       x="2.8232944"
       height="140.58922"
       width="140.82561"
       id="rect4136-2-3-3"
       style="opacity:1;fill:#fdfdfd;fill-opacity:1;stroke:#2c2c2c;stroke-width:5.6465888;stroke-linecap:round;stroke-linejoin:round;stroke-miterlimit:2;stroke-dasharray:none;stroke-opacity:1" />
    <path
       id="rect864"
       d="m 100.89651,19.426022 c -3.465719,1.393109 -5.628681,3.725199 -6.945482,6.66687 l 14.786862,17.195437 -89.234127,-0.55481 c -1.281942,3.526045 -1.479555,7.166663 0,10.984498 l 89.254927,-0.55481 -14.953226,17.144168 c 1.2205,3.43447 3.629553,5.553303 6.900426,6.718139 l 25.03525,-28.707277 z"
       style="fill:#3a3a3a;fill-opacity:1;stroke:#2c2c2c;stroke-width:2.28006816;stroke-linecap:butt;stroke-linejoin:round;stroke-miterlimit:2;stroke-dasharray:none;stroke-opacity:1;paint-order:normal" />
    <path
       id="rect864-2"
       d="m 44.348723,126.80978 c 3.465713,-1.39311 5.628683,-3.7252 6.945479,-6.66687 l -14.786864,-17.19544 89.234122,0.55481 c 1.28194,-3.526038 1.47956,-7.166657 0,-10.984496 l -89.254923,0.55481 14.953231,-17.14416 c -1.220501,-3.43448 -3.629553,-5.55331 -6.900431,-6.71814 L 19.504099,97.917569 Z"
       style="fill:#3a3a3a;fill-opacity:1;stroke:#2c2c2c;stroke-width:2.28006816;stroke-linecap:butt;stroke-linejoin:round;stroke-miterlimit:2;stroke-dasharray:none;stroke-opacity:1;paint-order:normal" />
  </g>
</svg>
