<?xml version="1.0" encoding="UTF-8" standalone="no"?>
<svg
   xmlns:dc="http://purl.org/dc/elements/1.1/"
   xmlns:cc="http://creativecommons.org/ns#"
   xmlns:rdf="http://www.w3.org/1999/02/22-rdf-syntax-ns#"
   xmlns:svg="http://www.w3.org/2000/svg"
   xmlns="http://www.w3.org/2000/svg"
   width="134.66417mm"
   height="34.828758mm"
   viewBox="0 0 477.15651 123.40899"
   id="svg6315"
   version="1.1">
  <defs
     id="defs6317" />
  <metadata
     id="metadata6320">
    <rdf:RDF>
      <cc:Work
         rdf:about="">
        <dc:format>image/svg+xml</dc:format>
        <dc:type
           rdf:resource="http://purl.org/dc/dcmitype/StillImage" />
        <dc:title></dc:title>
      </cc:Work>
    </rdf:RDF>
  </metadata>
  <g
     id="g818">
    <rect
       style="opacity:1;fill:#0089f2;fill-opacity:1;stroke:#4f4f4f;stroke-width:5.49655199;stroke-linecap:round;stroke-linejoin:round;stroke-miterlimit:2;stroke-dasharray:none;stroke-opacity:1"
       id="rect4136-2"
       width="471.66"
       height="117.91244"
       x="2.748276"
       y="2.748276"
       ry="7.5443735" />
    <rect
       id="rect3729-3"
       width="325.79764"
       height="79.222939"
       x="24.019844"
       y="22.093025"
       style="fill:#ffffff;stroke:#4f4f4f;stroke-width:1.1259191;stroke-opacity:1"
       ry="6.224051" />
    <path
       style="fill:#ffffff;fill-opacity:1;fill-rule:evenodd;stroke:#4f4f4f;stroke-width:1.63516068;stroke-linecap:round;stroke-linejoin:round;stroke-miterlimit:4;stroke-dasharray:none;stroke-opacity:1"
       d="M 426.09771,16.410358 437.14,28.080876 412.39092,53.685612 386.38544,28.784902 398.31048,16.64864 l -33.77953,1.18872 1.16706,32.014042 11.26167,-11.45931 27.31603,22.74804 v 0.0244 L 377.4308,85.556203 365.73591,73.19789 l -0.0432,33.80119 h 32.03573 l -11.04232,-11.670528 24.57577,-27.329595 26.03258,27.288981 -12.34205,11.708442 33.80118,0.002 -0.0406,-32.035717 -11.65706,11.05608 -27.6112,-24.868224 26.95051,-23.297716 11.69487,12.358302 0.0432,-33.801192 H 426.0976 Z"
       id="path5466-5" />
  </g>
</svg>
