<?xml version="1.0" encoding="UTF-8" standalone="no"?>
<svg
   xmlns:dc="http://purl.org/dc/elements/1.1/"
   xmlns:cc="http://creativecommons.org/ns#"
   xmlns:rdf="http://www.w3.org/1999/02/22-rdf-syntax-ns#"
   xmlns:svg="http://www.w3.org/2000/svg"
   xmlns="http://www.w3.org/2000/svg"
   width="134.6642mm"
   height="34.828766mm"
   viewBox="0 0 477.15661 123.40902"
   id="svg7778"
   version="1.1">
  <defs
     id="defs7780" />
  <metadata
     id="metadata7783">
    <rdf:RDF>
      <cc:Work
         rdf:about="">
        <dc:format>image/svg+xml</dc:format>
        <dc:type
           rdf:resource="http://purl.org/dc/dcmitype/StillImage" />
        <dc:title></dc:title>
      </cc:Work>
    </rdf:RDF>
  </metadata>
  <rect
     ry="7.5443735"
     y="2.7482815"
     x="2.7482815"
     height="117.91245"
     width="471.66006"
     id="rect4136-2-3-3"
     style="opacity:1;fill:#dddddd;fill-opacity:1;stroke:#0c3c86;stroke-width:5.49656296;stroke-linecap:round;stroke-linejoin:round;stroke-miterlimit:2;stroke-dasharray:none;stroke-opacity:1" />
  <rect
     ry="6.2240515"
     style="fill:#ffffff;stroke:#0c3c86;stroke-width:3.75000048;stroke-miterlimit:4;stroke-dasharray:none;stroke-opacity:1"
     y="22.093039"
     x="24.019842"
     height="79.222939"
     width="325.79764"
     id="rect3729-3-6" />
  <g
     transform="matrix(0.79124967,0,0,0.84788594,353.84463,-0.29113027)"
     id="g1014">
    <path
       style="fill:#104ead;fill-opacity:1;stroke:#0c3c86;stroke-width:2.34375024;stroke-linecap:butt;stroke-linejoin:round;stroke-miterlimit:2;stroke-dasharray:none;stroke-opacity:1;paint-order:normal"
       d="m 103.11141,19.426017 c -3.662013,1.393109 -5.947484,3.725199 -7.338869,6.66687 l 15.624389,17.195437 -94.288336,-0.55481 c -1.354551,3.526045 -1.563357,7.166663 0,10.984498 L 111.41891,53.163202 95.618732,70.30737 c 1.289629,3.43447 3.835131,5.553303 7.291268,6.718139 l 26.45324,-28.707277 z"
       id="rect864" />
    <path
       style="fill:#104ead;fill-opacity:1;stroke:#0c3c86;stroke-width:2.34375024;stroke-linecap:butt;stroke-linejoin:round;stroke-miterlimit:2;stroke-dasharray:none;stroke-opacity:1;paint-order:normal"
       d="m 43.360769,126.80978 c 3.66201,-1.39311 5.94749,-3.7252 7.33887,-6.66687 l -15.62439,-17.19544 94.288331,0.55481 c 1.35455,-3.526043 1.56336,-7.166662 0,-10.984501 l -94.310311,0.55481 15.80018,-17.14416 c -1.28963,-3.43448 -3.83513,-5.55331 -7.29127,-6.71814 l -26.45323,28.707275 z"
       id="rect864-2" />
  </g>
</svg>
