<?xml version="1.0" encoding="UTF-8" standalone="no"?>
<svg
   xmlns:dc="http://purl.org/dc/elements/1.1/"
   xmlns:cc="http://creativecommons.org/ns#"
   xmlns:rdf="http://www.w3.org/1999/02/22-rdf-syntax-ns#"
   xmlns:svg="http://www.w3.org/2000/svg"
   xmlns="http://www.w3.org/2000/svg"
   version="1.1"
   id="svg2"
   viewBox="0 0 103.5195 99.006861"
   height="27.941936mm"
   width="29.215504mm">
  <defs
     id="defs4" />
  <metadata
     id="metadata7">
    <rdf:RDF>
      <cc:Work
         rdf:about="">
        <dc:format>image/svg+xml</dc:format>
        <dc:type
           rdf:resource="http://purl.org/dc/dcmitype/StillImage" />
        <dc:title></dc:title>
      </cc:Work>
    </rdf:RDF>
  </metadata>
  <g
     transform="translate(-493.70196,-577.5704)"
     id="layer1">
    <rect
       style="opacity:1;fill:#a1a2a3;fill-opacity:1;stroke:#4f4f4f;stroke-width:2.30585027;stroke-linecap:round;stroke-linejoin:round;stroke-miterlimit:2;stroke-dasharray:none;stroke-opacity:1"
       id="rect4136-2"
       width="101.21365"
       height="96.701012"
       x="494.85489"
       y="578.72333"
       ry="6.1872072" />
    <path
       id="path4150"
       d="m 545.30346,584.17048 c -1.01895,0.025 -2.02972,0.45235 -2.70819,1.23675 l -11.75687,13.59251 c -1.15791,1.3387 -0.89655,3.19501 0.58599,4.16194 l 0.21338,0.13907 c 1.48254,0.96693 3.60824,0.66776 4.76617,-0.67095 l 5.31206,-6.14171 0,15.92079 c 0,0.1567 0.008,0.31123 0.0205,0.46346 a 16.047911,15.875353 0 0 0 -10.70124,8.0595 l -14.99861,-5.22879 8.55662,-3.39456 c 1.64527,-0.65269 2.62739,-2.56149 2.20238,-4.2797 l -0.0612,-0.2473 c -0.42501,-1.71822 -2.0919,-2.57609 -3.73717,-1.9234 l -16.705,6.62732 c -1.03396,0.41019 -1.80532,1.31668 -2.13089,2.35996 -0.002,0.005 -0.005,0.0108 -0.007,0.0163 -0.38666,1.01582 -0.34295,2.198 0.20889,3.15679 l 8.96485,15.5759 c 0.88292,1.53407 2.7219,1.89837 4.12297,0.81675 l 0.20159,-0.15561 c 1.40107,-1.08162 1.81827,-3.18724 0.93534,-4.72131 l -4.05091,-7.03779 14.64729,5.10626 a 16.047911,15.875353 0 0 0 -0.0269,0.75759 16.047911,15.875353 0 0 0 12.64342,15.49432 l 0,7.5994 a 9.7091996,9.6047998 0 0 0 -6.11703,8.91942 9.7091996,9.6047998 0 0 0 9.70897,9.60467 9.7091996,9.6047998 0 0 0 9.70926,-9.60467 9.7091996,9.6047998 0 0 0 -6.53369,-9.06522 l 0,-7.43286 a 16.047911,15.875353 0 0 0 12.68492,-15.51506 16.047911,15.875353 0 0 0 -0.0648,-1.27713 l 15.7618,-5.57085 -4.55729,7.99781 c -0.87633,1.53784 -0.45017,3.64179 0.95554,4.71738 l 0.20216,0.15477 c 1.4057,1.0756 3.24327,0.70343 4.1196,-0.83441 l 8.89756,-15.61432 c 0.55073,-0.96646 0.58636,-2.1563 0.18842,-3.17417 -10e-4,-0.006 -0.003,-0.0112 -0.004,-0.0168 -0.33309,-1.03463 -1.10617,-1.93008 -2.1362,-2.3336 l -16.73362,-6.55559 c -1.64804,-0.64562 -3.31114,0.21937 -3.72876,1.93939 l -0.06,0.24757 c -0.41763,1.72003 0.57283,3.62455 2.22089,4.27018 l 7.56069,2.96193 -14.74962,5.21309 a 16.047911,15.875353 0 0 0 -10.52067,-7.62043 c 0.0128,-0.14986 0.0196,-0.30199 0.0196,-0.45617 l 0,-16.74117 6.02198,6.96209 c 1.15791,1.33872 3.28362,1.63789 4.76617,0.67095 l 0.21338,-0.13906 c 1.48254,-0.96694 1.74389,-2.82325 0.58598,-4.16195 L 548.4551,585.40725 c -0.72769,-0.84131 -1.83766,-1.27137 -2.92996,-1.23535 -0.005,-1.5e-4 -0.0118,-7.5e-4 -0.0178,-7.5e-4 -0.0678,-0.002 -0.13591,-0.002 -0.20384,-2.8e-4 z m -0.0979,34.58478 a 9.7091996,9.6047998 0 0 1 9.70898,9.60495 9.7091996,9.6047998 0 0 1 -9.70898,9.60467 9.7091996,9.6047998 0 0 1 -9.70925,-9.60467 9.7091996,9.6047998 0 0 1 9.70925,-9.60495 z"
       style="opacity:1;fill:#ffffff;fill-opacity:1;stroke:#4f4f4f;stroke-width:1.76563156;stroke-linecap:round;stroke-linejoin:round;stroke-miterlimit:4;stroke-dasharray:none;stroke-opacity:1" />
  </g>
</svg>
