<?xml version="1.0" encoding="UTF-8" standalone="no"?>
<svg
   xmlns:dc="http://purl.org/dc/elements/1.1/"
   xmlns:cc="http://creativecommons.org/ns#"
   xmlns:rdf="http://www.w3.org/1999/02/22-rdf-syntax-ns#"
   xmlns:svg="http://www.w3.org/2000/svg"
   xmlns="http://www.w3.org/2000/svg"
   version="1.1"
   id="svg7778"
   viewBox="0 0 477.15661 123.40901"
   height="34.828766mm"
   width="134.6642mm">
  <defs
     id="defs7780" />
  <metadata
     id="metadata7783">
    <rdf:RDF>
      <cc:Work
         rdf:about="">
        <dc:format>image/svg+xml</dc:format>
        <dc:type
           rdf:resource="http://purl.org/dc/dcmitype/StillImage" />
        <dc:title></dc:title>
      </cc:Work>
    </rdf:RDF>
  </metadata>
  <g
     id="g831">
    <rect
       style="opacity:1;fill:#dddddd;fill-opacity:1;stroke:#0c3c86;stroke-width:5.49656296;stroke-linecap:round;stroke-linejoin:round;stroke-miterlimit:2;stroke-dasharray:none;stroke-opacity:1"
       id="rect4136-2-3"
       width="471.66006"
       height="117.91245"
       x="2.7482817"
       y="2.7482803"
       ry="7.5443735" />
    <rect
       id="rect3729-3-6"
       width="325.79764"
       height="79.222939"
       x="24.019842"
       y="22.093037"
       style="fill:#ffffff;stroke:#0c3c86;stroke-width:3.75000048;stroke-miterlimit:4;stroke-dasharray:none;stroke-opacity:1"
       ry="6.2240515" />
    <path
       id="rect827-0-3"
       d="m 362.50696,61.704602 21.30522,21.305209 10e-6,-15.392289 25.35689,-1.079584 -1.07218,25.356884 -15.39969,3.2e-5 21.3052,21.305196 21.3052,-21.305204 -15.3997,-2.4e-5 -1.07196,-25.356892 25.35663,1.079543 3e-5,15.392338 21.30311,-21.305431 -21.30308,-21.305398 -4e-5,15.407037 -25.35666,1.065 1.07197,-25.357048 15.3997,-2.5e-5 -21.30498,-21.304987 -21.30523,21.305176 15.39971,4.1e-5 1.07196,25.356867 -25.35666,-1.064769 V 40.399179 Z"
       style="fill:#104ead;fill-opacity:1;stroke:#0c3c86;stroke-width:1.65755343;stroke-linejoin:round;stroke-miterlimit:4;stroke-dasharray:none;stroke-opacity:1;paint-order:normal" />
  </g>
</svg>
