<?xml version="1.0" encoding="UTF-8" standalone="no"?>
<svg
   xmlns:dc="http://purl.org/dc/elements/1.1/"
   xmlns:cc="http://creativecommons.org/ns#"
   xmlns:rdf="http://www.w3.org/1999/02/22-rdf-syntax-ns#"
   xmlns:svg="http://www.w3.org/2000/svg"
   xmlns="http://www.w3.org/2000/svg"
   width="41.3377mm"
   height="41.270988mm"
   viewBox="0 0 146.47216 146.23578"
   id="svg4787"
   version="1.1">
  <defs
     id="defs4789" />
  <metadata
     id="metadata4792">
    <rdf:RDF>
      <cc:Work
         rdf:about="">
        <dc:format>image/svg+xml</dc:format>
        <dc:type
           rdf:resource="http://purl.org/dc/dcmitype/StillImage" />
        <dc:title></dc:title>
      </cc:Work>
    </rdf:RDF>
  </metadata>
  <g
     id="g1081">
    <rect
       ry="8.9952946"
       y="2.8232937"
       x="2.8232937"
       height="140.58919"
       width="140.82558"
       id="rect4136-2-3-3"
       style="opacity:1;fill:#fdfdfd;fill-opacity:1;stroke:#2c2c2c;stroke-width:5.64658737;stroke-linecap:round;stroke-linejoin:round;stroke-miterlimit:2;stroke-dasharray:none;stroke-opacity:1" />
    <path
       style="opacity:1;fill:#3a3a3a;fill-opacity:1;stroke:#2c2c2c;stroke-width:2.4834373;stroke-linejoin:round;stroke-miterlimit:4;stroke-dasharray:none;stroke-opacity:1"
       d="m 73.216852,16.792818 a 12.061046,12.061046 0 0 0 -12.061156,12.06116 12.061046,12.061046 0 0 0 8.278198,11.44226 V 57.01559 A 20.462549,20.462549 0 0 0 55.431819,67.022305 L 38.73077,62.245087 a 12.061046,12.061046 0 0 0 -12.046508,-11.629029 12.061046,12.061046 0 0 0 -12.061157,12.06116 12.061046,12.061046 0 0 0 12.061157,12.061153 12.061046,12.061046 0 0 0 9.937133,-5.22766 l 16.365966,4.682006 a 20.462549,20.462549 0 0 0 -0.232544,2.920528 20.462549,20.462549 0 0 0 5.484009,13.916025 l -9.768676,15.03296 a 12.061046,12.061046 0 0 0 -4.121704,-0.74158 12.061046,12.061046 0 0 0 -12.061157,12.06116 12.061046,12.061046 0 0 0 12.061157,12.06115 12.061046,12.061046 0 0 0 12.061156,-12.06115 12.061046,12.061046 0 0 0 -1.977539,-6.61011 L 64.34173,95.522669 a 20.462549,20.462549 0 0 0 8.875122,2.052619 20.462549,20.462549 0 0 0 9.241333,-2.208253 l 9.713744,14.948725 a 12.061046,12.061046 0 0 0 -2.301635,7.06605 12.061046,12.061046 0 0 0 12.061156,12.06115 12.061046,12.061046 0 0 0 12.06117,-12.06115 12.061046,12.061046 0 0 0 -12.06117,-12.06116 12.061046,12.061046 0 0 0 -3.612667,0.56762 L 88.464044,90.727142 A 20.462549,20.462549 0 0 0 93.678887,77.113245 20.462549,20.462549 0 0 0 93.429864,74.029752 L 109.75739,69.358733 A 12.061046,12.061046 0 0 0 119.7879,74.738371 12.061046,12.061046 0 0 0 131.84906,62.677218 12.061046,12.061046 0 0 0 119.7879,50.616058 12.061046,12.061046 0 0 0 107.75788,62.061984 L 90.908502,66.881315 A 20.462549,20.462549 0 0 0 76.999811,57.01559 V 40.290738 a 12.061046,12.061046 0 0 0 8.278198,-11.43676 12.061046,12.061046 0 0 0 -12.061157,-12.06116 z"
       id="path829" />
  </g>
</svg>
