<?xml version="1.0" encoding="UTF-8" standalone="no"?>
<svg
   xmlns:dc="http://purl.org/dc/elements/1.1/"
   xmlns:cc="http://creativecommons.org/ns#"
   xmlns:rdf="http://www.w3.org/1999/02/22-rdf-syntax-ns#"
   xmlns:svg="http://www.w3.org/2000/svg"
   xmlns="http://www.w3.org/2000/svg"
   version="1.1"
   id="svg7778"
   viewBox="0 0 257.79912 103.53112"
   height="29.218782mm"
   width="72.756638mm">
  <defs
     id="defs7780" />
  <metadata
     id="metadata7783">
    <rdf:RDF>
      <cc:Work
         rdf:about="">
        <dc:format>image/svg+xml</dc:format>
        <dc:type
           rdf:resource="http://purl.org/dc/dcmitype/StillImage" />
        <dc:title></dc:title>
      </cc:Work>
    </rdf:RDF>
  </metadata>
  <rect
     ry="1.058059"
     y="144.38962"
     x="178.69905"
     height="44.737236"
     width="114.87411"
     id="rect4136-2-3-3-1-5"
     style="opacity:1;fill:#dddddd;fill-opacity:1;stroke:#0c3c86;stroke-width:2.87683558;stroke-linecap:round;stroke-linejoin:round;stroke-miterlimit:2;stroke-dasharray:none;stroke-opacity:1"
     transform="matrix(0.873861,-0.48617585,5.1650651e-8,1,0,0)" />
  <rect
     ry="0.92879671"
     y="57.148861"
     x="1.663313"
     height="44.718945"
     width="153.66602"
     id="rect4136-2-3-3-1"
     style="opacity:1;fill:#dddddd;fill-opacity:1;stroke:#0c3c86;stroke-width:3.32662606;stroke-linecap:round;stroke-linejoin:round;stroke-miterlimit:2;stroke-dasharray:none;stroke-opacity:1" />
  <g
     transform="matrix(1.0767436,0,-0.69071933,0.38775698,100.42788,0)"
     id="g840">
    <g
       transform="translate(-310.19216,-103.4594)"
       id="layer1" />
    <rect
       ry="0"
       y="2.8232944"
       x="2.8232944"
       height="140.58922"
       width="140.82561"
       id="rect4136-2-3-3"
       style="opacity:1;fill:#dddddd;fill-opacity:1;stroke:#0c3c86;stroke-width:5.6465888;stroke-linecap:round;stroke-linejoin:round;stroke-miterlimit:2;stroke-dasharray:none;stroke-opacity:1" />
    <path
       style="opacity:1;fill:#104ead;fill-opacity:1;stroke:#0c3c86;stroke-width:1.91520715;stroke-linecap:round;stroke-linejoin:round;stroke-miterlimit:4;stroke-dasharray:none;stroke-opacity:1"
       d="m 73.032665,18.093584 c -1.306805,0.03208 -2.603151,0.580155 -3.473297,1.586156 L 54.480932,37.112425 c -1.485051,1.716916 -1.149852,4.097672 0.751548,5.337788 l 0.273654,0.178353 c 1.901399,1.240116 4.627658,0.856423 6.112709,-0.860502 l 6.812842,-7.876874 v 20.418742 c 0,0.200982 0.0096,0.399167 0.02624,0.594404 A 20.581788,20.360481 0 0 0 54.733366,65.240814 L 35.497332,58.534783 46.471373,54.181192 c 2.110089,-0.837099 3.369683,-3.285165 2.824596,-5.488812 l -0.07843,-0.317168 c -0.545085,-2.203647 -2.682915,-3.303895 -4.793004,-2.466796 l -21.424514,8.49968 c -1.326079,0.526079 -2.315361,1.688667 -2.732904,3.026688 -0.0029,0.0067 -0.0067,0.01379 -0.0086,0.02088 -0.495904,1.30282 -0.439837,2.818984 0.267899,4.048652 l 11.497612,19.97644 c 1.132366,1.967474 3.490895,2.434689 5.2878,1.047494 l 0.258553,-0.199574 c 1.796905,-1.387194 2.331966,-4.087703 1.19959,-6.055176 l -5.195382,-9.026129 18.785463,6.548885 a 20.581788,20.360481 0 0 0 -0.03447,0.971632 20.581788,20.360481 0 0 0 16.215455,19.871798 v 9.746384 a 12.452256,12.318361 0 0 0 -7.845225,11.43935 12.452256,12.318361 0 0 0 12.45196,12.31819 12.452256,12.318361 0 0 0 12.452332,-12.31819 12.452256,12.318361 0 0 0 -8.379587,-11.62634 v -9.532792 a 20.581788,20.360481 0 0 0 16.26868,-19.8984 20.581788,20.360481 0 0 0 -0.08302,-1.637952 l 20.214833,-7.144734 -5.84481,10.257377 c -1.12392,1.972309 -0.57736,4.670663 1.22548,6.050139 l 0.25928,0.198492 c 1.80284,1.379476 4.15957,0.902168 5.28349,-1.070141 l 11.4113,-20.025709 c 0.70633,-1.239503 0.75203,-2.765502 0.24165,-4.070945 -0.002,-0.0077 -0.004,-0.01436 -0.006,-0.02155 -0.4272,-1.326933 -1.4187,-2.475367 -2.73974,-2.992885 l -21.46099,-8.407683 c -2.113652,-0.82803 -4.246594,0.281334 -4.782211,2.487299 l -0.07699,0.317522 c -0.535626,2.205974 0.734673,4.648552 2.848329,5.476592 l 9.696752,3.798737 -18.916698,6.685902 A 20.581788,20.360481 0 0 0 77.266862,54.89499 c 0.01647,-0.192201 0.02519,-0.387313 0.02519,-0.585058 V 32.839023 l 7.723322,8.929041 c 1.485051,1.716925 4.211311,2.100618 6.112709,0.860502 l 0.27365,-0.178353 c 1.901398,-1.240116 2.236598,-3.620872 0.751546,-5.337788 L 77.074853,19.67974 c -0.93328,-1.078999 -2.356844,-1.63055 -3.757742,-1.584365 -0.0077,-1.82e-4 -0.01503,-9.58e-4 -0.02269,-9.58e-4 -0.08705,-0.0029 -0.174303,-0.0029 -0.261426,-3.54e-4 z M 72.90717,62.449304 A 12.452256,12.318361 0 0 1 85.359138,74.767865 12.452256,12.318361 0 0 1 72.90717,87.086056 12.452256,12.318361 0 0 1 60.454847,74.767865 12.452256,12.318361 0 0 1 72.90717,62.449304 Z"
       id="path4150" />
  </g>
</svg>
