<?xml version="1.0" encoding="UTF-8" standalone="no"?>
<svg
   xmlns:dc="http://purl.org/dc/elements/1.1/"
   xmlns:cc="http://creativecommons.org/ns#"
   xmlns:rdf="http://www.w3.org/1999/02/22-rdf-syntax-ns#"
   xmlns:svg="http://www.w3.org/2000/svg"
   xmlns="http://www.w3.org/2000/svg"
   width="55.997772mm"
   height="55.997772mm"
   viewBox="0 0 198.4173 198.4173"
   id="svg4324"
   version="1.1">
  <defs
     id="defs4326" />
  <metadata
     id="metadata4329">
    <rdf:RDF>
      <cc:Work
         rdf:about="">
        <dc:format>image/svg+xml</dc:format>
        <dc:type
           rdf:resource="http://purl.org/dc/dcmitype/StillImage" />
        <dc:title></dc:title>
      </cc:Work>
    </rdf:RDF>
  </metadata>
  <g
     transform="translate(-1149.6128,-358.95166)"
     id="g5952"
     style="display:inline">
    <rect
       style="opacity:1;fill:#14517c;fill-opacity:1;stroke:#cdc9ca;stroke-width:6;stroke-linecap:round;stroke-linejoin:round;stroke-miterlimit:4;stroke-dasharray:none;stroke-opacity:1"
       id="rect5885"
       width="192.4173"
       height="192.4173"
       x="1152.6128"
       y="361.95166" />
    <circle
       style="opacity:1;fill:#fefefe;fill-opacity:1;stroke:#cdc9ca;stroke-width:1;stroke-linecap:round;stroke-linejoin:round;stroke-miterlimit:4;stroke-dasharray:none;stroke-opacity:1"
       id="path5938"
       cx="1249.7664"
       cy="458.30685"
       r="80.305069" />
    <circle
       style="opacity:1;fill:#14517c;fill-opacity:1;stroke:#cdc9ca;stroke-width:1;stroke-miterlimit:4;stroke-dasharray:none;stroke-opacity:1"
       id="path4136-6-0"
       cx="1250.0637"
       cy="458.41284"
       r="77.155731" />
    <path
       style="opacity:1;fill:#fefefe;fill-opacity:1;stroke:#cdc9ca;stroke-width:0.70806885;stroke-linecap:round;stroke-linejoin:round;stroke-miterlimit:4;stroke-dasharray:none;stroke-opacity:1"
       d="m 1238.429,396.62145 -13.4638,20.87942 7.0008,0 0,22.90468 -41.9386,0 0,12.31899 54.1593,0 0,-0.19976 0.098,0 0,-35.02391 6.7672,0 -12.6232,-20.87942 z"
       id="rect5728-2-9" />
    <path
       style="display:inline;opacity:1;fill:#fefefe;fill-opacity:1;stroke:#cdc9ca;stroke-width:0.70806885;stroke-linecap:round;stroke-linejoin:round;stroke-miterlimit:4;stroke-dasharray:none;stroke-opacity:1"
       d="m 1311.2778,446.75516 -20.8794,-13.46375 0,7.00078 -22.9047,0 0,-41.93864 -12.319,0 0,54.15928 0.1998,0 0,0.0983 35.0239,0 0,6.76721 20.8794,-12.62323 z"
       id="rect5728-7-9-3" />
    <path
       style="display:inline;opacity:1;fill:#fefefe;fill-opacity:1;stroke:#cdc9ca;stroke-width:0.70806885;stroke-linecap:round;stroke-linejoin:round;stroke-miterlimit:4;stroke-dasharray:none;stroke-opacity:1"
       d="m 1260.9661,519.91593 13.4637,-20.87942 -7.0007,0 0,-22.90468 41.9386,0 0,-12.31899 -54.1593,0 0,0.19976 -0.098,0 0,35.02391 -6.7672,0 12.6232,20.87942 z"
       id="rect5728-7-5-1-6" />
    <path
       style="display:inline;opacity:1;fill:#fefefe;fill-opacity:1;stroke:#cdc9ca;stroke-width:0.70806885;stroke-linecap:round;stroke-linejoin:round;stroke-miterlimit:4;stroke-dasharray:none;stroke-opacity:1"
       d="m 1188.2187,470.00154 20.8794,13.46376 0,-7.00079 22.9047,0 0,41.93865 12.3189,0 0,-54.15929 -0.1997,0 0,-0.0983 -35.0239,0 0,-6.76722 -20.8794,12.62323 z"
       id="rect5728-7-5-3-2-0" />
  </g>
</svg>
