<?xml version="1.0" encoding="UTF-8" standalone="no"?>
<svg
   xmlns:dc="http://purl.org/dc/elements/1.1/"
   xmlns:cc="http://creativecommons.org/ns#"
   xmlns:rdf="http://www.w3.org/1999/02/22-rdf-syntax-ns#"
   xmlns:svg="http://www.w3.org/2000/svg"
   xmlns="http://www.w3.org/2000/svg"
   version="1.1"
   id="svg4324"
   viewBox="0 0 198.4173 198.4173"
   height="55.997772mm"
   width="55.997772mm">
  <defs
     id="defs4326" />
  <metadata
     id="metadata4329">
    <rdf:RDF>
      <cc:Work
         rdf:about="">
        <dc:format>image/svg+xml</dc:format>
        <dc:type
           rdf:resource="http://purl.org/dc/dcmitype/StillImage" />
        <dc:title></dc:title>
      </cc:Work>
    </rdf:RDF>
  </metadata>
  <g
     transform="translate(1215.6372,-433.15358)"
     id="layer1">
    <g
       transform="translate(-1265.9976,-352.43773)"
       id="g8879">
      <rect
         style="opacity:1;fill:#14517c;fill-opacity:1;stroke:#cdc9ca;stroke-width:6;stroke-linecap:round;stroke-linejoin:round;stroke-miterlimit:4;stroke-dasharray:none;stroke-opacity:1"
         id="rect5885-1"
         width="192.4173"
         height="192.4173"
         x="53.360394"
         y="788.59131" />
      <g
         id="g8873">
        <path
           id="path5466-3-6-7-2-7-6"
           d="m 143.10147,944.29978 5e-5,-13.2514 -44.213553,0 0.598095,-16.75245 -30.494763,23.51191 28.864338,22.31301 0.567534,-15.82035 44.679569,-1.1e-4 z"
           style="display:inline;fill:#ffffff;fill-opacity:1;fill-rule:evenodd;stroke:#cdc9ca;stroke-width:1.88790882;stroke-linecap:round;stroke-linejoin:round;stroke-miterlimit:4;stroke-dasharray:none;stroke-opacity:1" />
        <path
           id="path5466-3-6-7-2-7-0-3"
           d="m 162.53235,876.57954 5e-5,-13.25143 -44.21357,0 0.59811,-16.75246 -30.494809,23.51191 28.864379,22.31301 0.56754,-15.82035 44.67956,-1e-4 z"
           style="display:inline;fill:#ffffff;fill-opacity:1;fill-rule:evenodd;stroke:#cdc9ca;stroke-width:1.88790882;stroke-linecap:round;stroke-linejoin:round;stroke-miterlimit:4;stroke-dasharray:none;stroke-opacity:1" />
        <path
           id="path5466-3-6-7-2-7-0-9-8"
           d="m 154.23319,829.28522 -1.3e-4,13.25139 44.21365,-3e-5 -0.59815,16.75249 30.49486,-23.5119 -28.86435,-22.31301 -0.56757,15.82035 -44.67962,9e-5 z"
           style="display:inline;fill:#ffffff;fill-opacity:1;fill-rule:evenodd;stroke:#cdc9ca;stroke-width:1.88790882;stroke-linecap:round;stroke-linejoin:round;stroke-miterlimit:4;stroke-dasharray:none;stroke-opacity:1" />
        <path
           id="path5466-3-6-7-2-7-0-9-3-5"
           d="m 138.53484,899.59334 -1.2e-4,13.2514 44.21364,-4e-5 -0.59814,16.75249 30.49485,-23.5119 -28.86434,-22.31302 -0.56757,15.82039 -44.67962,7e-5 z"
           style="display:inline;fill:#ffffff;fill-opacity:1;fill-rule:evenodd;stroke:#cdc9ca;stroke-width:1.88790882;stroke-linecap:round;stroke-linejoin:round;stroke-miterlimit:4;stroke-dasharray:none;stroke-opacity:1" />
      </g>
    </g>
  </g>
</svg>
