<?xml version="1.0" encoding="UTF-8" standalone="no"?>
<svg
   xmlns:dc="http://purl.org/dc/elements/1.1/"
   xmlns:cc="http://creativecommons.org/ns#"
   xmlns:rdf="http://www.w3.org/1999/02/22-rdf-syntax-ns#"
   xmlns:svg="http://www.w3.org/2000/svg"
   xmlns="http://www.w3.org/2000/svg"
   version="1.1"
   id="svg2"
   viewBox="0 0 477.15656 123.40899"
   height="34.828758mm"
   width="134.66418mm">
  <defs
     id="defs4">
    <clipPath
       clipPathUnits="userSpaceOnUse"
       id="clipPath18">
      <path
         d="m 6.998,7.392 h 109.08 V 96.455 H 6.998 Z"
         id="path16" />
    </clipPath>
    <clipPath
       clipPathUnits="userSpaceOnUse"
       id="clipPath44">
      <path
         d="m 61.723,52.808 c -3.456,0.157 -6.115,1.034 -8.175,2.303 v 0 c 1.395,-6.055 6.612,-9.029 6.864,-9.17 v 0 l 1.538,-0.848 c 11.768,0.786 18.656,8.383 18.656,18.317 v 0 2.153 C 77.809,56.437 71.299,52.377 61.723,52.808"
         id="path42" />
    </clipPath>
  </defs>
  <metadata
     id="metadata7">
    <rdf:RDF>
      <cc:Work
         rdf:about="">
        <dc:format>image/svg+xml</dc:format>
        <dc:type
           rdf:resource="http://purl.org/dc/dcmitype/StillImage" />
        <dc:title></dc:title>
      </cc:Work>
    </rdf:RDF>
  </metadata>
  <rect
     style="opacity:1;fill:#00a0df;fill-opacity:1;stroke:#008fc7;stroke-width:5.49655199;stroke-linecap:round;stroke-linejoin:round;stroke-miterlimit:2;stroke-dasharray:none;stroke-opacity:1"
     id="rect4136"
     width="471.66"
     height="117.91244"
     x="2.7482774"
     y="2.7482712"
     ry="7.5443735" />
  <g
     style="stroke:#008fc7;stroke-opacity:1"
     id="g4204"
     transform="translate(6.5112131,-1.3113022e-5)">
    <rect
       ry="1.6071428"
       y="32.608227"
       x="116.47546"
       height="15.152288"
       width="33.335033"
       id="rect4138"
       style="opacity:1;fill:#ffffff;fill-opacity:1;stroke:#008fc7;stroke-width:1;stroke-linecap:round;stroke-linejoin:round;stroke-miterlimit:2;stroke-dasharray:none;stroke-opacity:1" />
    <rect
       ry="1.6071428"
       y="75.648491"
       x="116.47546"
       height="15.152288"
       width="33.335033"
       id="rect4138-8"
       style="opacity:1;fill:#ffffff;fill-opacity:1;stroke:#008fc7;stroke-width:1;stroke-linecap:round;stroke-linejoin:round;stroke-miterlimit:2;stroke-dasharray:none;stroke-opacity:1" />
    <rect
       ry="1.6071428"
       y="32.608227"
       x="162.17134"
       height="15.152288"
       width="33.335033"
       id="rect4138-2"
       style="opacity:1;fill:#ffffff;fill-opacity:1;stroke:#008fc7;stroke-width:1;stroke-linecap:round;stroke-linejoin:round;stroke-miterlimit:2;stroke-dasharray:none;stroke-opacity:1" />
    <rect
       ry="1.6071428"
       y="75.648491"
       x="162.17134"
       height="15.152288"
       width="33.335033"
       id="rect4138-8-6"
       style="opacity:1;fill:#ffffff;fill-opacity:1;stroke:#008fc7;stroke-width:1;stroke-linecap:round;stroke-linejoin:round;stroke-miterlimit:2;stroke-dasharray:none;stroke-opacity:1" />
    <rect
       ry="1.6071428"
       y="32.608227"
       x="207.8672"
       height="15.152288"
       width="33.335033"
       id="rect4138-2-4"
       style="opacity:1;fill:#ffffff;fill-opacity:1;stroke:#008fc7;stroke-width:1;stroke-linecap:round;stroke-linejoin:round;stroke-miterlimit:2;stroke-dasharray:none;stroke-opacity:1" />
    <rect
       ry="1.6071428"
       y="75.648491"
       x="207.8672"
       height="15.152288"
       width="33.335033"
       id="rect4138-8-6-5"
       style="opacity:1;fill:#ffffff;fill-opacity:1;stroke:#008fc7;stroke-width:1;stroke-linecap:round;stroke-linejoin:round;stroke-miterlimit:2;stroke-dasharray:none;stroke-opacity:1" />
    <rect
       ry="1.6071428"
       y="32.608227"
       x="253.5631"
       height="15.152288"
       width="33.335033"
       id="rect4138-2-4-4"
       style="opacity:1;fill:#ffffff;fill-opacity:1;stroke:#008fc7;stroke-width:1;stroke-linecap:round;stroke-linejoin:round;stroke-miterlimit:2;stroke-dasharray:none;stroke-opacity:1" />
    <rect
       ry="1.6071428"
       y="75.648491"
       x="253.5631"
       height="15.152288"
       width="33.335033"
       id="rect4138-8-6-5-6"
       style="opacity:1;fill:#ffffff;fill-opacity:1;stroke:#008fc7;stroke-width:1;stroke-linecap:round;stroke-linejoin:round;stroke-miterlimit:2;stroke-dasharray:none;stroke-opacity:1" />
    <rect
       ry="1.6071428"
       y="32.608227"
       x="299.25903"
       height="15.152288"
       width="33.335033"
       id="rect4138-2-4-4-5"
       style="opacity:1;fill:#ffffff;fill-opacity:1;stroke:#008fc7;stroke-width:1;stroke-linecap:round;stroke-linejoin:round;stroke-miterlimit:2;stroke-dasharray:none;stroke-opacity:1" />
    <rect
       ry="1.6071428"
       y="75.648491"
       x="299.25903"
       height="15.152288"
       width="33.335033"
       id="rect4138-8-6-5-6-6"
       style="opacity:1;fill:#ffffff;fill-opacity:1;stroke:#008fc7;stroke-width:1;stroke-linecap:round;stroke-linejoin:round;stroke-miterlimit:2;stroke-dasharray:none;stroke-opacity:1" />
    <rect
       ry="1.6071428"
       y="32.608227"
       x="25.083681"
       height="15.152288"
       width="33.335033"
       id="rect4138-2-3"
       style="opacity:1;fill:#ffffff;fill-opacity:1;stroke:#008fc7;stroke-width:1;stroke-linecap:round;stroke-linejoin:round;stroke-miterlimit:2;stroke-dasharray:none;stroke-opacity:1" />
    <rect
       ry="1.6071428"
       y="75.648491"
       x="25.083681"
       height="15.152288"
       width="33.335033"
       id="rect4138-8-6-9"
       style="opacity:1;fill:#ffffff;fill-opacity:1;stroke:#008fc7;stroke-width:1;stroke-linecap:round;stroke-linejoin:round;stroke-miterlimit:2;stroke-dasharray:none;stroke-opacity:1" />
    <rect
       ry="1.6071428"
       y="32.608227"
       x="70.779572"
       height="15.152288"
       width="33.335033"
       id="rect4138-2-4-2"
       style="opacity:1;fill:#ffffff;fill-opacity:1;stroke:#008fc7;stroke-width:1;stroke-linecap:round;stroke-linejoin:round;stroke-miterlimit:2;stroke-dasharray:none;stroke-opacity:1" />
    <rect
       ry="1.6071428"
       y="75.648491"
       x="70.779572"
       height="15.152288"
       width="33.335033"
       id="rect4138-8-6-5-63"
       style="opacity:1;fill:#ffffff;fill-opacity:1;stroke:#008fc7;stroke-width:1;stroke-linecap:round;stroke-linejoin:round;stroke-miterlimit:2;stroke-dasharray:none;stroke-opacity:1" />
  </g>
  <g
     style="fill:#fcfcfc;fill-opacity:1"
     transform="matrix(1.3126414,0,0,1.3126414,379.95286,20.934554)"
     id="g893">
    <g
       style="fill:#fcfcfc;fill-opacity:1"
       id="g12"
       transform="matrix(1.3333333,0,0,-1.3333333,-52.269332,122.14666)">
      <g
         style="fill:#fcfcfc;fill-opacity:1"
         id="g14"
         clip-path="url(#clipPath18)">
        <g
           style="fill:#fcfcfc;fill-opacity:1"
           id="g20"
           transform="translate(79.6021,65.8706)">
          <path
             d="m 0,0 1.004,3.275 v 22.437 c -11.734,0 -12.956,-4.499 -12.956,-8.796 v -24.64 c 0,-1.276 -0.124,-2.629 -0.382,-3.956 C -6.112,-10.547 -2.053,-6.701 0,0"
             style="fill:#fcfcfc;fill-opacity:1;fill-rule:nonzero;stroke:none"
             id="path22" />
        </g>
        <path
           d="m 49.566,86.46 h -2.593 v 2.561 h 2.593 z"
           style="fill:#fcfcfc;fill-opacity:1;fill-rule:nonzero;stroke:none"
           id="path24" />
        <path
           d="m 52.156,82.59 h -2.59 v 2.563 h 2.59 z"
           style="fill:#fcfcfc;fill-opacity:1;fill-rule:nonzero;stroke:none"
           id="path26" />
        <path
           d="m 49.551,79.367 h -2.563 v 2.562 h 2.563 z"
           style="fill:#fcfcfc;fill-opacity:1;fill-rule:nonzero;stroke:none"
           id="path28" />
        <path
           d="m 46.96,75.525 h -2.562 v 2.562 h 2.562 z"
           style="fill:#fcfcfc;fill-opacity:1;fill-rule:nonzero;stroke:none"
           id="path30" />
        <path
           d="m 41.792,89.021 h -2.59 v 2.589 h 2.59 z"
           style="fill:#fcfcfc;fill-opacity:1;fill-rule:nonzero;stroke:none"
           id="path32" />
        <g
           style="fill:#fcfcfc;fill-opacity:1"
           id="g34"
           transform="translate(44.3853,72.9648)">
          <path
             d="m 0,0 h 2.587 v -5.707 h 2.594 v 9.548 h 2.59 v -18.659 c 0,-8.855 7.749,-13.126 7.749,-13.126 -13.017,0 -20.703,7.891 -20.703,18.39 V 11.56 h 2.589 V -2.562 H 0 Z"
             style="fill:#fcfcfc;fill-opacity:1;fill-rule:nonzero;stroke:none"
             id="path36" />
        </g>
      </g>
    </g>
    <g
       style="fill:#fcfcfc;fill-opacity:1"
       id="g38"
       transform="matrix(1.3333333,0,0,-1.3333333,-52.269332,122.14666)">
      <g
         style="fill:#fcfcfc;fill-opacity:1"
         id="g40"
         clip-path="url(#clipPath44)">
        <g
           style="fill:#fcfcfc;fill-opacity:1"
           id="g46">
          <g
             style="fill:#fcfcfc;fill-opacity:1"
             id="g48">
            <path
               d="m 61.723,52.808 c -3.456,0.157 -6.115,1.034 -8.175,2.303 v 0 c 1.395,-6.055 6.612,-9.029 6.864,-9.17 v 0 l 1.538,-0.848 c 11.768,0.786 18.656,8.383 18.656,18.317 v 0 2.153 C 77.809,56.437 71.299,52.377 61.723,52.808"
               style="fill:#fcfcfc;fill-opacity:1;stroke:none"
               id="path56" />
          </g>
        </g>
      </g>
    </g>
    <path
       d="M 10.341333,10.317337 H 6.928 V 6.9013372 h 3.413333 z"
       style="fill:#fcfcfc;fill-opacity:1;fill-rule:nonzero;stroke:none;stroke-width:1.33333325"
       id="path58" />
  </g>
</svg>
