<?xml version="1.0" encoding="UTF-8" standalone="no"?>
<svg
   xmlns:dc="http://purl.org/dc/elements/1.1/"
   xmlns:cc="http://creativecommons.org/ns#"
   xmlns:rdf="http://www.w3.org/1999/02/22-rdf-syntax-ns#"
   xmlns:svg="http://www.w3.org/2000/svg"
   xmlns="http://www.w3.org/2000/svg"
   version="1.1"
   id="svg5665"
   viewBox="0 0 82.437119 82.437118"
   height="23.265587mm"
   width="23.265587mm">
  <defs
     id="defs5667" />
  <metadata
     id="metadata5670">
    <rdf:RDF>
      <cc:Work
         rdf:about="">
        <dc:format>image/svg+xml</dc:format>
        <dc:type
           rdf:resource="http://purl.org/dc/dcmitype/StillImage" />
        <dc:title></dc:title>
      </cc:Work>
    </rdf:RDF>
  </metadata>
  <g
     transform="translate(-267.35288,-319.71508)"
     id="layer1">
    <g
       transform="translate(-485.56321,-186.26888)"
       id="g4497">
      <circle
         style="opacity:1;fill:#348bc3;fill-opacity:1;stroke:#257db6;stroke-width:1.66582286;stroke-linecap:round;stroke-linejoin:round;stroke-miterlimit:4;stroke-dasharray:none;stroke-opacity:1"
         id="path4429"
         cx="794.13464"
         cy="547.20251"
         r="40.385647" />
      <g
         id="g4491">
        <path
           id="rect4431"
           transform="translate(0,308.26772)"
           d="m 776.19141,213.91406 -7.16993,7.35352 12.9668,12.8125 -3.09766,3.10742 13.25782,0 0,-13.38477 -2.9336,2.98047 -13.02343,-12.86914 z"
           style="opacity:1;fill:#fbfdff;fill-opacity:1;stroke:#257db6;stroke-width:0.5;stroke-linecap:round;stroke-linejoin:round;stroke-miterlimit:4;stroke-dasharray:none;stroke-dashoffset:0;stroke-opacity:1" />
        <path
           id="rect4431-8"
           d="m 811.75797,571.92837 7.16993,-7.35352 -12.9668,-12.8125 3.09766,-3.10742 -13.25782,0 0,13.38477 2.9336,-2.98047 13.02343,12.86914 z"
           style="opacity:1;fill:#fbfdff;fill-opacity:1;stroke:#257db6;stroke-width:0.5;stroke-linecap:round;stroke-linejoin:round;stroke-miterlimit:4;stroke-dasharray:none;stroke-dashoffset:0;stroke-opacity:1" />
        <path
           id="rect4431-8-8"
           d="m 790.74883,550.51372 -0.47502,-0.51465 -6.59039,0.43735 -8.33171,8.43205 -3.10742,-3.09766 0,13.25782 13.38477,0 -2.98047,-2.9336 8.79942,-8.90491 z"
           style="opacity:1;fill:#fbfdff;fill-opacity:1;stroke:#257db6;stroke-width:0.5;stroke-linecap:round;stroke-linejoin:round;stroke-miterlimit:4;stroke-dasharray:none;stroke-dashoffset:0;stroke-opacity:1" />
        <path
           id="rect4431-8-8-7"
           d="m 797.45159,543.15409 0.47502,0.51465 6.59039,-0.43735 8.33171,-8.43205 3.10742,3.09766 0,-13.25782 -13.38477,0 2.98047,2.9336 -8.79942,8.90491 z"
           style="opacity:1;fill:#fbfdff;fill-opacity:1;stroke:#257db6;stroke-width:0.5;stroke-linecap:round;stroke-linejoin:round;stroke-miterlimit:4;stroke-dasharray:none;stroke-dashoffset:0;stroke-opacity:1" />
      </g>
    </g>
  </g>
</svg>
