<?xml version="1.0" encoding="UTF-8" standalone="no"?>
<svg
   xmlns:dc="http://purl.org/dc/elements/1.1/"
   xmlns:cc="http://creativecommons.org/ns#"
   xmlns:rdf="http://www.w3.org/1999/02/22-rdf-syntax-ns#"
   xmlns:svg="http://www.w3.org/2000/svg"
   xmlns="http://www.w3.org/2000/svg"
   width="41.337708mm"
   height="41.337708mm"
   viewBox="0 0 146.47219 146.47219"
   id="svg5034"
   version="1.1">
  <defs
     id="defs5036" />
  <metadata
     id="metadata5039">
    <rdf:RDF>
      <cc:Work
         rdf:about="">
        <dc:format>image/svg+xml</dc:format>
        <dc:type
           rdf:resource="http://purl.org/dc/dcmitype/StillImage" />
        <dc:title></dc:title>
      </cc:Work>
    </rdf:RDF>
  </metadata>
  <g
     id="layer1"
     transform="matrix(1.8341777,0,0,1.8341777,-545.14382,-866.52724)">
    <g
       id="g4425"
       transform="translate(55.39539,-33.071389)">
      <circle
         r="38.92857"
         cy="545.43359"
         cx="281.74747"
         id="path4153"
         style="opacity:1;fill:#37b29b;fill-opacity:1;stroke:#29a58d;stroke-width:2;stroke-linecap:round;stroke-linejoin:round;stroke-miterlimit:4;stroke-dasharray:none;stroke-opacity:1" />
      <path
         id="path4153-1"
         transform="translate(0,308.26772)"
         d="m 282.08594,207.93164 a 5.833117,5.833117 0 0 0 -5.83399,5.83203 5.833117,5.833117 0 0 0 4.31836,5.62695 v 8.75 a 9.9999962,9.9999962 0 0 0 -7.24023,5.32227 l -8.1836,-2.48633 a 5.833117,5.833117 0 0 0 0.043,-0.67187 5.833117,5.833117 0 0 0 -5.83203,-5.83203 5.833117,5.833117 0 0 0 -5.83398,5.83203 5.833117,5.833117 0 0 0 5.83398,5.83398 5.833117,5.833117 0 0 0 4.66016,-2.33594 l 8.36133,2.54102 a 9.9999962,9.9999962 0 0 0 -0.14844,1.6582 9.9999962,9.9999962 0 0 0 3.11523,7.23633 l -5.48047,6.33594 a 5.833117,5.833117 0 0 0 -1.92187,-0.33203 5.833117,5.833117 0 0 0 -5.83398,5.83203 5.833117,5.833117 0 0 0 5.83398,5.83398 5.833117,5.833117 0 0 0 5.83203,-5.83398 5.833117,5.833117 0 0 0 -1.39453,-3.77344 l 5.4707,-6.32226 a 9.9999962,9.9999962 0 0 0 4.37891,1.02343 9.9999962,9.9999962 0 0 0 4.03906,-0.86523 l 5.53125,7.13476 a 5.833117,5.833117 0 0 0 -1.02734,3.3086 5.833117,5.833117 0 0 0 5.83203,5.83203 5.833117,5.833117 0 0 0 5.83398,-5.83203 5.833117,5.833117 0 0 0 -5.83398,-5.83399 5.833117,5.833117 0 0 0 -2.34766,0.50196 l -5.3125,-6.85157 a 9.9999962,9.9999962 0 0 0 3.28321,-7.39453 9.9999962,9.9999962 0 0 0 -0.18164,-1.86133 l 7.85742,-2.77929 a 5.833117,5.833117 0 0 0 5.03515,2.90429 5.833117,5.833117 0 0 0 5.83399,-5.83398 5.833117,5.833117 0 0 0 -5.83399,-5.83203 5.833117,5.833117 0 0 0 -5.83203,5.83203 5.833117,5.833117 0 0 0 0.002,0.0547 l -8.04493,2.8457 a 9.9999962,9.9999962 0 0 0 -7.33789,-5.20508 v -8.76953 a 5.833117,5.833117 0 0 0 4.19141,-5.59375 5.833117,5.833117 0 0 0 -5.83203,-5.83203 z"
         style="opacity:1;fill:#f9fbfa;fill-opacity:1;stroke:#29a58d;stroke-width:0.5;stroke-linecap:round;stroke-linejoin:round;stroke-miterlimit:4;stroke-dasharray:none;stroke-opacity:1" />
    </g>
  </g>
</svg>
