<?xml version="1.0" encoding="UTF-8" standalone="no"?>
<svg
   xmlns:dc="http://purl.org/dc/elements/1.1/"
   xmlns:cc="http://creativecommons.org/ns#"
   xmlns:rdf="http://www.w3.org/1999/02/22-rdf-syntax-ns#"
   xmlns:svg="http://www.w3.org/2000/svg"
   xmlns="http://www.w3.org/2000/svg"
   version="1.1"
   id="svg4138"
   viewBox="0 0 477.15656 123.40899"
   height="34.828758mm"
   width="134.66418mm">
  <defs
     id="defs4140" />
  <metadata
     id="metadata4143">
    <rdf:RDF>
      <cc:Work
         rdf:about="">
        <dc:format>image/svg+xml</dc:format>
        <dc:type
           rdf:resource="http://purl.org/dc/dcmitype/StillImage" />
        <dc:title></dc:title>
      </cc:Work>
    </rdf:RDF>
  </metadata>
  <rect
     style="opacity:1;fill:#396c85;fill-opacity:1;stroke:#314b58;stroke-width:5.49655199;stroke-linecap:round;stroke-linejoin:round;stroke-miterlimit:2;stroke-dasharray:none;stroke-opacity:1"
     id="rect4136-8"
     width="471.66"
     height="117.91244"
     x="2.748276"
     y="2.748276"
     ry="7.5443735" />
  <g
     id="g5640"
     transform="matrix(-0.03430523,-1.2435062,1.0398073,-0.03951242,231.07175,834.03859)">
    <path
       id="path5466-3-6-7-2-7-67"
       d="m 619.29465,224.50058 2e-5,-8.59444 -23.06072,0 0.31195,-10.86511 -15.90533,15.24908 15.05495,14.47151 0.29601,-10.26058 23.30378,-6e-5 z"
       style="display:inline;fill:#ffffff;fill-opacity:1;fill-rule:evenodd;stroke:#314b58;stroke-width:1.09803855;stroke-linecap:round;stroke-linejoin:round;stroke-miterlimit:4;stroke-dasharray:none;stroke-opacity:1" />
    <path
       id="path5466-3-6-7-2-7-0-5"
       d="m 619.29466,188.3622 3e-5,-8.59446 -23.06073,0 0.31196,-10.86511 -15.90535,15.24907 15.05496,14.47152 0.29601,-10.26058 23.30379,-7e-5 z"
       style="display:inline;fill:#ffffff;fill-opacity:1;fill-rule:evenodd;stroke:#314b58;stroke-width:1.09803855;stroke-linecap:round;stroke-linejoin:round;stroke-miterlimit:4;stroke-dasharray:none;stroke-opacity:1" />
    <path
       id="path5466-3-6-7-2-7-0-9-35"
       d="m 611.10068,161.64621 -6e-5,8.59444 23.06076,-2e-5 -0.31197,10.86513 15.90537,-15.24908 -15.05495,-14.47151 -0.29602,10.26058 -23.30381,7e-5 z"
       style="display:inline;fill:#ffffff;fill-opacity:1;fill-rule:evenodd;stroke:#314b58;stroke-width:1.09803855;stroke-linecap:round;stroke-linejoin:round;stroke-miterlimit:4;stroke-dasharray:none;stroke-opacity:1" />
    <path
       id="path5466-3-6-7-2-7-0-9-3-6"
       d="m 611.10069,199.46301 -7e-5,8.59444 23.06077,-2e-5 -0.31198,10.86513 15.90537,-15.24907 -15.05494,-14.47152 -0.29603,10.2606 -23.3038,5e-5 z"
       style="display:inline;fill:#ffffff;fill-opacity:1;fill-rule:evenodd;stroke:#314b58;stroke-width:1.09803855;stroke-linecap:round;stroke-linejoin:round;stroke-miterlimit:4;stroke-dasharray:none;stroke-opacity:1" />
  </g>
</svg>
