<?xml version="1.0" encoding="UTF-8" standalone="no"?>
<svg
   xmlns:dc="http://purl.org/dc/elements/1.1/"
   xmlns:cc="http://creativecommons.org/ns#"
   xmlns:rdf="http://www.w3.org/1999/02/22-rdf-syntax-ns#"
   xmlns:svg="http://www.w3.org/2000/svg"
   xmlns="http://www.w3.org/2000/svg"
   width="134.66418mm"
   height="34.828758mm"
   viewBox="0 0 477.15656 123.40899"
   id="svg7778"
   version="1.1">
  <defs
     id="defs7780" />
  <metadata
     id="metadata7783">
    <rdf:RDF>
      <cc:Work
         rdf:about="">
        <dc:format>image/svg+xml</dc:format>
        <dc:type
           rdf:resource="http://purl.org/dc/dcmitype/StillImage" />
        <dc:title></dc:title>
      </cc:Work>
    </rdf:RDF>
  </metadata>
  <rect
     style="opacity:1;fill:#e21d38;fill-opacity:1;stroke:#4f4f4f;stroke-width:5.49655199;stroke-linecap:round;stroke-linejoin:round;stroke-miterlimit:2;stroke-dasharray:none;stroke-opacity:1"
     id="rect4136-7"
     width="471.66"
     height="117.91244"
     x="2.748276"
     y="2.748276"
     ry="7.5443735" />
  <g
     style="stroke:#4f4f4f;stroke-opacity:1"
     id="g4179-9-2"
     transform="translate(-0.89182315,-1.5806503e-5)">
    <rect
       style="opacity:1;fill:#ffffff;fill-opacity:1;stroke:#4f4f4f;stroke-width:1;stroke-linecap:round;stroke-linejoin:round;stroke-miterlimit:2;stroke-dasharray:none;stroke-opacity:1"
       id="rect4138-7-4-4"
       width="33.335033"
       height="15.152288"
       x="124.47543"
       y="32.608231"
       ry="1.6071428" />
    <rect
       style="opacity:1;fill:#ffffff;fill-opacity:1;stroke:#4f4f4f;stroke-width:1;stroke-linecap:round;stroke-linejoin:round;stroke-miterlimit:2;stroke-dasharray:none;stroke-opacity:1"
       id="rect4138-8-8-8-3"
       width="33.335033"
       height="15.152288"
       x="124.47543"
       y="75.648483"
       ry="1.6071428" />
    <rect
       style="opacity:1;fill:#ffffff;fill-opacity:1;stroke:#4f4f4f;stroke-width:1;stroke-linecap:round;stroke-linejoin:round;stroke-miterlimit:2;stroke-dasharray:none;stroke-opacity:1"
       id="rect4138-2-0-1-2"
       width="33.335033"
       height="15.152288"
       x="170.17136"
       y="32.608231"
       ry="1.6071428" />
    <rect
       style="opacity:1;fill:#ffffff;fill-opacity:1;stroke:#4f4f4f;stroke-width:1;stroke-linecap:round;stroke-linejoin:round;stroke-miterlimit:2;stroke-dasharray:none;stroke-opacity:1"
       id="rect4138-8-6-8-2-4"
       width="33.335033"
       height="15.152288"
       x="170.17136"
       y="75.648483"
       ry="1.6071428" />
    <rect
       style="opacity:1;fill:#ffffff;fill-opacity:1;stroke:#4f4f4f;stroke-width:1;stroke-linecap:round;stroke-linejoin:round;stroke-miterlimit:2;stroke-dasharray:none;stroke-opacity:1"
       id="rect4138-2-4-1-8-9"
       width="33.335033"
       height="15.152288"
       x="215.86722"
       y="32.608231"
       ry="1.6071428" />
    <rect
       style="opacity:1;fill:#ffffff;fill-opacity:1;stroke:#4f4f4f;stroke-width:1;stroke-linecap:round;stroke-linejoin:round;stroke-miterlimit:2;stroke-dasharray:none;stroke-opacity:1"
       id="rect4138-8-6-5-8-2-4"
       width="33.335033"
       height="15.152288"
       x="215.86722"
       y="75.648483"
       ry="1.6071428" />
    <rect
       style="opacity:1;fill:#ffffff;fill-opacity:1;stroke:#4f4f4f;stroke-width:1;stroke-linecap:round;stroke-linejoin:round;stroke-miterlimit:2;stroke-dasharray:none;stroke-opacity:1"
       id="rect4138-2-4-4-9-3-5"
       width="33.335033"
       height="15.152288"
       x="261.56308"
       y="32.608231"
       ry="1.6071428" />
    <rect
       style="opacity:1;fill:#ffffff;fill-opacity:1;stroke:#4f4f4f;stroke-width:1;stroke-linecap:round;stroke-linejoin:round;stroke-miterlimit:2;stroke-dasharray:none;stroke-opacity:1"
       id="rect4138-8-6-5-6-2-0-0"
       width="33.335033"
       height="15.152288"
       x="261.56308"
       y="75.648483"
       ry="1.6071428" />
    <rect
       style="opacity:1;fill:#ffffff;fill-opacity:1;stroke:#4f4f4f;stroke-width:1;stroke-linecap:round;stroke-linejoin:round;stroke-miterlimit:2;stroke-dasharray:none;stroke-opacity:1"
       id="rect4138-2-4-4-5-5-7-1"
       width="33.335033"
       height="15.152288"
       x="307.259"
       y="32.608231"
       ry="1.6071428" />
    <rect
       style="opacity:1;fill:#ffffff;fill-opacity:1;stroke:#4f4f4f;stroke-width:1;stroke-linecap:round;stroke-linejoin:round;stroke-miterlimit:2;stroke-dasharray:none;stroke-opacity:1"
       id="rect4138-8-6-5-6-6-7-5-7"
       width="33.335033"
       height="15.152288"
       x="307.259"
       y="75.648483"
       ry="1.6071428" />
    <rect
       style="opacity:1;fill:#ffffff;fill-opacity:1;stroke:#4f4f4f;stroke-width:1;stroke-linecap:round;stroke-linejoin:round;stroke-miterlimit:2;stroke-dasharray:none;stroke-opacity:1"
       id="rect4138-2-3-4-2-9"
       width="33.335033"
       height="15.152288"
       x="33.083664"
       y="32.608231"
       ry="1.6071428" />
    <rect
       style="opacity:1;fill:#ffffff;fill-opacity:1;stroke:#4f4f4f;stroke-width:1;stroke-linecap:round;stroke-linejoin:round;stroke-miterlimit:2;stroke-dasharray:none;stroke-opacity:1"
       id="rect4138-8-6-9-3-8-0"
       width="33.335033"
       height="15.152288"
       x="33.083664"
       y="75.648483"
       ry="1.6071428" />
    <rect
       style="opacity:1;fill:#ffffff;fill-opacity:1;stroke:#4f4f4f;stroke-width:1;stroke-linecap:round;stroke-linejoin:round;stroke-miterlimit:2;stroke-dasharray:none;stroke-opacity:1"
       id="rect4138-2-4-2-2-2-0"
       width="33.335033"
       height="15.152288"
       x="78.779556"
       y="32.608231"
       ry="1.6071428" />
    <rect
       style="opacity:1;fill:#ffffff;fill-opacity:1;stroke:#4f4f4f;stroke-width:1;stroke-linecap:round;stroke-linejoin:round;stroke-miterlimit:2;stroke-dasharray:none;stroke-opacity:1"
       id="rect4138-8-6-5-63-5-0-8"
       width="33.335033"
       height="15.152288"
       x="78.779556"
       y="75.648483"
       ry="1.6071428" />
  </g>
  <path
     id="path4150"
     d="m 409.62405,17.000584 c -1.05716,0.026 -2.10584,0.46932 -2.80975,1.28313 l -12.19779,14.10226 c -1.20133,1.38892 -0.93017,3.31485 0.60797,4.31804 l 0.22138,0.14428 c 1.53814,1.0032 3.74356,0.69281 4.94491,-0.69611 l 5.51128,-6.37204 0,16.51787 c 0,0.16258 0.008,0.3229 0.0212,0.48083 a 16.649754,16.470726 0 0 0 -11.10257,8.36176 l -15.5611,-5.42488 8.87752,-3.52186 c 1.70697,-0.67718 2.72593,-2.65755 2.28497,-4.44021 l -0.0635,-0.25658 c -0.44095,-1.78265 -2.17036,-2.6727 -3.87733,-1.99552 l -17.33148,6.87586 c -1.07274,0.42558 -1.87303,1.36605 -2.2108,2.44845 -0.002,0.006 -0.006,0.0113 -0.007,0.0168 -0.40116,1.05392 -0.35581,2.28044 0.21672,3.27518 l 9.30106,16.16005 c 0.91603,1.59161 2.82397,1.96956 4.27759,0.84738 l 0.20916,-0.16145 c 1.45361,-1.12218 1.88645,-3.30677 0.97042,-4.89837 l -4.20283,-7.30173 15.1966,5.29775 a 16.649754,16.470726 0 0 0 -0.0279,0.78601 16.649754,16.470726 0 0 0 13.11758,16.0754 l 0,7.88441 a 10.073323,9.9650079 0 0 0 -6.34644,9.25392 10.073323,9.9650079 0 0 0 10.07309,9.964866 10.073323,9.9650079 0 0 0 10.07338,-9.964866 10.073323,9.9650079 0 0 0 -6.77871,-9.40519 l 0,-7.71162 a 16.649754,16.470726 0 0 0 13.16064,-16.09692 16.649754,16.470726 0 0 0 -0.0672,-1.32503 l 16.35291,-5.77977 -4.7282,8.29776 c -0.9092,1.5955 -0.46705,3.77835 0.99137,4.89429 l 0.20974,0.16058 c 1.45842,1.11593 3.36491,0.72981 4.2741,-0.86571 l 9.23125,-16.1999 c 0.57138,-1.0027 0.60835,-2.23717 0.19548,-3.29322 -0.001,-0.007 -0.003,-0.0116 -0.005,-0.0174 -0.34558,-1.07343 -1.14765,-2.00246 -2.21631,-2.42111 l -17.36118,-6.80145 c -1.70985,-0.66984 -3.43532,0.22759 -3.8686,2.01212 l -0.0623,0.25685 c -0.43329,1.78454 0.59432,3.76048 2.30419,4.43033 l 7.84424,3.07301 -15.30278,5.4086 a 16.649754,16.470726 0 0 0 -10.91523,-7.90622 c 0.0133,-0.15548 0.0203,-0.31331 0.0203,-0.47328 l 0,-17.36902 6.24783,7.2232 c 1.20133,1.38892 3.40675,1.69931 4.9449,0.69611 l 0.22139,-0.14428 c 1.53813,-1.00319 1.8093,-2.92913 0.60796,-4.31804 l -12.198,-14.10224 c -0.75498,-0.87287 -1.90658,-1.31904 -3.03984,-1.28169 -0.006,-1.4e-4 -0.0122,-7.6e-4 -0.0184,-7.6e-4 -0.0704,-0.002 -0.141,-0.002 -0.21148,-3e-4 z m -0.10157,35.88181 a 10.073323,9.9650079 0 0 1 10.07309,9.96516 10.073323,9.9650079 0 0 1 -10.07309,9.96488 10.073323,9.9650079 0 0 1 -10.07337,-9.96488 10.073323,9.9650079 0 0 1 10.07337,-9.96516 z"
     style="opacity:1;fill:#ffffff;fill-opacity:1;stroke:#4f4f4f;stroke-width:1.83184791;stroke-linecap:round;stroke-linejoin:round;stroke-miterlimit:4;stroke-dasharray:none;stroke-opacity:1" />
</svg>
