<?xml version="1.0" encoding="UTF-8" standalone="no"?>
<svg
   xmlns:dc="http://purl.org/dc/elements/1.1/"
   xmlns:cc="http://creativecommons.org/ns#"
   xmlns:rdf="http://www.w3.org/1999/02/22-rdf-syntax-ns#"
   xmlns:svg="http://www.w3.org/2000/svg"
   xmlns="http://www.w3.org/2000/svg"
   version="1.1"
   id="svg7778"
   viewBox="0 0 477.15656 123.40899"
   height="34.828758mm"
   width="134.66418mm">
  <defs
     id="defs7780" />
  <metadata
     id="metadata7783">
    <rdf:RDF>
      <cc:Work
         rdf:about="">
        <dc:format>image/svg+xml</dc:format>
        <dc:type
           rdf:resource="http://purl.org/dc/dcmitype/StillImage" />
        <dc:title></dc:title>
      </cc:Work>
    </rdf:RDF>
  </metadata>
  <rect
     style="opacity:1;fill:#a1a2a3;fill-opacity:1;stroke:#4f4f4f;stroke-width:5.49655199;stroke-linecap:round;stroke-linejoin:round;stroke-miterlimit:2;stroke-dasharray:none;stroke-opacity:1"
     id="rect4136"
     width="471.66"
     height="117.91244"
     x="2.7482717"
     y="2.7482769"
     ry="7.5443735" />
  <path
     style="opacity:1;fill:#ffffff;fill-opacity:1;stroke:#4f4f4f;stroke-width:1.76563156;stroke-linecap:round;stroke-linejoin:round;stroke-miterlimit:4;stroke-dasharray:none;stroke-opacity:1"
     d="m 408.95671,18.280707 c -1.01895,0.02501 -2.02972,0.452355 -2.70819,1.236748 l -11.75687,13.59251 c -1.15791,1.338704 -0.89655,3.195013 0.58599,4.161949 l 0.21338,0.139065 c 1.48254,0.966935 3.60824,0.667765 4.76617,-0.670947 l 5.31206,-6.14171 0,15.920783 c 0,0.156707 0.008,0.311235 0.0205,0.463464 a 16.047911,15.875353 0 0 0 -10.70124,8.059498 l -14.99861,-5.228787 8.55662,-3.394556 c 1.64527,-0.652699 2.62739,-2.56149 2.20238,-4.279705 l -0.0612,-0.247299 c -0.42501,-1.718216 -2.0919,-2.576095 -3.73717,-1.923396 l -16.705,6.62732 c -1.03396,0.41019 -1.80532,1.316678 -2.13089,2.359951 -0.002,0.0052 -0.005,0.01078 -0.007,0.01628 -0.38666,1.015827 -0.34295,2.198002 0.20889,3.156791 l 8.96485,15.575908 c 0.88292,1.534067 2.7219,1.898361 4.12297,0.816746 l 0.20159,-0.155611 c 1.40107,-1.081615 1.81827,-3.18724 0.93534,-4.721307 l -4.05091,-7.037795 14.64729,5.10626 a 16.047911,15.875353 0 0 0 -0.0269,0.757589 16.047911,15.875353 0 0 0 12.64342,15.494321 l 0,7.599404 a 9.7091996,9.6047998 0 0 0 -6.11703,8.919423 9.7091996,9.6047998 0 0 0 9.70897,9.604666 9.7091996,9.6047998 0 0 0 9.70926,-9.604666 9.7091996,9.6047998 0 0 0 -6.53369,-9.065223 l 0,-7.432862 a 16.047911,15.875353 0 0 0 12.68492,-15.515063 16.047911,15.875353 0 0 0 -0.0648,-1.277127 l 15.7618,-5.570853 -4.55729,7.997817 c -0.87633,1.537837 -0.45017,3.641782 0.95554,4.717378 l 0.20216,0.154768 c 1.4057,1.075597 3.24327,0.703433 4.1196,-0.834405 l 8.89756,-15.614323 c 0.55073,-0.966458 0.58636,-2.156301 0.18842,-3.174173 -0.001,-0.006 -0.003,-0.01121 -0.004,-0.0168 -0.33309,-1.034628 -1.10617,-1.930079 -2.1362,-2.333594 l -16.73362,-6.55559 c -1.64804,-0.645627 -3.31114,0.219361 -3.72876,1.939382 l -0.06,0.247577 c -0.41763,1.720028 0.57283,3.624542 2.22089,4.270176 l 7.56069,2.961929 -14.74962,5.213093 a 16.047911,15.875353 0 0 0 -10.52067,-7.620428 c 0.0128,-0.149861 0.0196,-0.301992 0.0196,-0.456176 l 0,-16.741172 6.02198,6.962099 c 1.15791,1.338712 3.28362,1.637882 4.76617,0.670947 l 0.21338,-0.139065 c 1.48254,-0.966936 1.74389,-2.823245 0.58598,-4.161949 l -11.75707,-13.59251 c -0.72769,-0.841311 -1.83766,-1.271363 -2.92996,-1.235352 -0.005,-1.43e-4 -0.0118,-7.47e-4 -0.0178,-7.47e-4 -0.0678,-0.0023 -0.13591,-0.0023 -0.20384,-2.77e-4 z m -0.0979,34.584781 a 9.7091996,9.6047998 0 0 1 9.70898,9.60495 9.7091996,9.6047998 0 0 1 -9.70898,9.604668 9.7091996,9.6047998 0 0 1 -9.70925,-9.604668 9.7091996,9.6047998 0 0 1 9.70925,-9.60495 z"
     id="path4150" />
  <g
     style="stroke:#4f4f4f;stroke-opacity:1"
     id="g4179-9-2-3"
     transform="translate(-1.3747603,-5.4836273e-6)">
    <rect
       style="opacity:1;fill:#ffffff;fill-opacity:1;stroke:#4f4f4f;stroke-width:1;stroke-linecap:round;stroke-linejoin:round;stroke-miterlimit:2;stroke-dasharray:none;stroke-opacity:1"
       id="rect4138-7-4-4-5"
       width="33.335033"
       height="15.152288"
       x="124.47543"
       y="32.608231"
       ry="1.6071428" />
    <rect
       style="opacity:1;fill:#ffffff;fill-opacity:1;stroke:#4f4f4f;stroke-width:1;stroke-linecap:round;stroke-linejoin:round;stroke-miterlimit:2;stroke-dasharray:none;stroke-opacity:1"
       id="rect4138-8-8-8-3-6"
       width="33.335033"
       height="15.152288"
       x="124.47543"
       y="75.648483"
       ry="1.6071428" />
    <rect
       style="opacity:1;fill:#ffffff;fill-opacity:1;stroke:#4f4f4f;stroke-width:1;stroke-linecap:round;stroke-linejoin:round;stroke-miterlimit:2;stroke-dasharray:none;stroke-opacity:1"
       id="rect4138-2-0-1-2-9"
       width="33.335033"
       height="15.152288"
       x="170.17136"
       y="32.608231"
       ry="1.6071428" />
    <rect
       style="opacity:1;fill:#ffffff;fill-opacity:1;stroke:#4f4f4f;stroke-width:1;stroke-linecap:round;stroke-linejoin:round;stroke-miterlimit:2;stroke-dasharray:none;stroke-opacity:1"
       id="rect4138-8-6-8-2-4-2"
       width="33.335033"
       height="15.152288"
       x="170.17136"
       y="75.648483"
       ry="1.6071428" />
    <rect
       style="opacity:1;fill:#ffffff;fill-opacity:1;stroke:#4f4f4f;stroke-width:1;stroke-linecap:round;stroke-linejoin:round;stroke-miterlimit:2;stroke-dasharray:none;stroke-opacity:1"
       id="rect4138-2-4-1-8-9-7"
       width="33.335033"
       height="15.152288"
       x="215.86722"
       y="32.608231"
       ry="1.6071428" />
    <rect
       style="opacity:1;fill:#ffffff;fill-opacity:1;stroke:#4f4f4f;stroke-width:1;stroke-linecap:round;stroke-linejoin:round;stroke-miterlimit:2;stroke-dasharray:none;stroke-opacity:1"
       id="rect4138-8-6-5-8-2-4-0"
       width="33.335033"
       height="15.152288"
       x="215.86722"
       y="75.648483"
       ry="1.6071428" />
    <rect
       style="opacity:1;fill:#ffffff;fill-opacity:1;stroke:#4f4f4f;stroke-width:1;stroke-linecap:round;stroke-linejoin:round;stroke-miterlimit:2;stroke-dasharray:none;stroke-opacity:1"
       id="rect4138-2-4-4-9-3-5-9"
       width="33.335033"
       height="15.152288"
       x="261.56308"
       y="32.608231"
       ry="1.6071428" />
    <rect
       style="opacity:1;fill:#ffffff;fill-opacity:1;stroke:#4f4f4f;stroke-width:1;stroke-linecap:round;stroke-linejoin:round;stroke-miterlimit:2;stroke-dasharray:none;stroke-opacity:1"
       id="rect4138-8-6-5-6-2-0-0-4"
       width="33.335033"
       height="15.152288"
       x="261.56308"
       y="75.648483"
       ry="1.6071428" />
    <rect
       style="opacity:1;fill:#ffffff;fill-opacity:1;stroke:#4f4f4f;stroke-width:1;stroke-linecap:round;stroke-linejoin:round;stroke-miterlimit:2;stroke-dasharray:none;stroke-opacity:1"
       id="rect4138-2-4-4-5-5-7-1-3"
       width="33.335033"
       height="15.152288"
       x="307.259"
       y="32.608231"
       ry="1.6071428" />
    <rect
       style="opacity:1;fill:#ffffff;fill-opacity:1;stroke:#4f4f4f;stroke-width:1;stroke-linecap:round;stroke-linejoin:round;stroke-miterlimit:2;stroke-dasharray:none;stroke-opacity:1"
       id="rect4138-8-6-5-6-6-7-5-7-8"
       width="33.335033"
       height="15.152288"
       x="307.259"
       y="75.648483"
       ry="1.6071428" />
    <rect
       style="opacity:1;fill:#ffffff;fill-opacity:1;stroke:#4f4f4f;stroke-width:1;stroke-linecap:round;stroke-linejoin:round;stroke-miterlimit:2;stroke-dasharray:none;stroke-opacity:1"
       id="rect4138-2-3-4-2-9-2"
       width="33.335033"
       height="15.152288"
       x="33.083664"
       y="32.608231"
       ry="1.6071428" />
    <rect
       style="opacity:1;fill:#ffffff;fill-opacity:1;stroke:#4f4f4f;stroke-width:1;stroke-linecap:round;stroke-linejoin:round;stroke-miterlimit:2;stroke-dasharray:none;stroke-opacity:1"
       id="rect4138-8-6-9-3-8-0-5"
       width="33.335033"
       height="15.152288"
       x="33.083664"
       y="75.648483"
       ry="1.6071428" />
    <rect
       style="opacity:1;fill:#ffffff;fill-opacity:1;stroke:#4f4f4f;stroke-width:1;stroke-linecap:round;stroke-linejoin:round;stroke-miterlimit:2;stroke-dasharray:none;stroke-opacity:1"
       id="rect4138-2-4-2-2-2-0-0"
       width="33.335033"
       height="15.152288"
       x="78.779556"
       y="32.608231"
       ry="1.6071428" />
    <rect
       style="opacity:1;fill:#ffffff;fill-opacity:1;stroke:#4f4f4f;stroke-width:1;stroke-linecap:round;stroke-linejoin:round;stroke-miterlimit:2;stroke-dasharray:none;stroke-opacity:1"
       id="rect4138-8-6-5-63-5-0-8-0"
       width="33.335033"
       height="15.152288"
       x="78.779556"
       y="75.648483"
       ry="1.6071428" />
  </g>
</svg>
