<?xml version="1.0" encoding="UTF-8" standalone="no"?>
<svg
   xmlns:dc="http://purl.org/dc/elements/1.1/"
   xmlns:cc="http://creativecommons.org/ns#"
   xmlns:rdf="http://www.w3.org/1999/02/22-rdf-syntax-ns#"
   xmlns:svg="http://www.w3.org/2000/svg"
   xmlns="http://www.w3.org/2000/svg"
   version="1.1"
   id="svg2"
   viewBox="0 0 103.5195 99.006861"
   height="27.941936mm"
   width="29.215504mm">
  <defs
     id="defs4" />
  <metadata
     id="metadata7">
    <rdf:RDF>
      <cc:Work
         rdf:about="">
        <dc:format>image/svg+xml</dc:format>
        <dc:type
           rdf:resource="http://purl.org/dc/dcmitype/StillImage" />
        <dc:title></dc:title>
      </cc:Work>
    </rdf:RDF>
  </metadata>
  <g
     transform="translate(-493.70196,-577.5704)"
     id="layer1">
    <rect
       style="opacity:1;fill:#a1a2a3;fill-opacity:1;stroke:#4f4f4f;stroke-width:2.30585027;stroke-linecap:round;stroke-linejoin:round;stroke-miterlimit:2;stroke-dasharray:none;stroke-opacity:1"
       id="rect4136-2"
       width="101.21365"
       height="96.701012"
       x="494.85489"
       y="578.72333"
       ry="6.1872072" />
    <path
       style="fill:#ffffff;fill-opacity:1;fill-rule:evenodd;stroke:#4f4f4f;stroke-width:1.13061011;stroke-linecap:round;stroke-linejoin:round;stroke-miterlimit:4;stroke-dasharray:none;stroke-opacity:1"
       d="m 530.27929,598.41598 11.38059,0.52658 -0.10085,24.00628 -25.53375,0.0173 0.14728,-11.46928 -16.70754,16.33923 16.31095,15.03302 0.13999,-10.83039 25.14798,-1.67626 0.0115,0.012 -1.76909,24.39388 -12.05223,-0.55677 16.56858,16.46732 16.39841,-14.94721 -11.38062,-0.52657 -0.83445,-24.76471 26.71985,1.13214 -0.57074,11.45568 17.30327,-15.76976 -15.745,-15.56911 -0.5404,10.81851 -26.3397,0.78233 2.36008,-23.91084 12.05223,0.55675 -16.56861,-16.46732 -16.39837,14.9472 z"
       id="path5466-5" />
  </g>
</svg>
