<?xml version="1.0" encoding="UTF-8" standalone="no"?>
<svg
   xmlns:dc="http://purl.org/dc/elements/1.1/"
   xmlns:cc="http://creativecommons.org/ns#"
   xmlns:rdf="http://www.w3.org/1999/02/22-rdf-syntax-ns#"
   xmlns:svg="http://www.w3.org/2000/svg"
   xmlns="http://www.w3.org/2000/svg"
   width="134.66418mm"
   height="34.828758mm"
   viewBox="0 0 477.15656 123.40899"
   id="svg7778"
   version="1.1">
  <defs
     id="defs7780" />
  <metadata
     id="metadata7783">
    <rdf:RDF>
      <cc:Work
         rdf:about="">
        <dc:format>image/svg+xml</dc:format>
        <dc:type
           rdf:resource="http://purl.org/dc/dcmitype/StillImage" />
        <dc:title></dc:title>
      </cc:Work>
    </rdf:RDF>
  </metadata>
  <rect
     style="opacity:1;fill:#666666;fill-opacity:1;stroke:#000000;stroke-width:5.49655199;stroke-linecap:round;stroke-linejoin:round;stroke-miterlimit:2;stroke-dasharray:none;stroke-opacity:1"
     id="rect4136-2"
     width="471.66"
     height="117.91244"
     x="2.748276"
     y="2.748276"
     ry="7.5443735" />
  <g
     style="stroke:#000000;stroke-opacity:1;stroke-width:1;stroke-miterlimit:4;stroke-dasharray:none"
     id="g4179-9-2-3"
     transform="translate(-1.3747532,-1.0581894e-5)">
    <rect
       style="opacity:1;fill:#ffffff;fill-opacity:1;stroke:#000000;stroke-width:1;stroke-linecap:round;stroke-linejoin:round;stroke-miterlimit:4;stroke-dasharray:none;stroke-opacity:1"
       id="rect4138-7-4-4-5"
       width="33.335033"
       height="15.152288"
       x="124.47543"
       y="32.608231"
       ry="1.6071428" />
    <rect
       style="opacity:1;fill:#ffffff;fill-opacity:1;stroke:#000000;stroke-width:1;stroke-linecap:round;stroke-linejoin:round;stroke-miterlimit:4;stroke-dasharray:none;stroke-opacity:1"
       id="rect4138-8-8-8-3-6"
       width="33.335033"
       height="15.152288"
       x="124.47543"
       y="75.648483"
       ry="1.6071428" />
    <rect
       style="opacity:1;fill:#ffffff;fill-opacity:1;stroke:#000000;stroke-width:1;stroke-linecap:round;stroke-linejoin:round;stroke-miterlimit:4;stroke-dasharray:none;stroke-opacity:1"
       id="rect4138-2-0-1-2-9"
       width="33.335033"
       height="15.152288"
       x="170.17136"
       y="32.608231"
       ry="1.6071428" />
    <rect
       style="opacity:1;fill:#ffffff;fill-opacity:1;stroke:#000000;stroke-width:1;stroke-linecap:round;stroke-linejoin:round;stroke-miterlimit:4;stroke-dasharray:none;stroke-opacity:1"
       id="rect4138-8-6-8-2-4-2"
       width="33.335033"
       height="15.152288"
       x="170.17136"
       y="75.648483"
       ry="1.6071428" />
    <rect
       style="opacity:1;fill:#ffffff;fill-opacity:1;stroke:#000000;stroke-width:1;stroke-linecap:round;stroke-linejoin:round;stroke-miterlimit:4;stroke-dasharray:none;stroke-opacity:1"
       id="rect4138-2-4-1-8-9-7"
       width="33.335033"
       height="15.152288"
       x="215.86722"
       y="32.608231"
       ry="1.6071428" />
    <rect
       style="opacity:1;fill:#ffffff;fill-opacity:1;stroke:#000000;stroke-width:1;stroke-linecap:round;stroke-linejoin:round;stroke-miterlimit:4;stroke-dasharray:none;stroke-opacity:1"
       id="rect4138-8-6-5-8-2-4-0"
       width="33.335033"
       height="15.152288"
       x="215.86722"
       y="75.648483"
       ry="1.6071428" />
    <rect
       style="opacity:1;fill:#ffffff;fill-opacity:1;stroke:#000000;stroke-width:1;stroke-linecap:round;stroke-linejoin:round;stroke-miterlimit:4;stroke-dasharray:none;stroke-opacity:1"
       id="rect4138-2-4-4-9-3-5-9"
       width="33.335033"
       height="15.152288"
       x="261.56308"
       y="32.608231"
       ry="1.6071428" />
    <rect
       style="opacity:1;fill:#ffffff;fill-opacity:1;stroke:#000000;stroke-width:1;stroke-linecap:round;stroke-linejoin:round;stroke-miterlimit:4;stroke-dasharray:none;stroke-opacity:1"
       id="rect4138-8-6-5-6-2-0-0-4"
       width="33.335033"
       height="15.152288"
       x="261.56308"
       y="75.648483"
       ry="1.6071428" />
    <rect
       style="opacity:1;fill:#ffffff;fill-opacity:1;stroke:#000000;stroke-width:1;stroke-linecap:round;stroke-linejoin:round;stroke-miterlimit:4;stroke-dasharray:none;stroke-opacity:1"
       id="rect4138-2-4-4-5-5-7-1-3"
       width="33.335033"
       height="15.152288"
       x="307.259"
       y="32.608231"
       ry="1.6071428" />
    <rect
       style="opacity:1;fill:#ffffff;fill-opacity:1;stroke:#000000;stroke-width:1;stroke-linecap:round;stroke-linejoin:round;stroke-miterlimit:4;stroke-dasharray:none;stroke-opacity:1"
       id="rect4138-8-6-5-6-6-7-5-7-8"
       width="33.335033"
       height="15.152288"
       x="307.259"
       y="75.648483"
       ry="1.6071428" />
    <rect
       style="opacity:1;fill:#ffffff;fill-opacity:1;stroke:#000000;stroke-width:1;stroke-linecap:round;stroke-linejoin:round;stroke-miterlimit:4;stroke-dasharray:none;stroke-opacity:1"
       id="rect4138-2-3-4-2-9-2"
       width="33.335033"
       height="15.152288"
       x="33.083664"
       y="32.608231"
       ry="1.6071428" />
    <rect
       style="opacity:1;fill:#ffffff;fill-opacity:1;stroke:#000000;stroke-width:1;stroke-linecap:round;stroke-linejoin:round;stroke-miterlimit:4;stroke-dasharray:none;stroke-opacity:1"
       id="rect4138-8-6-9-3-8-0-5"
       width="33.335033"
       height="15.152288"
       x="33.083664"
       y="75.648483"
       ry="1.6071428" />
    <rect
       style="opacity:1;fill:#ffffff;fill-opacity:1;stroke:#000000;stroke-width:1;stroke-linecap:round;stroke-linejoin:round;stroke-miterlimit:4;stroke-dasharray:none;stroke-opacity:1"
       id="rect4138-2-4-2-2-2-0-0"
       width="33.335033"
       height="15.152288"
       x="78.779556"
       y="32.608231"
       ry="1.6071428" />
    <rect
       style="opacity:1;fill:#ffffff;fill-opacity:1;stroke:#000000;stroke-width:1;stroke-linecap:round;stroke-linejoin:round;stroke-miterlimit:4;stroke-dasharray:none;stroke-opacity:1"
       id="rect4138-8-6-5-63-5-0-8-0"
       width="33.335033"
       height="15.152288"
       x="78.779556"
       y="75.648483"
       ry="1.6071428" />
  </g>
  <g
     id="layer2"
     transform="matrix(0.24607884,0,0,0.24607884,326.22711,-60.45857)">
    <g
       id="g4235"
       transform="matrix(0.70710678,0.70710678,-0.70710678,0.70710678,356.69491,-225.15506)">
      <path
         id="rect4202"
         d="m 366.41775,408.51955 c 0,0 -1.32305,14.02396 -3.10354,21.19966 -6.38333,25.72609 -14.33086,51.99015 -8.95281,81.39167 102.66219,16.13192 200.11972,16.64984 292.30574,1.35322 5.94201,-26.85961 -0.0653,-52.94706 -6.30548,-78.45308 -1.96839,-8.04554 -4.4664,-23.74091 -4.4664,-23.74091 18.99429,44.27158 38.16062,88.54316 50.59906,132.81474 0.0987,21.666 8.86911,44.26112 -15.95621,63.2567 -16.93235,8.50311 -32.13737,9.57901 -49.5557,10.89769 -39.29442,2.97483 -68.84752,0.27654 -110.38843,-0.096 -23.58611,-0.21151 -66.1989,1.91743 -85.0203,1.76989 -38.5586,-0.30225 -86.09061,-2.67521 -99.67842,-19.00018 -17.04843,-16.37527 -14.39045,-33.73585 -12.97686,-51.03422 10.83098,-49.78732 33.92679,-94.31829 53.49935,-140.35921 z"
         style="opacity:1;fill:#1a1919;fill-opacity:1;stroke:none;stroke-width:2;stroke-linecap:round;stroke-linejoin:round;stroke-miterlimit:4;stroke-dasharray:none;stroke-opacity:1" />
      <path
         id="rect4202-6"
         d="m 413.01912,372.62297 c 0,0 -0.86091,9.12544 -2.01949,13.79469 -4.15365,16.74005 -9.32513,33.83015 -5.82562,52.96182 66.80263,10.49709 130.21856,10.83411 190.20431,0.88055 3.86648,-17.47764 -0.0425,-34.45283 -4.103,-51.04968 -1.28084,-5.23526 -2.90631,-15.44829 -2.90631,-15.44829 12.35966,28.80766 24.83125,57.61533 32.92498,86.42299 0.0642,14.09813 5.77116,28.80085 -10.38276,41.16134 -11.01793,5.533 -20.91189,6.23309 -32.24605,7.09116 -25.56901,1.93573 -44.79931,0.17995 -71.83012,-0.0625 -15.34755,-0.13762 -43.07584,1.24768 -55.32298,1.15168 -25.09021,-0.19667 -56.01945,-1.74077 -64.86107,-12.36348 -11.09348,-10.65544 -9.36392,-21.95203 -8.44409,-33.20813 7.04775,-32.39678 22.07628,-61.37322 34.8122,-91.3322 z"
         style="opacity:1;fill:#9d9d9a;fill-opacity:1;stroke:none;stroke-width:2;stroke-linecap:round;stroke-linejoin:round;stroke-miterlimit:4;stroke-dasharray:none;stroke-opacity:1" />
      <path
         id="rect4202-6-3"
         d="m 447.37267,345.49153 c 0,0 -0.54013,5.72527 -1.26702,8.65472 -2.60597,10.50264 -5.85054,21.22491 -3.65497,33.22805 41.9117,6.58582 81.69859,6.79726 119.33341,0.55244 2.42581,-10.9654 -0.0267,-21.61556 -2.57421,-32.02836 -0.8036,-3.28458 -1.82341,-9.6922 -1.82341,-9.6922 7.7544,18.07382 15.57902,36.14764 20.65699,54.22144 0.0403,8.84511 3.62082,18.06953 -6.51409,25.82445 -6.91261,3.47138 -13.12004,3.91062 -20.23104,4.44897 -16.04189,1.21447 -28.1069,0.11289 -45.06592,-0.0392 -9.62899,-0.0862 -27.0256,0.78278 -34.70941,0.72256 -15.74151,-0.1234 -35.14637,-1.09215 -40.69357,-7.7568 -6.96001,-6.68518 -5.87488,-13.77262 -5.29779,-20.83464 4.42174,-20.32561 13.85057,-38.50531 21.84103,-57.30145 z"
         style="opacity:1;fill:#d42835;fill-opacity:0.99607843;stroke:none;stroke-width:2;stroke-linecap:round;stroke-linejoin:round;stroke-miterlimit:4;stroke-dasharray:none;stroke-opacity:1" />
    </g>
  </g>
</svg>
