<?xml version="1.0" encoding="UTF-8" standalone="no"?>
<svg
   xmlns:dc="http://purl.org/dc/elements/1.1/"
   xmlns:cc="http://creativecommons.org/ns#"
   xmlns:rdf="http://www.w3.org/1999/02/22-rdf-syntax-ns#"
   xmlns:svg="http://www.w3.org/2000/svg"
   xmlns="http://www.w3.org/2000/svg"
   width="134.66418mm"
   height="34.828758mm"
   viewBox="0 0 477.15656 123.40899"
   id="svg7778"
   version="1.1">
  <defs
     id="defs7780" />
  <metadata
     id="metadata7783">
    <rdf:RDF>
      <cc:Work
         rdf:about="">
        <dc:format>image/svg+xml</dc:format>
        <dc:type
           rdf:resource="http://purl.org/dc/dcmitype/StillImage" />
        <dc:title></dc:title>
      </cc:Work>
    </rdf:RDF>
  </metadata>
  <rect
     style="opacity:1;fill:#a1a2a3;fill-opacity:1;stroke:#4f4f4f;stroke-width:5.497;stroke-linecap:round;stroke-linejoin:round;stroke-miterlimit:2;stroke-dasharray:none;stroke-opacity:1"
     id="rect4136-2"
     width="471.66"
     height="117.91244"
     x="2.748276"
     y="2.748276"
     ry="7.5443735" />
  <rect
     ry="10.013252"
     y="13.759356"
     x="15.076858"
     height="94.405876"
     width="447.0994"
     id="rect4138-8-6-5-6-6-7-5-7-8"
     style="opacity:1;fill:#578ebd;fill-opacity:1;stroke:#385872;stroke-width:5.2502799;stroke-linecap:round;stroke-linejoin:round;stroke-miterlimit:2;stroke-dasharray:none;stroke-opacity:1" />
  <g
     transform="matrix(0.74177691,0,0,0.74177691,29.460848,20.101641)"
     style="opacity:0.97000002;fill:#f4f7f9;fill-opacity:1;stroke:#fbfdff;stroke-width:1.48434448;stroke-linecap:round;stroke-linejoin:round;stroke-miterlimit:4;stroke-dasharray:none;stroke-opacity:1"
     id="g4166">
    <path
       style="clip-rule:evenodd;fill:#f4f7f9;fill-opacity:1;fill-rule:evenodd;stroke:#fbfdff;stroke-width:1.48434448;stroke-linecap:round;stroke-linejoin:round;stroke-miterlimit:4;stroke-dasharray:none;stroke-opacity:1"
       id="path5"
       d="m 500.8687,8.8973411 c -3.43197,0 -6.46016,2.8263169 -6.46016,6.4601519 l 0,47.441746 c 0,3.633835 2.82631,6.460151 6.46016,6.460151 l 47.44173,0 c 3.43197,0 6.46016,-2.826316 6.46016,-6.460151 l 0,-47.441746 c 0,-3.431955 -2.82632,-6.4601519 -6.46016,-6.4601519 l -47.44173,0 0,0 z m -2.82633,53.9018979 0,-47.441746 c 0,-1.615038 1.21129,-2.826316 2.82633,-2.826316 l 47.44173,0 c 1.61504,0 2.82631,1.211278 2.82631,2.826316 l 0,47.441746 c 0,1.615036 -1.21127,2.826315 -2.82631,2.826315 l -47.44173,0 c -1.41317,0 -2.82633,-1.211279 -2.82633,-2.826315 l 0,0 z"
       class="st0" />
    <path
       style="clip-rule:evenodd;fill:#f4f7f9;fill-opacity:1;fill-rule:evenodd;stroke:#fbfdff;stroke-width:1.48434448;stroke-linecap:round;stroke-linejoin:round;stroke-miterlimit:4;stroke-dasharray:none;stroke-opacity:1"
       id="path7"
       d="m 515.00027,23.230804 c -3.43195,0 -6.46014,2.826316 -6.46014,6.460153 l 0,47.441744 c 0,3.431956 2.82631,6.460153 6.46014,6.460153 l 47.44175,0 c 3.63384,0 6.46015,-2.826318 6.46015,-6.460153 l 0,-47.441744 c 0,-3.431957 -2.82631,-6.460153 -6.46015,-6.460153 l -47.44175,0 0,0 z m -2.82632,53.700018 0,-47.441745 c 0,-1.615038 1.21128,-2.826317 2.82632,-2.826317 l 47.44175,0 c 1.61504,0 2.82632,1.211279 2.82632,2.826317 l 0,47.441745 c 0,1.615036 -1.21128,2.826315 -2.82632,2.826315 l -47.44175,0 c -1.41315,0 -2.82632,-1.211279 -2.82632,-2.826315 l 0,0 z"
       class="st0" />
    <path
       style="clip-rule:evenodd;fill:#f4f7f9;fill-opacity:1;fill-rule:evenodd;stroke:#fbfdff;stroke-width:1.48434448;stroke-linecap:round;stroke-linejoin:round;stroke-miterlimit:4;stroke-dasharray:none;stroke-opacity:1"
       id="path9"
       d="m 486.73711,37.362388 c -3.63384,0 -6.46015,2.826317 -6.46015,6.460152 l 0,47.441744 c 0,3.633836 2.82631,6.460153 6.46015,6.460153 l 47.44174,0 c 3.43196,0 6.46016,-2.826317 6.46016,-6.460153 l 0,-47.441744 c 0,-3.431956 -2.82632,-6.460152 -6.46016,-6.460152 l -47.44174,0 0,0 z m -2.82631,53.700017 0,-47.441745 c 0,-1.615038 1.21127,-2.826317 2.82631,-2.826317 l 47.44174,0 c 1.61504,0 2.82632,1.211279 2.82632,2.826317 l 0,47.441745 c 0,1.615039 -1.21128,2.826316 -2.82632,2.826316 l -47.44174,0 c -1.61504,0 -2.82631,-1.211277 -2.82631,-2.826316 l 0,0 z"
       class="st0" />
  </g>
  <g
     transform="translate(-6,0)"
     id="g4286">
    <rect
       style="opacity:1;fill:#d3d3d3;fill-opacity:1;stroke:none;stroke-width:5.49700022;stroke-linecap:round;stroke-linejoin:round;stroke-miterlimit:2;stroke-dasharray:none;stroke-opacity:1"
       id="rect4191"
       width="75.659538"
       height="72.526276"
       x="303.14935"
       y="24.655155"
       ry="5.3596449" />
    <g
       transform="matrix(0.78915754,0,0,0.78915754,97.467646,-223.91521)"
       id="layer1">
      <g
         transform="translate(-485.56321,-186.26888)"
         id="g4497">
        <circle
           style="opacity:1;fill:#348bc3;fill-opacity:1;stroke:#257db6;stroke-width:1.66582286;stroke-linecap:round;stroke-linejoin:round;stroke-miterlimit:4;stroke-dasharray:none;stroke-opacity:1"
           id="path4429"
           cx="794.13464"
           cy="547.20251"
           r="40.385647" />
        <g
           id="g4491">
          <path
             id="rect4431"
             transform="translate(0,308.26772)"
             d="m 776.19141,213.91406 -7.16993,7.35352 12.9668,12.8125 -3.09766,3.10742 13.25782,0 0,-13.38477 -2.9336,2.98047 -13.02343,-12.86914 z"
             style="opacity:1;fill:#fbfdff;fill-opacity:1;stroke:#257db6;stroke-width:0.5;stroke-linecap:round;stroke-linejoin:round;stroke-miterlimit:4;stroke-dasharray:none;stroke-dashoffset:0;stroke-opacity:1" />
          <path
             id="rect4431-8"
             d="m 811.75797,571.92837 7.16993,-7.35352 -12.9668,-12.8125 3.09766,-3.10742 -13.25782,0 0,13.38477 2.9336,-2.98047 13.02343,12.86914 z"
             style="opacity:1;fill:#fbfdff;fill-opacity:1;stroke:#257db6;stroke-width:0.5;stroke-linecap:round;stroke-linejoin:round;stroke-miterlimit:4;stroke-dasharray:none;stroke-dashoffset:0;stroke-opacity:1" />
          <path
             id="rect4431-8-8"
             d="m 790.74883,550.51372 -0.47502,-0.51465 -6.59039,0.43735 -8.33171,8.43205 -3.10742,-3.09766 0,13.25782 13.38477,0 -2.98047,-2.9336 8.79942,-8.90491 z"
             style="opacity:1;fill:#fbfdff;fill-opacity:1;stroke:#257db6;stroke-width:0.5;stroke-linecap:round;stroke-linejoin:round;stroke-miterlimit:4;stroke-dasharray:none;stroke-dashoffset:0;stroke-opacity:1" />
          <path
             id="rect4431-8-8-7"
             d="m 797.45159,543.15409 0.47502,0.51465 6.59039,-0.43735 8.33171,-8.43205 3.10742,3.09766 0,-13.25782 -13.38477,0 2.98047,2.9336 -8.79942,8.90491 z"
             style="opacity:1;fill:#fbfdff;fill-opacity:1;stroke:#257db6;stroke-width:0.5;stroke-linecap:round;stroke-linejoin:round;stroke-miterlimit:4;stroke-dasharray:none;stroke-dashoffset:0;stroke-opacity:1" />
        </g>
      </g>
    </g>
  </g>
  <g
     transform="translate(-4.8497162,0)"
     id="g4279">
    <rect
       style="opacity:1;fill:#d3d3d3;fill-opacity:1;stroke:none;stroke-width:5.49700022;stroke-linecap:round;stroke-linejoin:round;stroke-miterlimit:2;stroke-dasharray:none;stroke-opacity:1"
       id="rect4191-1"
       width="75.659538"
       height="72.526276"
       x="213.76186"
       y="24.970896"
       ry="5.3596449" />
    <g
       transform="matrix(0.79672658,0,0,0.79672658,112.73356,-285.51679)"
       id="layer1-5">
      <g
         transform="translate(-437.86669,-111.81404)"
         id="g4537">
        <circle
           style="opacity:1;fill:#b18cbf;fill-opacity:1;stroke:#7b6498;stroke-width:1.8836937;stroke-linecap:round;stroke-linejoin:round;stroke-miterlimit:4;stroke-dasharray:none;stroke-dashoffset:0;stroke-opacity:1"
           id="path4505"
           cx="612.1524"
           cy="547.03339"
           r="39.959179" />
        <path
           style="color:#000000;font-style:normal;font-variant:normal;font-weight:normal;font-stretch:normal;font-size:medium;line-height:normal;font-family:sans-serif;text-indent:0;text-align:start;text-decoration:none;text-decoration-line:none;text-decoration-style:solid;text-decoration-color:#000000;letter-spacing:normal;word-spacing:normal;text-transform:none;direction:ltr;block-progression:tb;writing-mode:lr-tb;baseline-shift:baseline;text-anchor:start;white-space:normal;clip-rule:nonzero;display:inline;overflow:visible;visibility:visible;opacity:1;isolation:auto;mix-blend-mode:normal;color-interpolation:sRGB;color-interpolation-filters:linearRGB;solid-color:#000000;solid-opacity:1;fill:#fdfbff;fill-opacity:1;fill-rule:nonzero;stroke:#7b6498;stroke-width:0.5;stroke-linecap:round;stroke-linejoin:round;stroke-miterlimit:4;stroke-dasharray:none;stroke-dashoffset:0;stroke-opacity:1;color-rendering:auto;image-rendering:auto;shape-rendering:auto;text-rendering:auto;enable-background:accumulate"
           d="m 612.15234,211.75586 c -12.95206,0 -23.81117,9.07553 -26.57422,21.20117 l -8.27539,0 0,11.39649 8.11524,0 c 2.48707,12.48787 13.52496,21.92578 26.73437,21.92578 13.20943,0 24.24731,-9.43791 26.73438,-21.92578 l 6.98047,0 0,-11.39649 -7.14063,0 c -2.76304,-12.12564 -13.62214,-21.20117 -26.57422,-21.20117 z m 0,3.5 c 11.04824,0 20.30932,7.50297 22.98243,17.70117 l -10.73438,0 0,11.39649 10.9082,0 c -2.41619,10.56484 -11.84838,18.42578 -23.15625,18.42578 -11.30787,0 -20.74006,-7.86094 -23.15625,-18.42578 l 9.77149,0 0,-11.39649 -9.59766,0 c 2.67311,-10.1982 11.93418,-17.70117 22.98242,-17.70117 z"
           id="path4507"
           transform="translate(0,308.26772)" />
      </g>
    </g>
  </g>
  <g
     transform="translate(-8.471947,0)"
     id="g4272">
    <rect
       style="opacity:1;fill:#d3d3d3;fill-opacity:1;stroke:none;stroke-width:5.49700022;stroke-linecap:round;stroke-linejoin:round;stroke-miterlimit:2;stroke-dasharray:none;stroke-opacity:1"
       id="rect4191-1-9"
       width="75.659538"
       height="72.526276"
       x="129.1469"
       y="24.730129"
       ry="5.3596449" />
    <g
       transform="matrix(0.79324648,0,0,0.79324648,-73.26368,-322.77206)"
       id="layer1-2">
      <g
         id="g5030"
         transform="translate(-263.51183,-287.3612)">
        <circle
           style="opacity:1;fill:#70cbd6;fill-opacity:1;stroke:#2795a2;stroke-width:2.10743618;stroke-linecap:round;stroke-linejoin:round;stroke-miterlimit:4;stroke-dasharray:none;stroke-dashoffset:0;stroke-opacity:1"
           id="path4541"
           cx="566.36896"
           cy="771.15198"
           r="40.980015" />
        <path
           style="opacity:1;fill:#ffffff;fill-opacity:1;stroke:#2795a2;stroke-width:0.5;stroke-linecap:round;stroke-linejoin:round;stroke-miterlimit:4;stroke-dasharray:none;stroke-dashoffset:0;stroke-opacity:1"
           d="m 560.43343,745.8717 0,11.89844 3.75391,0 0,8.32031 -25.4707,0 0,11.89844 5.20312,0 0,7.97266 -2.23633,0 0,6.4707 7.64649,0 0,-6.4707 -2.05469,0 0,-7.97266 10.3457,0 0,7.97266 -2.12304,0 0,6.4707 7.64648,0 0,-6.4707 -2.16992,0 0,-7.97266 10.34766,0 0,7.97266 -2.00977,0 0,6.4707 7.64649,0 0,-6.4707 -2.28321,0 0,-7.97266 10.34571,0 0,7.97266 -1.89454,0 0,6.4707 7.64844,0 0,-6.4707 -2.40039,0 0,-7.97266 5.64649,0 0,-11.89844 -25.59571,0 0,-8.32031 3.75195,0 0,-11.89844 -11.74414,0 z"
           id="rect4543" />
      </g>
    </g>
  </g>
  <g
     transform="translate(4,0)"
     id="g4265">
    <rect
       style="opacity:1;fill:#d3d3d3;fill-opacity:1;stroke:none;stroke-width:5.49700022;stroke-linecap:round;stroke-linejoin:round;stroke-miterlimit:2;stroke-dasharray:none;stroke-opacity:1"
       id="rect4191-1-2"
       width="75.659538"
       height="72.526276"
       x="26.437754"
       y="23.108774"
       ry="5.3596449" />
    <g
       transform="matrix(0.83355852,0,0,0.83355852,-216.76077,-367.71197)"
       id="layer1-0">
      <g
         transform="translate(55.39539,-33.071389)"
         id="g4425">
        <circle
           style="opacity:1;fill:#37b29b;fill-opacity:1;stroke:#29a58d;stroke-width:2;stroke-linecap:round;stroke-linejoin:round;stroke-miterlimit:4;stroke-dasharray:none;stroke-opacity:1"
           id="path4153"
           cx="281.74747"
           cy="545.43359"
           r="38.92857" />
        <path
           style="opacity:1;fill:#f9fbfa;fill-opacity:1;stroke:#29a58d;stroke-width:0.5;stroke-linecap:round;stroke-linejoin:round;stroke-miterlimit:4;stroke-dasharray:none;stroke-opacity:1"
           d="m 282.08594,207.93164 a 5.833117,5.833117 0 0 0 -5.83399,5.83203 5.833117,5.833117 0 0 0 4.31836,5.62695 l 0,8.75 a 9.9999962,9.9999962 0 0 0 -7.24023,5.32227 l -8.1836,-2.48633 a 5.833117,5.833117 0 0 0 0.043,-0.67187 5.833117,5.833117 0 0 0 -5.83203,-5.83203 5.833117,5.833117 0 0 0 -5.83398,5.83203 5.833117,5.833117 0 0 0 5.83398,5.83398 5.833117,5.833117 0 0 0 4.66016,-2.33594 l 8.36133,2.54102 a 9.9999962,9.9999962 0 0 0 -0.14844,1.6582 9.9999962,9.9999962 0 0 0 3.11523,7.23633 l -5.48047,6.33594 a 5.833117,5.833117 0 0 0 -1.92187,-0.33203 5.833117,5.833117 0 0 0 -5.83398,5.83203 5.833117,5.833117 0 0 0 5.83398,5.83398 5.833117,5.833117 0 0 0 5.83203,-5.83398 5.833117,5.833117 0 0 0 -1.39453,-3.77344 l 5.4707,-6.32226 a 9.9999962,9.9999962 0 0 0 4.37891,1.02343 9.9999962,9.9999962 0 0 0 4.03906,-0.86523 l 5.53125,7.13476 a 5.833117,5.833117 0 0 0 -1.02734,3.3086 5.833117,5.833117 0 0 0 5.83203,5.83203 5.833117,5.833117 0 0 0 5.83398,-5.83203 5.833117,5.833117 0 0 0 -5.83398,-5.83399 5.833117,5.833117 0 0 0 -2.34766,0.50196 l -5.3125,-6.85157 a 9.9999962,9.9999962 0 0 0 3.28321,-7.39453 9.9999962,9.9999962 0 0 0 -0.18164,-1.86133 l 7.85742,-2.77929 a 5.833117,5.833117 0 0 0 5.03515,2.90429 5.833117,5.833117 0 0 0 5.83399,-5.83398 5.833117,5.833117 0 0 0 -5.83399,-5.83203 5.833117,5.833117 0 0 0 -5.83203,5.83203 5.833117,5.833117 0 0 0 0.002,0.0547 l -8.04493,2.8457 a 9.9999962,9.9999962 0 0 0 -7.33789,-5.20508 l 0,-8.76953 a 5.833117,5.833117 0 0 0 4.19141,-5.59375 5.833117,5.833117 0 0 0 -5.83203,-5.83203 z"
           transform="translate(0,308.26772)"
           id="path4153-1" />
      </g>
    </g>
  </g>
</svg>
